<svg xmlns="http://www.w3.org/2000/svg" viewBox="0 0 16 10" shape-rendering="crispEdges" fill="#000"><rect x="7" y="0" width="2" height="1"/><rect x="5" y="1" width="6" height="1"/><rect x="3" y="2" width="10" height="1"/><rect x="1" y="3" width="14" height="1"/><rect x="1" y="4" width="14" height="1"/><rect x="1" y="5" width="5" height="1"/><rect x="10" y="5" width="5" height="1"/><rect x="1" y="6" width="5" height="1"/><rect x="10" y="6" width="5" height="1"/><rect x="1" y="7" width="5" height="1"/><rect x="7" y="7" width="2" height="1"/><rect x="10" y="7" width="5" height="1"/><rect x="1" y="8" width="5" height="1"/><rect x="7" y="8" width="2" height="1"/><rect x="10" y="8" width="5" height="1"/><rect x="1" y="9" width="5" height="1"/><rect x="7" y="9" width="2" height="1"/><rect x="10" y="9" width="5" height="1"/></svg>