<svg xmlns="http://www.w3.org/2000/svg" viewBox="0 0 128 22" shape-rendering="crispEdges" fill="#000"><rect x="19" y="8" width="10" height="1"/><rect x="73" y="8" width="2" height="1"/><rect x="18" y="9" width="3" height="1"/><rect x="22" y="9" width="4" height="1"/><rect x="27" y="9" width="3" height="1"/><rect x="46" y="9" width="2" height="1"/><rect x="72" y="9" width="4" height="1"/><rect x="78" y="9" width="1" height="1"/><rect x="18" y="10" width="3" height="1"/><rect x="22" y="10" width="4" height="1"/><rect x="27" y="10" width="3" height="1"/><rect x="45" y="10" width="4" height="1"/><rect x="73" y="10" width="2" height="1"/><rect x="78" y="10" width="1" height="1"/><rect x="17" y="11" width="14" height="1"/><rect x="46" y="11" width="2" height="1"/><rect x="73" y="11" width="2" height="1"/><rect x="78" y="11" width="1" height="1"/><rect x="16" y="12" width="16" height="1"/><rect x="46" y="12" width="2" height="1"/><rect x="73" y="12" width="2" height="1"/><rect x="78" y="12" width="1" height="1"/><rect x="93" y="12" width="3" height="1"/><rect x="18" y="13" width="3" height="1"/><rect x="27" y="13" width="3" height="1"/><rect x="46" y="13" width="2" height="1"/><rect x="72" y="13" width="1" height="1"/><rect x="75" y="13" width="1" height="1"/><rect x="78" y="13" width="1" height="1"/><rect x="87" y="13" width="1" height="1"/><rect x="93" y="13" width="5" height="1"/><rect x="18" y="14" width="3" height="1"/><rect x="27" y="14" width="3" height="1"/><rect x="45" y="14" width="1" height="1"/><rect x="48" y="14" width="1" height="1"/><rect x="63" y="14" width="2" height="1"/><rect x="72" y="14" width="1" height="1"/><rect x="75" y="14" width="1" height="1"/><rect x="78" y="14" width="1" height="1"/><rect x="88" y="14" width="8" height="1"/><rect x="18" y="15" width="3" height="1"/><rect x="27" y="15" width="3" height="1"/><rect x="45" y="15" width="1" height="1"/><rect x="48" y="15" width="1" height="1"/><rect x="57" y="15" width="8" height="1"/><rect x="72" y="15" width="1" height="1"/><rect x="75" y="15" width="1" height="1"/><rect x="78" y="15" width="1" height="1"/><rect x="87" y="15" width="9" height="1"/><rect x="18" y="16" width="3" height="1"/><rect x="27" y="16" width="3" height="1"/><rect x="45" y="16" width="1" height="1"/><rect x="48" y="16" width="1" height="1"/><rect x="56" y="16" width="8" height="1"/><rect x="72" y="16" width="1" height="1"/><rect x="75" y="16" width="1" height="1"/><rect x="78" y="16" width="1" height="1"/><rect x="88" y="16" width="7" height="1"/><rect x="18" y="17" width="3" height="1"/><rect x="27" y="17" width="3" height="1"/><rect x="45" y="17" width="1" height="1"/><rect x="48" y="17" width="1" height="1"/><rect x="57" y="17" width="2" height="1"/><rect x="61" y="17" width="2" height="1"/><rect x="72" y="17" width="1" height="1"/><rect x="75" y="17" width="1" height="1"/><rect x="78" y="17" width="1" height="1"/><rect x="90" y="17" width="1" height="1"/><rect x="93" y="17" width="1" height="1"/><rect x="18" y="18" width="3" height="1"/><rect x="27" y="18" width="3" height="1"/><rect x="44" y="18" width="2" height="1"/><rect x="48" y="18" width="2" height="1"/><rect x="57" y="18" width="1" height="1"/><rect x="62" y="18" width="1" height="1"/><rect x="71" y="18" width="2" height="1"/><rect x="75" y="18" width="2" height="1"/><rect x="78" y="18" width="1" height="1"/><rect x="90" y="18" width="1" height="1"/><rect x="93" y="18" width="1" height="1"/><rect x="19" y="19" width="1" height="1"/><rect x="28" y="19" width="1" height="1"/><rect x="44" y="19" width="1" height="1"/><rect x="49" y="19" width="1" height="1"/><rect x="57" y="19" width="1" height="1"/><rect x="62" y="19" width="1" height="1"/><rect x="71" y="19" width="1" height="1"/><rect x="76" y="19" width="1" height="1"/><rect x="78" y="19" width="1" height="1"/><rect x="89" y="19" width="2" height="1"/><rect x="92" y="19" width="2" height="1"/></svg>