<svg xmlns="http://www.w3.org/2000/svg" viewBox="0 0 800 300" role="img" aria-label="Pixel art of a traveler with a pack at a many-armed signpost, far off the tourist map" shape-rendering="crispEdges">
<!-- generated by tools/niche_pixel.py; edit the generator, not these rects -->
<rect x="0" y="0" width="800" height="4" fill="#C7D2DB"/>
<rect x="0" y="4" width="800" height="4" fill="#C7D2DB"/>
<rect x="0" y="8" width="800" height="4" fill="#C7D2DB"/>
<rect x="0" y="12" width="800" height="4" fill="#C7D2DB"/>
<rect x="0" y="16" width="800" height="4" fill="#C7D2DB"/>
<rect x="0" y="20" width="800" height="4" fill="#C7D2DB"/>
<rect x="0" y="24" width="648" height="4" fill="#C7D2DB"/>
<rect x="648" y="24" width="4" height="4" fill="#EBD9A8"/>
<rect x="652" y="24" width="148" height="4" fill="#C7D2DB"/>
<rect x="0" y="28" width="636" height="4" fill="#C7D2DB"/>
<rect x="636" y="28" width="28" height="4" fill="#EBD9A8"/>
<rect x="664" y="28" width="136" height="4" fill="#C7D2DB"/>
<rect x="0" y="32" width="632" height="4" fill="#C7D2DB"/>
<rect x="632" y="32" width="12" height="4" fill="#EBD9A8"/>
<rect x="644" y="32" width="4" height="4" fill="#F6EDCE"/>
<rect x="648" y="32" width="20" height="4" fill="#EBD9A8"/>
<rect x="668" y="32" width="132" height="4" fill="#C7D2DB"/>
<rect x="0" y="36" width="628" height="4" fill="#C7D2DB"/>
<rect x="628" y="36" width="8" height="4" fill="#EBD9A8"/>
<rect x="636" y="36" width="20" height="4" fill="#F6EDCE"/>
<rect x="656" y="36" width="16" height="4" fill="#EBD9A8"/>
<rect x="672" y="36" width="128" height="4" fill="#C7D2DB"/>
<rect x="0" y="40" width="628" height="4" fill="#C7D2DB"/>
<rect x="628" y="40" width="8" height="4" fill="#EBD9A8"/>
<rect x="636" y="40" width="20" height="4" fill="#F6EDCE"/>
<rect x="656" y="40" width="16" height="4" fill="#EBD9A8"/>
<rect x="672" y="40" width="128" height="4" fill="#C7D2DB"/>
<rect x="0" y="44" width="628" height="4" fill="#C7D2DB"/>
<rect x="628" y="44" width="4" height="4" fill="#EBD9A8"/>
<rect x="632" y="44" width="28" height="4" fill="#F6EDCE"/>
<rect x="660" y="44" width="12" height="4" fill="#EBD9A8"/>
<rect x="672" y="44" width="128" height="4" fill="#C7D2DB"/>
<rect x="0" y="48" width="480" height="4" fill="#C7D2DB"/>
<rect x="480" y="48" width="108" height="4" fill="#9C7E64"/>
<rect x="588" y="48" width="36" height="4" fill="#C7D2DB"/>
<rect x="624" y="48" width="12" height="4" fill="#EBD9A8"/>
<rect x="636" y="48" width="20" height="4" fill="#F6EDCE"/>
<rect x="656" y="48" width="20" height="4" fill="#EBD9A8"/>
<rect x="676" y="48" width="124" height="4" fill="#C7D2DB"/>
<rect x="0" y="52" width="472" height="4" fill="#C7D2DB"/>
<rect x="472" y="52" width="8" height="4" fill="#9C7E64"/>
<rect x="480" y="52" width="108" height="4" fill="#B49478"/>
<rect x="588" y="52" width="40" height="4" fill="#C7D2DB"/>
<rect x="628" y="52" width="8" height="4" fill="#EBD9A8"/>
<rect x="636" y="52" width="20" height="4" fill="#F6EDCE"/>
<rect x="656" y="52" width="16" height="4" fill="#EBD9A8"/>
<rect x="672" y="52" width="128" height="4" fill="#C7D2DB"/>
<rect x="0" y="56" width="464" height="4" fill="#C7D2DB"/>
<rect x="464" y="56" width="8" height="4" fill="#9C7E64"/>
<rect x="472" y="56" width="116" height="4" fill="#B49478"/>
<rect x="588" y="56" width="40" height="4" fill="#C7D2DB"/>
<rect x="628" y="56" width="16" height="4" fill="#EBD9A8"/>
<rect x="644" y="56" width="4" height="4" fill="#F6EDCE"/>
<rect x="648" y="56" width="24" height="4" fill="#EBD9A8"/>
<rect x="672" y="56" width="128" height="4" fill="#C7D2DB"/>
<rect x="0" y="60" width="456" height="4" fill="#C7D2DB"/>
<rect x="456" y="60" width="8" height="4" fill="#9C7E64"/>
<rect x="464" y="60" width="124" height="4" fill="#B49478"/>
<rect x="588" y="60" width="40" height="4" fill="#C7D2DB"/>
<rect x="628" y="60" width="44" height="4" fill="#EBD9A8"/>
<rect x="672" y="60" width="128" height="4" fill="#C7D2DB"/>
<rect x="0" y="64" width="88" height="4" fill="#C7D2DB"/>
<rect x="88" y="64" width="76" height="4" fill="#9C7E64"/>
<rect x="164" y="64" width="284" height="4" fill="#C7D2DB"/>
<rect x="448" y="64" width="8" height="4" fill="#9C7E64"/>
<rect x="456" y="64" width="132" height="4" fill="#B49478"/>
<rect x="588" y="64" width="44" height="4" fill="#C7D2DB"/>
<rect x="632" y="64" width="36" height="4" fill="#EBD9A8"/>
<rect x="668" y="64" width="132" height="4" fill="#C7D2DB"/>
<rect x="0" y="68" width="88" height="4" fill="#C7D2DB"/>
<rect x="88" y="68" width="76" height="4" fill="#B49478"/>
<rect x="164" y="68" width="280" height="4" fill="#C7D2DB"/>
<rect x="444" y="68" width="4" height="4" fill="#9C7E64"/>
<rect x="448" y="68" width="140" height="4" fill="#B49478"/>
<rect x="588" y="68" width="48" height="4" fill="#C7D2DB"/>
<rect x="636" y="68" width="28" height="4" fill="#EBD9A8"/>
<rect x="664" y="68" width="136" height="4" fill="#C7D2DB"/>
<rect x="0" y="72" width="88" height="4" fill="#D2DAD8"/>
<rect x="88" y="72" width="76" height="4" fill="#B49478"/>
<rect x="164" y="72" width="272" height="4" fill="#D2DAD8"/>
<rect x="436" y="72" width="8" height="4" fill="#9C7E64"/>
<rect x="444" y="72" width="144" height="4" fill="#B49478"/>
<rect x="588" y="72" width="4" height="4" fill="#9C7E64"/>
<rect x="592" y="72" width="56" height="4" fill="#D2DAD8"/>
<rect x="648" y="72" width="4" height="4" fill="#EBD9A8"/>
<rect x="652" y="72" width="148" height="4" fill="#D2DAD8"/>
<rect x="0" y="76" width="88" height="4" fill="#D2DAD8"/>
<rect x="88" y="76" width="76" height="4" fill="#B49478"/>
<rect x="164" y="76" width="264" height="4" fill="#D2DAD8"/>
<rect x="428" y="76" width="8" height="4" fill="#9C7E64"/>
<rect x="436" y="76" width="156" height="4" fill="#B49478"/>
<rect x="592" y="76" width="208" height="4" fill="#D2DAD8"/>
<rect x="0" y="80" width="84" height="4" fill="#D2DAD8"/>
<rect x="84" y="80" width="4" height="4" fill="#9C7E64"/>
<rect x="88" y="80" width="76" height="4" fill="#B49478"/>
<rect x="164" y="80" width="4" height="4" fill="#9C7E64"/>
<rect x="168" y="80" width="252" height="4" fill="#D2DAD8"/>
<rect x="420" y="80" width="8" height="4" fill="#9C7E64"/>
<rect x="428" y="80" width="164" height="4" fill="#B49478"/>
<rect x="592" y="80" width="208" height="4" fill="#D2DAD8"/>
<rect x="0" y="84" width="84" height="4" fill="#D2DAD8"/>
<rect x="84" y="84" width="84" height="4" fill="#B49478"/>
<rect x="168" y="84" width="248" height="4" fill="#D2DAD8"/>
<rect x="416" y="84" width="4" height="4" fill="#9C7E64"/>
<rect x="420" y="84" width="172" height="4" fill="#B49478"/>
<rect x="592" y="84" width="208" height="4" fill="#D2DAD8"/>
<rect x="0" y="88" width="84" height="4" fill="#D2DAD8"/>
<rect x="84" y="88" width="84" height="4" fill="#B49478"/>
<rect x="168" y="88" width="240" height="4" fill="#D2DAD8"/>
<rect x="408" y="88" width="8" height="4" fill="#9C7E64"/>
<rect x="416" y="88" width="176" height="4" fill="#B49478"/>
<rect x="592" y="88" width="156" height="4" fill="#D2DAD8"/>
<rect x="748" y="88" width="52" height="4" fill="#9C7E64"/>
<rect x="0" y="92" width="84" height="4" fill="#D2DAD8"/>
<rect x="84" y="92" width="84" height="4" fill="#B49478"/>
<rect x="168" y="92" width="232" height="4" fill="#D2DAD8"/>
<rect x="400" y="92" width="8" height="4" fill="#9C7E64"/>
<rect x="408" y="92" width="184" height="4" fill="#B49478"/>
<rect x="592" y="92" width="52" height="4" fill="#D2DAD8"/>
<rect x="644" y="92" width="104" height="4" fill="#9C7E64"/>
<rect x="748" y="92" width="52" height="4" fill="#B49478"/>
<rect x="0" y="96" width="84" height="4" fill="#9C7E64"/>
<rect x="84" y="96" width="84" height="4" fill="#B49478"/>
<rect x="168" y="96" width="56" height="4" fill="#9C7E64"/>
<rect x="224" y="96" width="168" height="4" fill="#D2DAD8"/>
<rect x="392" y="96" width="8" height="4" fill="#9C7E64"/>
<rect x="400" y="96" width="192" height="4" fill="#B49478"/>
<rect x="592" y="96" width="52" height="4" fill="#9C7E64"/>
<rect x="644" y="96" width="156" height="4" fill="#B49478"/>
<rect x="0" y="100" width="224" height="4" fill="#B49478"/>
<rect x="224" y="100" width="104" height="4" fill="#9C7E64"/>
<rect x="328" y="100" width="56" height="4" fill="#D2DAD8"/>
<rect x="384" y="100" width="8" height="4" fill="#9C7E64"/>
<rect x="392" y="100" width="408" height="4" fill="#B49478"/>
<rect x="0" y="104" width="328" height="4" fill="#B49478"/>
<rect x="328" y="104" width="56" height="4" fill="#9C7E64"/>
<rect x="384" y="104" width="416" height="4" fill="#B49478"/>
<rect x="0" y="108" width="800" height="4" fill="#B49478"/>
<rect x="0" y="112" width="800" height="4" fill="#B49478"/>
<rect x="0" y="116" width="800" height="4" fill="#B49478"/>
<rect x="0" y="120" width="800" height="4" fill="#B49478"/>
<rect x="0" y="124" width="800" height="4" fill="#B49478"/>
<rect x="0" y="128" width="800" height="4" fill="#B49478"/>
<rect x="0" y="132" width="800" height="4" fill="#B49478"/>
<rect x="0" y="136" width="248" height="4" fill="#B49478"/>
<rect x="248" y="136" width="64" height="4" fill="#8A6B52"/>
<rect x="312" y="136" width="488" height="4" fill="#B49478"/>
<rect x="0" y="140" width="176" height="4" fill="#B49478"/>
<rect x="176" y="140" width="72" height="4" fill="#8A6B52"/>
<rect x="248" y="140" width="64" height="4" fill="#9C7E64"/>
<rect x="312" y="140" width="16" height="4" fill="#8A6B52"/>
<rect x="328" y="140" width="24" height="4" fill="#5E7F7A"/>
<rect x="352" y="140" width="12" height="4" fill="#8A6B52"/>
<rect x="364" y="140" width="132" height="4" fill="#B49478"/>
<rect x="496" y="140" width="8" height="4" fill="#6B4E32"/>
<rect x="504" y="140" width="264" height="4" fill="#B49478"/>
<rect x="768" y="140" width="32" height="4" fill="#8A6B52"/>
<rect x="0" y="144" width="108" height="4" fill="#B49478"/>
<rect x="108" y="144" width="68" height="4" fill="#8A6B52"/>
<rect x="176" y="144" width="152" height="4" fill="#9C7E64"/>
<rect x="328" y="144" width="24" height="4" fill="#5E7F7A"/>
<rect x="352" y="144" width="12" height="4" fill="#9C7E64"/>
<rect x="364" y="144" width="60" height="4" fill="#8A6B52"/>
<rect x="424" y="144" width="72" height="4" fill="#B49478"/>
<rect x="496" y="144" width="8" height="4" fill="#6B4E32"/>
<rect x="504" y="144" width="204" height="4" fill="#B49478"/>
<rect x="708" y="144" width="60" height="4" fill="#8A6B52"/>
<rect x="768" y="144" width="32" height="4" fill="#9C7E64"/>
<rect x="0" y="148" width="36" height="4" fill="#B49478"/>
<rect x="36" y="148" width="72" height="4" fill="#8A6B52"/>
<rect x="108" y="148" width="220" height="4" fill="#9C7E64"/>
<rect x="328" y="148" width="16" height="4" fill="#D9B48F"/>
<rect x="344" y="148" width="16" height="4" fill="#9C927B"/>
<rect x="360" y="148" width="64" height="4" fill="#9C7E64"/>
<rect x="424" y="148" width="32" height="4" fill="#8A6B52"/>
<rect x="456" y="148" width="40" height="4" fill="#8A6B4A"/>
<rect x="496" y="148" width="8" height="4" fill="#6B4E32"/>
<rect x="504" y="148" width="148" height="4" fill="#B49478"/>
<rect x="652" y="148" width="56" height="4" fill="#8A6B52"/>
<rect x="708" y="148" width="92" height="4" fill="#9C7E64"/>
<rect x="0" y="152" width="36" height="4" fill="#8A6B52"/>
<rect x="36" y="152" width="292" height="4" fill="#9C7E64"/>
<rect x="328" y="152" width="16" height="4" fill="#D9B48F"/>
<rect x="344" y="152" width="16" height="4" fill="#9C927B"/>
<rect x="360" y="152" width="96" height="4" fill="#9C7E64"/>
<rect x="456" y="152" width="40" height="4" fill="#8A6B4A"/>
<rect x="496" y="152" width="8" height="4" fill="#6B4E32"/>
<rect x="504" y="152" width="32" height="4" fill="#8A6B52"/>
<rect x="536" y="152" width="56" height="4" fill="#B49478"/>
<rect x="592" y="152" width="60" height="4" fill="#8A6B52"/>
<rect x="652" y="152" width="148" height="4" fill="#9C7E64"/>
<rect x="0" y="156" width="304" height="4" fill="#9C7E64"/>
<rect x="304" y="156" width="16" height="4" fill="#C9A84C"/>
<rect x="320" y="156" width="8" height="4" fill="#9C7E64"/>
<rect x="328" y="156" width="8" height="4" fill="#D9B48F"/>
<rect x="336" y="156" width="8" height="4" fill="#3A424D"/>
<rect x="344" y="156" width="8" height="4" fill="#D9B48F"/>
<rect x="352" y="156" width="104" height="4" fill="#9C7E64"/>
<rect x="456" y="156" width="8" height="4" fill="#8A6B4A"/>
<rect x="464" y="156" width="24" height="4" fill="#71563B"/>
<rect x="488" y="156" width="8" height="4" fill="#8A6B4A"/>
<rect x="496" y="156" width="8" height="4" fill="#6B4E32"/>
<rect x="504" y="156" width="32" height="4" fill="#9C7E64"/>
<rect x="536" y="156" width="56" height="4" fill="#8A6B52"/>
<rect x="592" y="156" width="208" height="4" fill="#9C7E64"/>
<rect x="0" y="160" width="304" height="4" fill="#9C7E64"/>
<rect x="304" y="160" width="16" height="4" fill="#C9A84C"/>
<rect x="320" y="160" width="8" height="4" fill="#9C7E64"/>
<rect x="328" y="160" width="8" height="4" fill="#D9B48F"/>
<rect x="336" y="160" width="8" height="4" fill="#3A424D"/>
<rect x="344" y="160" width="8" height="4" fill="#D9B48F"/>
<rect x="352" y="160" width="104" height="4" fill="#9C7E64"/>
<rect x="456" y="160" width="8" height="4" fill="#8A6B4A"/>
<rect x="464" y="160" width="24" height="4" fill="#71563B"/>
<rect x="488" y="160" width="8" height="4" fill="#8A6B4A"/>
<rect x="496" y="160" width="8" height="4" fill="#6B4E32"/>
<rect x="504" y="160" width="296" height="4" fill="#9C7E64"/>
<rect x="0" y="164" width="304" height="4" fill="#9C7E64"/>
<rect x="304" y="164" width="16" height="4" fill="#C9A84C"/>
<rect x="320" y="164" width="8" height="4" fill="#9C7E64"/>
<rect x="328" y="164" width="24" height="4" fill="#D9B48F"/>
<rect x="352" y="164" width="144" height="4" fill="#9C7E64"/>
<rect x="496" y="164" width="8" height="4" fill="#6B4E32"/>
<rect x="504" y="164" width="296" height="4" fill="#9C7E64"/>
<rect x="0" y="168" width="304" height="4" fill="#9C7E64"/>
<rect x="304" y="168" width="16" height="4" fill="#C9A84C"/>
<rect x="320" y="168" width="8" height="4" fill="#9C7E64"/>
<rect x="328" y="168" width="24" height="4" fill="#D9B48F"/>
<rect x="352" y="168" width="144" height="4" fill="#9C7E64"/>
<rect x="496" y="168" width="8" height="4" fill="#6B4E32"/>
<rect x="504" y="168" width="296" height="4" fill="#9C7E64"/>
<rect x="0" y="172" width="304" height="4" fill="#E2D4AC"/>
<rect x="304" y="172" width="8" height="4" fill="#8E3B32"/>
<rect x="312" y="172" width="8" height="4" fill="#C9A84C"/>
<rect x="320" y="172" width="40" height="4" fill="#A84A3F"/>
<rect x="360" y="172" width="136" height="4" fill="#E2D4AC"/>
<rect x="496" y="172" width="8" height="4" fill="#6B4E32"/>
<rect x="504" y="172" width="40" height="4" fill="#8A6B4A"/>
<rect x="544" y="172" width="256" height="4" fill="#E2D4AC"/>
<rect x="0" y="176" width="304" height="4" fill="#E2D4AC"/>
<rect x="304" y="176" width="8" height="4" fill="#8E3B32"/>
<rect x="312" y="176" width="8" height="4" fill="#C9A84C"/>
<rect x="320" y="176" width="40" height="4" fill="#A84A3F"/>
<rect x="360" y="176" width="136" height="4" fill="#E2D4AC"/>
<rect x="496" y="176" width="8" height="4" fill="#6B4E32"/>
<rect x="504" y="176" width="40" height="4" fill="#8A6B4A"/>
<rect x="544" y="176" width="256" height="4" fill="#E2D4AC"/>
<rect x="0" y="180" width="304" height="4" fill="#E2D4AC"/>
<rect x="304" y="180" width="8" height="4" fill="#8E3B32"/>
<rect x="312" y="180" width="8" height="4" fill="#C9A84C"/>
<rect x="320" y="180" width="8" height="4" fill="#8E3B32"/>
<rect x="328" y="180" width="24" height="4" fill="#A84A3F"/>
<rect x="352" y="180" width="8" height="4" fill="#8E3B32"/>
<rect x="360" y="180" width="136" height="4" fill="#E2D4AC"/>
<rect x="496" y="180" width="8" height="4" fill="#6B4E32"/>
<rect x="504" y="180" width="8" height="4" fill="#8A6B4A"/>
<rect x="512" y="180" width="24" height="4" fill="#71563B"/>
<rect x="536" y="180" width="8" height="4" fill="#8A6B4A"/>
<rect x="544" y="180" width="256" height="4" fill="#E2D4AC"/>
<rect x="0" y="184" width="304" height="4" fill="#E2D4AC"/>
<rect x="304" y="184" width="8" height="4" fill="#8E3B32"/>
<rect x="312" y="184" width="8" height="4" fill="#C9A84C"/>
<rect x="320" y="184" width="8" height="4" fill="#8E3B32"/>
<rect x="328" y="184" width="24" height="4" fill="#A84A3F"/>
<rect x="352" y="184" width="8" height="4" fill="#8E3B32"/>
<rect x="360" y="184" width="136" height="4" fill="#E2D4AC"/>
<rect x="496" y="184" width="8" height="4" fill="#6B4E32"/>
<rect x="504" y="184" width="8" height="4" fill="#8A6B4A"/>
<rect x="512" y="184" width="24" height="4" fill="#71563B"/>
<rect x="536" y="184" width="8" height="4" fill="#8A6B4A"/>
<rect x="544" y="184" width="256" height="4" fill="#E2D4AC"/>
<rect x="0" y="188" width="304" height="4" fill="#E2D4AC"/>
<rect x="304" y="188" width="8" height="4" fill="#8E3B32"/>
<rect x="312" y="188" width="8" height="4" fill="#C9A84C"/>
<rect x="320" y="188" width="8" height="4" fill="#8E3B32"/>
<rect x="328" y="188" width="24" height="4" fill="#A84A3F"/>
<rect x="352" y="188" width="8" height="4" fill="#8E3B32"/>
<rect x="360" y="188" width="136" height="4" fill="#E2D4AC"/>
<rect x="496" y="188" width="8" height="4" fill="#6B4E32"/>
<rect x="504" y="188" width="296" height="4" fill="#E2D4AC"/>
<rect x="0" y="192" width="304" height="4" fill="#E2D4AC"/>
<rect x="304" y="192" width="8" height="4" fill="#8E3B32"/>
<rect x="312" y="192" width="8" height="4" fill="#C9A84C"/>
<rect x="320" y="192" width="8" height="4" fill="#8E3B32"/>
<rect x="328" y="192" width="24" height="4" fill="#A84A3F"/>
<rect x="352" y="192" width="8" height="4" fill="#8E3B32"/>
<rect x="360" y="192" width="136" height="4" fill="#E2D4AC"/>
<rect x="496" y="192" width="8" height="4" fill="#6B4E32"/>
<rect x="504" y="192" width="296" height="4" fill="#E2D4AC"/>
<rect x="0" y="196" width="296" height="4" fill="#E2D4AC"/>
<rect x="296" y="196" width="8" height="4" fill="#B5A57F"/>
<rect x="304" y="196" width="8" height="4" fill="#8E3B32"/>
<rect x="312" y="196" width="8" height="4" fill="#C9A84C"/>
<rect x="320" y="196" width="8" height="4" fill="#D9B48F"/>
<rect x="328" y="196" width="24" height="4" fill="#8E3B32"/>
<rect x="352" y="196" width="8" height="4" fill="#D9B48F"/>
<rect x="360" y="196" width="104" height="4" fill="#E2D4AC"/>
<rect x="464" y="196" width="40" height="4" fill="#8A6B4A"/>
<rect x="504" y="196" width="296" height="4" fill="#E2D4AC"/>
<rect x="0" y="200" width="28" height="4" fill="#E2D4AC"/>
<rect x="28" y="200" width="8" height="4" fill="#B5A57F"/>
<rect x="36" y="200" width="268" height="4" fill="#E2D4AC"/>
<rect x="304" y="200" width="8" height="4" fill="#8E3B32"/>
<rect x="312" y="200" width="8" height="4" fill="#C9A84C"/>
<rect x="320" y="200" width="8" height="4" fill="#D9B48F"/>
<rect x="328" y="200" width="24" height="4" fill="#8E3B32"/>
<rect x="352" y="200" width="8" height="4" fill="#D9B48F"/>
<rect x="360" y="200" width="104" height="4" fill="#E2D4AC"/>
<rect x="464" y="200" width="40" height="4" fill="#8A6B4A"/>
<rect x="504" y="200" width="296" height="4" fill="#E2D4AC"/>
<rect x="0" y="204" width="304" height="4" fill="#E2D4AC"/>
<rect x="304" y="204" width="8" height="4" fill="#8E3B32"/>
<rect x="312" y="204" width="8" height="4" fill="#C9A84C"/>
<rect x="320" y="204" width="8" height="4" fill="#E2D4AC"/>
<rect x="328" y="204" width="24" height="4" fill="#7E7D68"/>
<rect x="352" y="204" width="112" height="4" fill="#E2D4AC"/>
<rect x="464" y="204" width="8" height="4" fill="#8A6B4A"/>
<rect x="472" y="204" width="24" height="4" fill="#71563B"/>
<rect x="496" y="204" width="8" height="4" fill="#8A6B4A"/>
<rect x="504" y="204" width="68" height="4" fill="#E2D4AC"/>
<rect x="572" y="204" width="8" height="4" fill="#B5A57F"/>
<rect x="580" y="204" width="220" height="4" fill="#E2D4AC"/>
<rect x="0" y="208" width="76" height="4" fill="#E2D4AC"/>
<rect x="76" y="208" width="4" height="4" fill="#5C7248"/>
<rect x="80" y="208" width="172" height="4" fill="#E2D4AC"/>
<rect x="252" y="208" width="4" height="4" fill="#5C7248"/>
<rect x="256" y="208" width="48" height="4" fill="#E2D4AC"/>
<rect x="304" y="208" width="8" height="4" fill="#8E3B32"/>
<rect x="312" y="208" width="8" height="4" fill="#C9A84C"/>
<rect x="320" y="208" width="8" height="4" fill="#E2D4AC"/>
<rect x="328" y="208" width="24" height="4" fill="#7E7D68"/>
<rect x="352" y="208" width="84" height="4" fill="#E2D4AC"/>
<rect x="436" y="208" width="4" height="4" fill="#5C7248"/>
<rect x="440" y="208" width="24" height="4" fill="#E2D4AC"/>
<rect x="464" y="208" width="8" height="4" fill="#8A6B4A"/>
<rect x="472" y="208" width="24" height="4" fill="#71563B"/>
<rect x="496" y="208" width="8" height="4" fill="#8A6B4A"/>
<rect x="504" y="208" width="108" height="4" fill="#E2D4AC"/>
<rect x="612" y="208" width="4" height="4" fill="#5C7248"/>
<rect x="616" y="208" width="140" height="4" fill="#E2D4AC"/>
<rect x="756" y="208" width="4" height="4" fill="#5C7248"/>
<rect x="760" y="208" width="8" height="4" fill="#E2D4AC"/>
<rect x="768" y="208" width="8" height="4" fill="#C8B990"/>
<rect x="776" y="208" width="24" height="4" fill="#E2D4AC"/>
<rect x="0" y="212" width="72" height="4" fill="#E2D4AC"/>
<rect x="72" y="212" width="12" height="4" fill="#5C7248"/>
<rect x="84" y="212" width="80" height="4" fill="#E2D4AC"/>
<rect x="164" y="212" width="8" height="4" fill="#B5A57F"/>
<rect x="172" y="212" width="76" height="4" fill="#E2D4AC"/>
<rect x="248" y="212" width="12" height="4" fill="#5C7248"/>
<rect x="260" y="212" width="44" height="4" fill="#E2D4AC"/>
<rect x="304" y="212" width="16" height="4" fill="#C9A84C"/>
<rect x="320" y="212" width="8" height="4" fill="#E2D4AC"/>
<rect x="328" y="212" width="8" height="4" fill="#7E7D68"/>
<rect x="336" y="212" width="8" height="4" fill="#E2D4AC"/>
<rect x="344" y="212" width="8" height="4" fill="#66654F"/>
<rect x="352" y="212" width="80" height="4" fill="#E2D4AC"/>
<rect x="432" y="212" width="12" height="4" fill="#5C7248"/>
<rect x="444" y="212" width="52" height="4" fill="#E2D4AC"/>
<rect x="496" y="212" width="8" height="4" fill="#6B4E32"/>
<rect x="504" y="212" width="104" height="4" fill="#E2D4AC"/>
<rect x="608" y="212" width="12" height="4" fill="#5C7248"/>
<rect x="620" y="212" width="132" height="4" fill="#E2D4AC"/>
<rect x="752" y="212" width="12" height="4" fill="#5C7248"/>
<rect x="764" y="212" width="36" height="4" fill="#E2D4AC"/>
<rect x="0" y="216" width="72" height="4" fill="#E2D4AC"/>
<rect x="72" y="216" width="12" height="4" fill="#5C7248"/>
<rect x="84" y="216" width="164" height="4" fill="#E2D4AC"/>
<rect x="248" y="216" width="12" height="4" fill="#5C7248"/>
<rect x="260" y="216" width="44" height="4" fill="#E2D4AC"/>
<rect x="304" y="216" width="16" height="4" fill="#C9A84C"/>
<rect x="320" y="216" width="8" height="4" fill="#E2D4AC"/>
<rect x="328" y="216" width="8" height="4" fill="#7E7D68"/>
<rect x="336" y="216" width="8" height="4" fill="#E2D4AC"/>
<rect x="344" y="216" width="8" height="4" fill="#66654F"/>
<rect x="352" y="216" width="80" height="4" fill="#E2D4AC"/>
<rect x="432" y="216" width="12" height="4" fill="#5C7248"/>
<rect x="444" y="216" width="52" height="4" fill="#E2D4AC"/>
<rect x="496" y="216" width="8" height="4" fill="#6B4E32"/>
<rect x="504" y="216" width="104" height="4" fill="#E2D4AC"/>
<rect x="608" y="216" width="12" height="4" fill="#5C7248"/>
<rect x="620" y="216" width="132" height="4" fill="#E2D4AC"/>
<rect x="752" y="216" width="12" height="4" fill="#5C7248"/>
<rect x="764" y="216" width="36" height="4" fill="#E2D4AC"/>
<rect x="0" y="220" width="328" height="4" fill="#E2D4AC"/>
<rect x="328" y="220" width="8" height="4" fill="#7E7D68"/>
<rect x="336" y="220" width="8" height="4" fill="#E2D4AC"/>
<rect x="344" y="220" width="8" height="4" fill="#66654F"/>
<rect x="352" y="220" width="144" height="4" fill="#E2D4AC"/>
<rect x="496" y="220" width="8" height="4" fill="#6B4E32"/>
<rect x="504" y="220" width="8" height="4" fill="#E2D4AC"/>
<rect x="512" y="220" width="40" height="4" fill="#8A6B4A"/>
<rect x="552" y="220" width="248" height="4" fill="#E2D4AC"/>
<rect x="0" y="224" width="328" height="4" fill="#E2D4AC"/>
<rect x="328" y="224" width="8" height="4" fill="#7E7D68"/>
<rect x="336" y="224" width="8" height="4" fill="#E2D4AC"/>
<rect x="344" y="224" width="8" height="4" fill="#66654F"/>
<rect x="352" y="224" width="144" height="4" fill="#E2D4AC"/>
<rect x="496" y="224" width="8" height="4" fill="#6B4E32"/>
<rect x="504" y="224" width="8" height="4" fill="#E2D4AC"/>
<rect x="512" y="224" width="40" height="4" fill="#8A6B4A"/>
<rect x="552" y="224" width="248" height="4" fill="#E2D4AC"/>
<rect x="0" y="228" width="92" height="4" fill="#E2D4AC"/>
<rect x="92" y="228" width="8" height="4" fill="#C8B990"/>
<rect x="100" y="228" width="228" height="4" fill="#E2D4AC"/>
<rect x="328" y="228" width="8" height="4" fill="#7E7D68"/>
<rect x="336" y="228" width="8" height="4" fill="#E2D4AC"/>
<rect x="344" y="228" width="8" height="4" fill="#66654F"/>
<rect x="352" y="228" width="144" height="4" fill="#E2D4AC"/>
<rect x="496" y="228" width="8" height="4" fill="#6B4E32"/>
<rect x="504" y="228" width="8" height="4" fill="#E2D4AC"/>
<rect x="512" y="228" width="8" height="4" fill="#8A6B4A"/>
<rect x="520" y="228" width="24" height="4" fill="#71563B"/>
<rect x="544" y="228" width="8" height="4" fill="#8A6B4A"/>
<rect x="552" y="228" width="248" height="4" fill="#E2D4AC"/>
<rect x="0" y="232" width="328" height="4" fill="#E2D4AC"/>
<rect x="328" y="232" width="8" height="4" fill="#7E7D68"/>
<rect x="336" y="232" width="8" height="4" fill="#E2D4AC"/>
<rect x="344" y="232" width="8" height="4" fill="#66654F"/>
<rect x="352" y="232" width="144" height="4" fill="#E2D4AC"/>
<rect x="496" y="232" width="8" height="4" fill="#6B4E32"/>
<rect x="504" y="232" width="8" height="4" fill="#E2D4AC"/>
<rect x="512" y="232" width="8" height="4" fill="#8A6B4A"/>
<rect x="520" y="232" width="24" height="4" fill="#71563B"/>
<rect x="544" y="232" width="8" height="4" fill="#8A6B4A"/>
<rect x="552" y="232" width="88" height="4" fill="#E2D4AC"/>
<rect x="640" y="232" width="8" height="4" fill="#C8B990"/>
<rect x="648" y="232" width="152" height="4" fill="#E2D4AC"/>
<rect x="0" y="236" width="328" height="4" fill="#E2D4AC"/>
<rect x="328" y="236" width="8" height="4" fill="#7E7D68"/>
<rect x="336" y="236" width="8" height="4" fill="#E2D4AC"/>
<rect x="344" y="236" width="8" height="4" fill="#66654F"/>
<rect x="352" y="236" width="144" height="4" fill="#E2D4AC"/>
<rect x="496" y="236" width="8" height="4" fill="#6B4E32"/>
<rect x="504" y="236" width="296" height="4" fill="#E2D4AC"/>
<rect x="0" y="240" width="328" height="4" fill="#E2D4AC"/>
<rect x="328" y="240" width="8" height="4" fill="#7E7D68"/>
<rect x="336" y="240" width="8" height="4" fill="#E2D4AC"/>
<rect x="344" y="240" width="8" height="4" fill="#66654F"/>
<rect x="352" y="240" width="8" height="4" fill="#E2D4AC"/>
<rect x="360" y="240" width="8" height="4" fill="#C8B990"/>
<rect x="368" y="240" width="128" height="4" fill="#E2D4AC"/>
<rect x="496" y="240" width="8" height="4" fill="#6B4E32"/>
<rect x="504" y="240" width="296" height="4" fill="#E2D4AC"/>
<rect x="0" y="244" width="320" height="4" fill="#E2D4AC"/>
<rect x="320" y="244" width="8" height="4" fill="#372F28"/>
<rect x="328" y="244" width="8" height="4" fill="#4A4038"/>
<rect x="336" y="244" width="8" height="4" fill="#E2D4AC"/>
<rect x="344" y="244" width="8" height="4" fill="#4A4038"/>
<rect x="352" y="244" width="8" height="4" fill="#372F28"/>
<rect x="360" y="244" width="136" height="4" fill="#E2D4AC"/>
<rect x="496" y="244" width="8" height="4" fill="#6B4E32"/>
<rect x="504" y="244" width="296" height="4" fill="#E2D4AC"/>
<rect x="0" y="248" width="320" height="4" fill="#E2D4AC"/>
<rect x="320" y="248" width="8" height="4" fill="#372F28"/>
<rect x="328" y="248" width="8" height="4" fill="#4A4038"/>
<rect x="336" y="248" width="8" height="4" fill="#E2D4AC"/>
<rect x="344" y="248" width="8" height="4" fill="#4A4038"/>
<rect x="352" y="248" width="8" height="4" fill="#372F28"/>
<rect x="360" y="248" width="136" height="4" fill="#E2D4AC"/>
<rect x="496" y="248" width="8" height="4" fill="#6B4E32"/>
<rect x="504" y="248" width="296" height="4" fill="#E2D4AC"/>
<rect x="0" y="252" width="712" height="4" fill="#E2D4AC"/>
<rect x="712" y="252" width="8" height="4" fill="#B5A57F"/>
<rect x="720" y="252" width="80" height="4" fill="#E2D4AC"/>
<rect x="0" y="256" width="232" height="4" fill="#E2D4AC"/>
<rect x="232" y="256" width="8" height="4" fill="#C8B990"/>
<rect x="240" y="256" width="560" height="4" fill="#E2D4AC"/>
<rect x="0" y="260" width="800" height="4" fill="#E2D4AC"/>
<rect x="0" y="264" width="48" height="4" fill="#E2D4AC"/>
<rect x="48" y="264" width="8" height="4" fill="#B5A57F"/>
<rect x="56" y="264" width="744" height="4" fill="#E2D4AC"/>
<rect x="0" y="268" width="504" height="4" fill="#E2D4AC"/>
<rect x="504" y="268" width="8" height="4" fill="#C8B990"/>
<rect x="512" y="268" width="288" height="4" fill="#E2D4AC"/>
<rect x="0" y="272" width="800" height="4" fill="#E2D4AC"/>
<rect x="0" y="276" width="604" height="4" fill="#E2D4AC"/>
<rect x="604" y="276" width="8" height="4" fill="#C8B990"/>
<rect x="612" y="276" width="188" height="4" fill="#E2D4AC"/>
<rect x="0" y="280" width="136" height="4" fill="#E2D4AC"/>
<rect x="136" y="280" width="8" height="4" fill="#B5A57F"/>
<rect x="144" y="280" width="656" height="4" fill="#E2D4AC"/>
<rect x="0" y="284" width="740" height="4" fill="#E2D4AC"/>
<rect x="740" y="284" width="8" height="4" fill="#C8B990"/>
<rect x="748" y="284" width="52" height="4" fill="#E2D4AC"/>
<rect x="0" y="288" width="276" height="4" fill="#E2D4AC"/>
<rect x="276" y="288" width="8" height="4" fill="#B5A57F"/>
<rect x="284" y="288" width="184" height="4" fill="#E2D4AC"/>
<rect x="468" y="288" width="8" height="4" fill="#C8B990"/>
<rect x="476" y="288" width="324" height="4" fill="#E2D4AC"/>
<rect x="0" y="292" width="800" height="4" fill="#E2D4AC"/>
<rect x="0" y="296" width="800" height="4" fill="#E2D4AC"/>
</svg>