<svg xmlns="http://www.w3.org/2000/svg" viewBox="0 0 800 300" role="img" aria-label="Pixel art of a climber roped up on a sheer rock face high above the valley" shape-rendering="crispEdges">
<!-- generated by tools/niche_pixel.py; edit the generator, not these rects -->
<rect x="0" y="0" width="512" height="4" fill="#C7D2DB"/>
<rect x="512" y="0" width="4" height="4" fill="#8A6B52"/>
<rect x="516" y="0" width="284" height="4" fill="#B49478"/>
<rect x="0" y="4" width="512" height="4" fill="#C7D2DB"/>
<rect x="512" y="4" width="4" height="4" fill="#8A6B52"/>
<rect x="516" y="4" width="4" height="4" fill="#B49478"/>
<rect x="520" y="4" width="16" height="4" fill="#9C7E64"/>
<rect x="536" y="4" width="264" height="4" fill="#B49478"/>
<rect x="0" y="8" width="512" height="4" fill="#C7D2DB"/>
<rect x="512" y="8" width="4" height="4" fill="#8A6B52"/>
<rect x="516" y="8" width="84" height="4" fill="#B49478"/>
<rect x="600" y="8" width="4" height="4" fill="#C9BC9C"/>
<rect x="604" y="8" width="196" height="4" fill="#B49478"/>
<rect x="0" y="12" width="512" height="4" fill="#C7D2DB"/>
<rect x="512" y="12" width="4" height="4" fill="#8A6B52"/>
<rect x="516" y="12" width="84" height="4" fill="#B49478"/>
<rect x="600" y="12" width="4" height="4" fill="#C9BC9C"/>
<rect x="604" y="12" width="196" height="4" fill="#B49478"/>
<rect x="0" y="16" width="512" height="4" fill="#C7D2DB"/>
<rect x="512" y="16" width="4" height="4" fill="#8A6B52"/>
<rect x="516" y="16" width="84" height="4" fill="#B49478"/>
<rect x="600" y="16" width="4" height="4" fill="#C9BC9C"/>
<rect x="604" y="16" width="196" height="4" fill="#B49478"/>
<rect x="0" y="20" width="512" height="4" fill="#C7D2DB"/>
<rect x="512" y="20" width="4" height="4" fill="#8A6B52"/>
<rect x="516" y="20" width="84" height="4" fill="#B49478"/>
<rect x="600" y="20" width="4" height="4" fill="#C9BC9C"/>
<rect x="604" y="20" width="196" height="4" fill="#B49478"/>
<rect x="0" y="24" width="68" height="4" fill="#C7D2DB"/>
<rect x="68" y="24" width="40" height="4" fill="#EFF2F1"/>
<rect x="108" y="24" width="260" height="4" fill="#C7D2DB"/>
<rect x="368" y="24" width="24" height="4" fill="#EFF2F1"/>
<rect x="392" y="24" width="120" height="4" fill="#C7D2DB"/>
<rect x="512" y="24" width="4" height="4" fill="#8A6B52"/>
<rect x="516" y="24" width="84" height="4" fill="#B49478"/>
<rect x="600" y="24" width="4" height="4" fill="#C9BC9C"/>
<rect x="604" y="24" width="56" height="4" fill="#B49478"/>
<rect x="660" y="24" width="32" height="4" fill="#9C7E64"/>
<rect x="692" y="24" width="108" height="4" fill="#B49478"/>
<rect x="0" y="28" width="68" height="4" fill="#C7D2DB"/>
<rect x="68" y="28" width="40" height="4" fill="#EFF2F1"/>
<rect x="108" y="28" width="260" height="4" fill="#C7D2DB"/>
<rect x="368" y="28" width="24" height="4" fill="#EFF2F1"/>
<rect x="392" y="28" width="120" height="4" fill="#C7D2DB"/>
<rect x="512" y="28" width="4" height="4" fill="#8A6B52"/>
<rect x="516" y="28" width="84" height="4" fill="#B49478"/>
<rect x="600" y="28" width="4" height="4" fill="#C9BC9C"/>
<rect x="604" y="28" width="196" height="4" fill="#B49478"/>
<rect x="0" y="32" width="56" height="4" fill="#C7D2DB"/>
<rect x="56" y="32" width="64" height="4" fill="#EFF2F1"/>
<rect x="120" y="32" width="236" height="4" fill="#C7D2DB"/>
<rect x="356" y="32" width="48" height="4" fill="#EFF2F1"/>
<rect x="404" y="32" width="108" height="4" fill="#C7D2DB"/>
<rect x="512" y="32" width="4" height="4" fill="#8A6B52"/>
<rect x="516" y="32" width="56" height="4" fill="#B49478"/>
<rect x="572" y="32" width="12" height="4" fill="#8A6B52"/>
<rect x="584" y="32" width="16" height="4" fill="#B49478"/>
<rect x="600" y="32" width="4" height="4" fill="#C9BC9C"/>
<rect x="604" y="32" width="196" height="4" fill="#B49478"/>
<rect x="0" y="36" width="56" height="4" fill="#C7D2DB"/>
<rect x="56" y="36" width="64" height="4" fill="#EFF2F1"/>
<rect x="120" y="36" width="236" height="4" fill="#C7D2DB"/>
<rect x="356" y="36" width="48" height="4" fill="#EFF2F1"/>
<rect x="404" y="36" width="108" height="4" fill="#C7D2DB"/>
<rect x="512" y="36" width="4" height="4" fill="#8A6B52"/>
<rect x="516" y="36" width="84" height="4" fill="#B49478"/>
<rect x="600" y="36" width="4" height="4" fill="#C9BC9C"/>
<rect x="604" y="36" width="196" height="4" fill="#B49478"/>
<rect x="0" y="40" width="64" height="4" fill="#C7D2DB"/>
<rect x="64" y="40" width="72" height="4" fill="#D9DFDE"/>
<rect x="136" y="40" width="204" height="4" fill="#C7D2DB"/>
<rect x="340" y="40" width="12" height="4" fill="#97A3AF"/>
<rect x="352" y="40" width="12" height="4" fill="#C7D2DB"/>
<rect x="364" y="40" width="56" height="4" fill="#D9DFDE"/>
<rect x="420" y="40" width="92" height="4" fill="#C7D2DB"/>
<rect x="512" y="40" width="4" height="4" fill="#8A6B52"/>
<rect x="516" y="40" width="84" height="4" fill="#B49478"/>
<rect x="600" y="40" width="4" height="4" fill="#C9BC9C"/>
<rect x="604" y="40" width="196" height="4" fill="#B49478"/>
<rect x="0" y="44" width="328" height="4" fill="#C7D2DB"/>
<rect x="328" y="44" width="12" height="4" fill="#97A3AF"/>
<rect x="340" y="44" width="12" height="4" fill="#EDF1F0"/>
<rect x="352" y="44" width="16" height="4" fill="#97A3AF"/>
<rect x="368" y="44" width="144" height="4" fill="#C7D2DB"/>
<rect x="512" y="44" width="4" height="4" fill="#8A6B52"/>
<rect x="516" y="44" width="32" height="4" fill="#B49478"/>
<rect x="548" y="44" width="24" height="4" fill="#9C7E64"/>
<rect x="572" y="44" width="28" height="4" fill="#B49478"/>
<rect x="600" y="44" width="4" height="4" fill="#C9BC9C"/>
<rect x="604" y="44" width="196" height="4" fill="#B49478"/>
<rect x="0" y="48" width="316" height="4" fill="#C7D2DB"/>
<rect x="316" y="48" width="12" height="4" fill="#97A3AF"/>
<rect x="328" y="48" width="40" height="4" fill="#EDF1F0"/>
<rect x="368" y="48" width="12" height="4" fill="#97A3AF"/>
<rect x="380" y="48" width="132" height="4" fill="#C7D2DB"/>
<rect x="512" y="48" width="4" height="4" fill="#8A6B52"/>
<rect x="516" y="48" width="84" height="4" fill="#B49478"/>
<rect x="600" y="48" width="4" height="4" fill="#C9BC9C"/>
<rect x="604" y="48" width="196" height="4" fill="#B49478"/>
<rect x="0" y="52" width="308" height="4" fill="#C7D2DB"/>
<rect x="308" y="52" width="8" height="4" fill="#97A3AF"/>
<rect x="316" y="52" width="64" height="4" fill="#EDF1F0"/>
<rect x="380" y="52" width="12" height="4" fill="#97A3AF"/>
<rect x="392" y="52" width="120" height="4" fill="#C7D2DB"/>
<rect x="512" y="52" width="4" height="4" fill="#8A6B52"/>
<rect x="516" y="52" width="84" height="4" fill="#B49478"/>
<rect x="600" y="52" width="4" height="4" fill="#C9BC9C"/>
<rect x="604" y="52" width="196" height="4" fill="#B49478"/>
<rect x="0" y="56" width="108" height="4" fill="#C7D2DB"/>
<rect x="108" y="56" width="12" height="4" fill="#97A3AF"/>
<rect x="120" y="56" width="176" height="4" fill="#C7D2DB"/>
<rect x="296" y="56" width="12" height="4" fill="#97A3AF"/>
<rect x="308" y="56" width="84" height="4" fill="#EDF1F0"/>
<rect x="392" y="56" width="16" height="4" fill="#97A3AF"/>
<rect x="408" y="56" width="104" height="4" fill="#C7D2DB"/>
<rect x="512" y="56" width="4" height="4" fill="#8A6B52"/>
<rect x="516" y="56" width="84" height="4" fill="#B49478"/>
<rect x="600" y="56" width="4" height="4" fill="#C9BC9C"/>
<rect x="604" y="56" width="196" height="4" fill="#B49478"/>
<rect x="0" y="60" width="100" height="4" fill="#C7D2DB"/>
<rect x="100" y="60" width="8" height="4" fill="#97A3AF"/>
<rect x="108" y="60" width="12" height="4" fill="#EDF1F0"/>
<rect x="120" y="60" width="12" height="4" fill="#97A3AF"/>
<rect x="132" y="60" width="152" height="4" fill="#C7D2DB"/>
<rect x="284" y="60" width="12" height="4" fill="#97A3AF"/>
<rect x="296" y="60" width="112" height="4" fill="#EDF1F0"/>
<rect x="408" y="60" width="12" height="4" fill="#97A3AF"/>
<rect x="420" y="60" width="92" height="4" fill="#C7D2DB"/>
<rect x="512" y="60" width="4" height="4" fill="#8A6B52"/>
<rect x="516" y="60" width="84" height="4" fill="#B49478"/>
<rect x="600" y="60" width="4" height="4" fill="#C9BC9C"/>
<rect x="604" y="60" width="196" height="4" fill="#B49478"/>
<rect x="0" y="64" width="92" height="4" fill="#C7D2DB"/>
<rect x="92" y="64" width="8" height="4" fill="#97A3AF"/>
<rect x="100" y="64" width="32" height="4" fill="#EDF1F0"/>
<rect x="132" y="64" width="12" height="4" fill="#97A3AF"/>
<rect x="144" y="64" width="128" height="4" fill="#C7D2DB"/>
<rect x="272" y="64" width="12" height="4" fill="#97A3AF"/>
<rect x="284" y="64" width="136" height="4" fill="#EDF1F0"/>
<rect x="420" y="64" width="16" height="4" fill="#97A3AF"/>
<rect x="436" y="64" width="76" height="4" fill="#C7D2DB"/>
<rect x="512" y="64" width="4" height="4" fill="#8A6B52"/>
<rect x="516" y="64" width="84" height="4" fill="#B49478"/>
<rect x="600" y="64" width="4" height="4" fill="#C9BC9C"/>
<rect x="604" y="64" width="84" height="4" fill="#B49478"/>
<rect x="688" y="64" width="16" height="4" fill="#9C7E64"/>
<rect x="704" y="64" width="96" height="4" fill="#B49478"/>
<rect x="0" y="68" width="80" height="4" fill="#C7D2DB"/>
<rect x="80" y="68" width="12" height="4" fill="#97A3AF"/>
<rect x="92" y="68" width="52" height="4" fill="#EDF1F0"/>
<rect x="144" y="68" width="12" height="4" fill="#97A3AF"/>
<rect x="156" y="68" width="104" height="4" fill="#C7D2DB"/>
<rect x="260" y="68" width="12" height="4" fill="#97A3AF"/>
<rect x="272" y="68" width="164" height="4" fill="#EDF1F0"/>
<rect x="436" y="68" width="12" height="4" fill="#97A3AF"/>
<rect x="448" y="68" width="64" height="4" fill="#C7D2DB"/>
<rect x="512" y="68" width="4" height="4" fill="#8A6B52"/>
<rect x="516" y="68" width="84" height="4" fill="#B49478"/>
<rect x="600" y="68" width="4" height="4" fill="#C9BC9C"/>
<rect x="604" y="68" width="196" height="4" fill="#B49478"/>
<rect x="0" y="72" width="72" height="4" fill="#D2DAD8"/>
<rect x="72" y="72" width="8" height="4" fill="#97A3AF"/>
<rect x="80" y="72" width="76" height="4" fill="#A9B4BE"/>
<rect x="156" y="72" width="12" height="4" fill="#97A3AF"/>
<rect x="168" y="72" width="80" height="4" fill="#D2DAD8"/>
<rect x="248" y="72" width="12" height="4" fill="#97A3AF"/>
<rect x="260" y="72" width="188" height="4" fill="#A9B4BE"/>
<rect x="448" y="72" width="12" height="4" fill="#97A3AF"/>
<rect x="460" y="72" width="52" height="4" fill="#D2DAD8"/>
<rect x="512" y="72" width="4" height="4" fill="#8A6B52"/>
<rect x="516" y="72" width="84" height="4" fill="#B49478"/>
<rect x="600" y="72" width="4" height="4" fill="#C9BC9C"/>
<rect x="604" y="72" width="88" height="4" fill="#B49478"/>
<rect x="692" y="72" width="12" height="4" fill="#8A6B52"/>
<rect x="704" y="72" width="96" height="4" fill="#B49478"/>
<rect x="0" y="76" width="64" height="4" fill="#D2DAD8"/>
<rect x="64" y="76" width="8" height="4" fill="#97A3AF"/>
<rect x="72" y="76" width="96" height="4" fill="#A9B4BE"/>
<rect x="168" y="76" width="12" height="4" fill="#97A3AF"/>
<rect x="180" y="76" width="60" height="4" fill="#D2DAD8"/>
<rect x="240" y="76" width="8" height="4" fill="#97A3AF"/>
<rect x="248" y="76" width="212" height="4" fill="#A9B4BE"/>
<rect x="460" y="76" width="16" height="4" fill="#97A3AF"/>
<rect x="476" y="76" width="20" height="4" fill="#D2DAD8"/>
<rect x="496" y="76" width="16" height="4" fill="#97A3AF"/>
<rect x="512" y="76" width="4" height="4" fill="#8A6B52"/>
<rect x="516" y="76" width="84" height="4" fill="#B49478"/>
<rect x="600" y="76" width="4" height="4" fill="#C9BC9C"/>
<rect x="604" y="76" width="196" height="4" fill="#B49478"/>
<rect x="0" y="80" width="52" height="4" fill="#D2DAD8"/>
<rect x="52" y="80" width="12" height="4" fill="#97A3AF"/>
<rect x="64" y="80" width="116" height="4" fill="#A9B4BE"/>
<rect x="180" y="80" width="12" height="4" fill="#97A3AF"/>
<rect x="192" y="80" width="36" height="4" fill="#D2DAD8"/>
<rect x="228" y="80" width="12" height="4" fill="#97A3AF"/>
<rect x="240" y="80" width="236" height="4" fill="#A9B4BE"/>
<rect x="476" y="80" width="20" height="4" fill="#97A3AF"/>
<rect x="496" y="80" width="16" height="4" fill="#A9B4BE"/>
<rect x="512" y="80" width="4" height="4" fill="#8A6B52"/>
<rect x="516" y="80" width="84" height="4" fill="#B49478"/>
<rect x="600" y="80" width="4" height="4" fill="#C9BC9C"/>
<rect x="604" y="80" width="196" height="4" fill="#B49478"/>
<rect x="0" y="84" width="44" height="4" fill="#D2DAD8"/>
<rect x="44" y="84" width="8" height="4" fill="#97A3AF"/>
<rect x="52" y="84" width="140" height="4" fill="#A9B4BE"/>
<rect x="192" y="84" width="12" height="4" fill="#97A3AF"/>
<rect x="204" y="84" width="12" height="4" fill="#D2DAD8"/>
<rect x="216" y="84" width="12" height="4" fill="#97A3AF"/>
<rect x="228" y="84" width="284" height="4" fill="#A9B4BE"/>
<rect x="512" y="84" width="4" height="4" fill="#8A6B52"/>
<rect x="516" y="84" width="60" height="4" fill="#B49478"/>
<rect x="576" y="84" width="16" height="4" fill="#9C7E64"/>
<rect x="592" y="84" width="24" height="4" fill="#C9A84C"/>
<rect x="616" y="84" width="184" height="4" fill="#B49478"/>
<rect x="0" y="88" width="36" height="4" fill="#D2DAD8"/>
<rect x="36" y="88" width="8" height="4" fill="#97A3AF"/>
<rect x="44" y="88" width="160" height="4" fill="#A9B4BE"/>
<rect x="204" y="88" width="12" height="4" fill="#97A3AF"/>
<rect x="216" y="88" width="296" height="4" fill="#A9B4BE"/>
<rect x="512" y="88" width="4" height="4" fill="#8A6B52"/>
<rect x="516" y="88" width="76" height="4" fill="#B49478"/>
<rect x="592" y="88" width="24" height="4" fill="#C9A84C"/>
<rect x="616" y="88" width="184" height="4" fill="#B49478"/>
<rect x="0" y="92" width="24" height="4" fill="#D2DAD8"/>
<rect x="24" y="92" width="12" height="4" fill="#97A3AF"/>
<rect x="36" y="92" width="476" height="4" fill="#A9B4BE"/>
<rect x="512" y="92" width="4" height="4" fill="#8A6B52"/>
<rect x="516" y="92" width="76" height="4" fill="#B49478"/>
<rect x="592" y="92" width="16" height="4" fill="#C9A84C"/>
<rect x="608" y="92" width="8" height="4" fill="#9C927B"/>
<rect x="616" y="92" width="184" height="4" fill="#B49478"/>
<rect x="0" y="96" width="16" height="4" fill="#D2DAD8"/>
<rect x="16" y="96" width="8" height="4" fill="#97A3AF"/>
<rect x="24" y="96" width="488" height="4" fill="#A9B4BE"/>
<rect x="512" y="96" width="4" height="4" fill="#8A6B52"/>
<rect x="516" y="96" width="76" height="4" fill="#B49478"/>
<rect x="592" y="96" width="16" height="4" fill="#C9A84C"/>
<rect x="608" y="96" width="8" height="4" fill="#9C927B"/>
<rect x="616" y="96" width="184" height="4" fill="#B49478"/>
<rect x="0" y="100" width="8" height="4" fill="#D2DAD8"/>
<rect x="8" y="100" width="8" height="4" fill="#97A3AF"/>
<rect x="16" y="100" width="496" height="4" fill="#A9B4BE"/>
<rect x="512" y="100" width="4" height="4" fill="#8A6B52"/>
<rect x="516" y="100" width="76" height="4" fill="#B49478"/>
<rect x="592" y="100" width="8" height="4" fill="#D9B48F"/>
<rect x="600" y="100" width="8" height="4" fill="#3A424D"/>
<rect x="608" y="100" width="8" height="4" fill="#D9B48F"/>
<rect x="616" y="100" width="184" height="4" fill="#B49478"/>
<rect x="0" y="104" width="8" height="4" fill="#97A3AF"/>
<rect x="8" y="104" width="504" height="4" fill="#A9B4BE"/>
<rect x="512" y="104" width="4" height="4" fill="#8A6B52"/>
<rect x="516" y="104" width="76" height="4" fill="#B49478"/>
<rect x="592" y="104" width="8" height="4" fill="#D9B48F"/>
<rect x="600" y="104" width="8" height="4" fill="#3A424D"/>
<rect x="608" y="104" width="8" height="4" fill="#D9B48F"/>
<rect x="616" y="104" width="100" height="4" fill="#B49478"/>
<rect x="716" y="104" width="24" height="4" fill="#9C7E64"/>
<rect x="740" y="104" width="60" height="4" fill="#B49478"/>
<rect x="0" y="108" width="512" height="4" fill="#A9B4BE"/>
<rect x="512" y="108" width="4" height="4" fill="#8A6B52"/>
<rect x="516" y="108" width="76" height="4" fill="#B49478"/>
<rect x="592" y="108" width="24" height="4" fill="#D9B48F"/>
<rect x="616" y="108" width="184" height="4" fill="#B49478"/>
<rect x="0" y="112" width="512" height="4" fill="#A9B4BE"/>
<rect x="512" y="112" width="4" height="4" fill="#8A6B52"/>
<rect x="516" y="112" width="28" height="4" fill="#B49478"/>
<rect x="544" y="112" width="12" height="4" fill="#8A6B52"/>
<rect x="556" y="112" width="36" height="4" fill="#B49478"/>
<rect x="592" y="112" width="24" height="4" fill="#D9B48F"/>
<rect x="616" y="112" width="184" height="4" fill="#B49478"/>
<rect x="0" y="116" width="512" height="4" fill="#A9B4BE"/>
<rect x="512" y="116" width="4" height="4" fill="#8A6B52"/>
<rect x="516" y="116" width="68" height="4" fill="#B49478"/>
<rect x="584" y="116" width="40" height="4" fill="#A84A3F"/>
<rect x="624" y="116" width="176" height="4" fill="#B49478"/>
<rect x="0" y="120" width="512" height="4" fill="#A9B4BE"/>
<rect x="512" y="120" width="4" height="4" fill="#8A6B52"/>
<rect x="516" y="120" width="68" height="4" fill="#B49478"/>
<rect x="584" y="120" width="40" height="4" fill="#A84A3F"/>
<rect x="624" y="120" width="176" height="4" fill="#B49478"/>
<rect x="0" y="124" width="512" height="4" fill="#A9B4BE"/>
<rect x="512" y="124" width="4" height="4" fill="#8A6B52"/>
<rect x="516" y="124" width="60" height="4" fill="#B49478"/>
<rect x="576" y="124" width="8" height="4" fill="#8E3B32"/>
<rect x="584" y="124" width="8" height="4" fill="#B49478"/>
<rect x="592" y="124" width="24" height="4" fill="#A84A3F"/>
<rect x="616" y="124" width="4" height="4" fill="#9C7E64"/>
<rect x="620" y="124" width="180" height="4" fill="#B49478"/>
<rect x="0" y="128" width="512" height="4" fill="#A9B4BE"/>
<rect x="512" y="128" width="4" height="4" fill="#8A6B52"/>
<rect x="516" y="128" width="60" height="4" fill="#B49478"/>
<rect x="576" y="128" width="8" height="4" fill="#8E3B32"/>
<rect x="584" y="128" width="8" height="4" fill="#B49478"/>
<rect x="592" y="128" width="24" height="4" fill="#A84A3F"/>
<rect x="616" y="128" width="184" height="4" fill="#B49478"/>
<rect x="0" y="132" width="152" height="4" fill="#A9B4BE"/>
<rect x="152" y="132" width="28" height="4" fill="#909880"/>
<rect x="180" y="132" width="312" height="4" fill="#A9B4BE"/>
<rect x="492" y="132" width="20" height="4" fill="#909880"/>
<rect x="512" y="132" width="4" height="4" fill="#8A6B52"/>
<rect x="516" y="132" width="52" height="4" fill="#B49478"/>
<rect x="568" y="132" width="8" height="4" fill="#8E3B32"/>
<rect x="576" y="132" width="16" height="4" fill="#B49478"/>
<rect x="592" y="132" width="24" height="4" fill="#A84A3F"/>
<rect x="616" y="132" width="184" height="4" fill="#B49478"/>
<rect x="0" y="136" width="128" height="4" fill="#A9B4BE"/>
<rect x="128" y="136" width="24" height="4" fill="#909880"/>
<rect x="152" y="136" width="28" height="4" fill="#A8AF97"/>
<rect x="180" y="136" width="44" height="4" fill="#909880"/>
<rect x="224" y="136" width="236" height="4" fill="#A9B4BE"/>
<rect x="460" y="136" width="32" height="4" fill="#909880"/>
<rect x="492" y="136" width="20" height="4" fill="#A8AF97"/>
<rect x="512" y="136" width="4" height="4" fill="#8A6B52"/>
<rect x="516" y="136" width="52" height="4" fill="#B49478"/>
<rect x="568" y="136" width="8" height="4" fill="#8E3B32"/>
<rect x="576" y="136" width="16" height="4" fill="#B49478"/>
<rect x="592" y="136" width="24" height="4" fill="#A84A3F"/>
<rect x="616" y="136" width="184" height="4" fill="#B49478"/>
<rect x="0" y="140" width="104" height="4" fill="#A9B4BE"/>
<rect x="104" y="140" width="24" height="4" fill="#909880"/>
<rect x="128" y="140" width="96" height="4" fill="#A8AF97"/>
<rect x="224" y="140" width="36" height="4" fill="#909880"/>
<rect x="260" y="140" width="172" height="4" fill="#A9B4BE"/>
<rect x="432" y="140" width="28" height="4" fill="#909880"/>
<rect x="460" y="140" width="52" height="4" fill="#A8AF97"/>
<rect x="512" y="140" width="4" height="4" fill="#8A6B52"/>
<rect x="516" y="140" width="44" height="4" fill="#B49478"/>
<rect x="560" y="140" width="8" height="4" fill="#D9B48F"/>
<rect x="568" y="140" width="16" height="4" fill="#B49478"/>
<rect x="584" y="140" width="32" height="4" fill="#4A5258"/>
<rect x="616" y="140" width="184" height="4" fill="#B49478"/>
<rect x="0" y="144" width="80" height="4" fill="#A9B4BE"/>
<rect x="80" y="144" width="24" height="4" fill="#909880"/>
<rect x="104" y="144" width="16" height="4" fill="#A8AF97"/>
<rect x="120" y="144" width="4" height="4" fill="#52654B"/>
<rect x="124" y="144" width="20" height="4" fill="#A8AF97"/>
<rect x="144" y="144" width="4" height="4" fill="#52654B"/>
<rect x="148" y="144" width="112" height="4" fill="#A8AF97"/>
<rect x="260" y="144" width="44" height="4" fill="#909880"/>
<rect x="304" y="144" width="100" height="4" fill="#A9B4BE"/>
<rect x="404" y="144" width="28" height="4" fill="#909880"/>
<rect x="432" y="144" width="80" height="4" fill="#A8AF97"/>
<rect x="512" y="144" width="4" height="4" fill="#8A6B52"/>
<rect x="516" y="144" width="44" height="4" fill="#B49478"/>
<rect x="560" y="144" width="8" height="4" fill="#D9B48F"/>
<rect x="568" y="144" width="16" height="4" fill="#B49478"/>
<rect x="584" y="144" width="32" height="4" fill="#4A5258"/>
<rect x="616" y="144" width="128" height="4" fill="#B49478"/>
<rect x="744" y="144" width="32" height="4" fill="#9C7E64"/>
<rect x="776" y="144" width="24" height="4" fill="#B49478"/>
<rect x="0" y="148" width="60" height="4" fill="#A9B4BE"/>
<rect x="60" y="148" width="20" height="4" fill="#909880"/>
<rect x="80" y="148" width="40" height="4" fill="#A8AF97"/>
<rect x="120" y="148" width="4" height="4" fill="#3E4F39"/>
<rect x="124" y="148" width="20" height="4" fill="#A8AF97"/>
<rect x="144" y="148" width="4" height="4" fill="#3E4F39"/>
<rect x="148" y="148" width="156" height="4" fill="#A8AF97"/>
<rect x="304" y="148" width="36" height="4" fill="#909880"/>
<rect x="340" y="148" width="36" height="4" fill="#A9B4BE"/>
<rect x="376" y="148" width="28" height="4" fill="#909880"/>
<rect x="404" y="148" width="100" height="4" fill="#A8AF97"/>
<rect x="504" y="148" width="4" height="4" fill="#6B6353"/>
<rect x="508" y="148" width="4" height="4" fill="#A8AF97"/>
<rect x="512" y="148" width="4" height="4" fill="#8A6B52"/>
<rect x="516" y="148" width="60" height="4" fill="#B49478"/>
<rect x="576" y="148" width="64" height="4" fill="#4A5258"/>
<rect x="640" y="148" width="160" height="4" fill="#B49478"/>
<rect x="0" y="152" width="36" height="4" fill="#A9B4BE"/>
<rect x="36" y="152" width="24" height="4" fill="#909880"/>
<rect x="60" y="152" width="56" height="4" fill="#A8AF97"/>
<rect x="116" y="152" width="12" height="4" fill="#52654B"/>
<rect x="128" y="152" width="12" height="4" fill="#A8AF97"/>
<rect x="140" y="152" width="12" height="4" fill="#52654B"/>
<rect x="152" y="152" width="188" height="4" fill="#A8AF97"/>
<rect x="340" y="152" width="36" height="4" fill="#909880"/>
<rect x="376" y="152" width="128" height="4" fill="#A8AF97"/>
<rect x="504" y="152" width="4" height="4" fill="#6B6353"/>
<rect x="508" y="152" width="4" height="4" fill="#A8AF97"/>
<rect x="512" y="152" width="4" height="4" fill="#8A6B52"/>
<rect x="516" y="152" width="60" height="4" fill="#B49478"/>
<rect x="576" y="152" width="64" height="4" fill="#4A5258"/>
<rect x="640" y="152" width="24" height="4" fill="#B49478"/>
<rect x="664" y="152" width="12" height="4" fill="#8A6B52"/>
<rect x="676" y="152" width="124" height="4" fill="#B49478"/>
<rect x="0" y="156" width="12" height="4" fill="#DFE0D2"/>
<rect x="12" y="156" width="24" height="4" fill="#909880"/>
<rect x="36" y="156" width="80" height="4" fill="#A8AF97"/>
<rect x="116" y="156" width="12" height="4" fill="#3E4F39"/>
<rect x="128" y="156" width="12" height="4" fill="#A8AF97"/>
<rect x="140" y="156" width="12" height="4" fill="#3E4F39"/>
<rect x="152" y="156" width="320" height="4" fill="#A8AF97"/>
<rect x="472" y="156" width="24" height="4" fill="#5E7F7A"/>
<rect x="496" y="156" width="8" height="4" fill="#A8AF97"/>
<rect x="504" y="156" width="4" height="4" fill="#6B6353"/>
<rect x="508" y="156" width="4" height="4" fill="#A8AF97"/>
<rect x="512" y="156" width="4" height="4" fill="#8A6B52"/>
<rect x="516" y="156" width="52" height="4" fill="#B49478"/>
<rect x="568" y="156" width="32" height="4" fill="#4A4038"/>
<rect x="600" y="156" width="4" height="4" fill="#C9BC9C"/>
<rect x="604" y="156" width="20" height="4" fill="#B49478"/>
<rect x="624" y="156" width="8" height="4" fill="#4A4038"/>
<rect x="632" y="156" width="168" height="4" fill="#B49478"/>
<rect x="0" y="160" width="12" height="4" fill="#909880"/>
<rect x="12" y="160" width="100" height="4" fill="#A8AF97"/>
<rect x="112" y="160" width="20" height="4" fill="#52654B"/>
<rect x="132" y="160" width="4" height="4" fill="#A8AF97"/>
<rect x="136" y="160" width="20" height="4" fill="#52654B"/>
<rect x="156" y="160" width="316" height="4" fill="#A8AF97"/>
<rect x="472" y="160" width="24" height="4" fill="#5E7F7A"/>
<rect x="496" y="160" width="8" height="4" fill="#A8AF97"/>
<rect x="504" y="160" width="4" height="4" fill="#6B6353"/>
<rect x="508" y="160" width="4" height="4" fill="#A8AF97"/>
<rect x="512" y="160" width="4" height="4" fill="#8A6B52"/>
<rect x="516" y="160" width="52" height="4" fill="#B49478"/>
<rect x="568" y="160" width="32" height="4" fill="#4A4038"/>
<rect x="600" y="160" width="4" height="4" fill="#C9BC9C"/>
<rect x="604" y="160" width="20" height="4" fill="#B49478"/>
<rect x="624" y="160" width="8" height="4" fill="#4A4038"/>
<rect x="632" y="160" width="168" height="4" fill="#B49478"/>
<rect x="0" y="164" width="112" height="4" fill="#A8AF97"/>
<rect x="112" y="164" width="20" height="4" fill="#3E4F39"/>
<rect x="132" y="164" width="4" height="4" fill="#A8AF97"/>
<rect x="136" y="164" width="20" height="4" fill="#3E4F39"/>
<rect x="156" y="164" width="316" height="4" fill="#A8AF97"/>
<rect x="472" y="164" width="16" height="4" fill="#5E7F7A"/>
<rect x="488" y="164" width="8" height="4" fill="#9C927B"/>
<rect x="496" y="164" width="8" height="4" fill="#A8AF97"/>
<rect x="504" y="164" width="4" height="4" fill="#6B6353"/>
<rect x="508" y="164" width="4" height="4" fill="#A8AF97"/>
<rect x="512" y="164" width="4" height="4" fill="#8A6B52"/>
<rect x="516" y="164" width="84" height="4" fill="#B49478"/>
<rect x="600" y="164" width="4" height="4" fill="#C9BC9C"/>
<rect x="604" y="164" width="28" height="4" fill="#B49478"/>
<rect x="632" y="164" width="24" height="4" fill="#9C7E64"/>
<rect x="656" y="164" width="144" height="4" fill="#B49478"/>
<rect x="0" y="168" width="108" height="4" fill="#A8AF97"/>
<rect x="108" y="168" width="52" height="4" fill="#52654B"/>
<rect x="160" y="168" width="312" height="4" fill="#A8AF97"/>
<rect x="472" y="168" width="16" height="4" fill="#5E7F7A"/>
<rect x="488" y="168" width="8" height="4" fill="#9C927B"/>
<rect x="496" y="168" width="8" height="4" fill="#A8AF97"/>
<rect x="504" y="168" width="4" height="4" fill="#6B6353"/>
<rect x="508" y="168" width="4" height="4" fill="#A8AF97"/>
<rect x="512" y="168" width="4" height="4" fill="#8A6B52"/>
<rect x="516" y="168" width="84" height="4" fill="#B49478"/>
<rect x="600" y="168" width="4" height="4" fill="#C9BC9C"/>
<rect x="604" y="168" width="196" height="4" fill="#B49478"/>
<rect x="0" y="172" width="120" height="4" fill="#DCCFAF"/>
<rect x="120" y="172" width="4" height="4" fill="#6B4E32"/>
<rect x="124" y="172" width="20" height="4" fill="#DCCFAF"/>
<rect x="144" y="172" width="4" height="4" fill="#6B4E32"/>
<rect x="148" y="172" width="324" height="4" fill="#DCCFAF"/>
<rect x="472" y="172" width="8" height="4" fill="#D9B48F"/>
<rect x="480" y="172" width="8" height="4" fill="#3A424D"/>
<rect x="488" y="172" width="8" height="4" fill="#D9B48F"/>
<rect x="496" y="172" width="8" height="4" fill="#DCCFAF"/>
<rect x="504" y="172" width="4" height="4" fill="#6B6353"/>
<rect x="508" y="172" width="4" height="4" fill="#DCCFAF"/>
<rect x="512" y="172" width="4" height="4" fill="#8A6B52"/>
<rect x="516" y="172" width="84" height="4" fill="#B49478"/>
<rect x="600" y="172" width="4" height="4" fill="#C9BC9C"/>
<rect x="604" y="172" width="196" height="4" fill="#B49478"/>
<rect x="0" y="176" width="120" height="4" fill="#DCCFAF"/>
<rect x="120" y="176" width="4" height="4" fill="#6B4E32"/>
<rect x="124" y="176" width="20" height="4" fill="#DCCFAF"/>
<rect x="144" y="176" width="4" height="4" fill="#6B4E32"/>
<rect x="148" y="176" width="324" height="4" fill="#DCCFAF"/>
<rect x="472" y="176" width="8" height="4" fill="#D9B48F"/>
<rect x="480" y="176" width="8" height="4" fill="#3A424D"/>
<rect x="488" y="176" width="8" height="4" fill="#D9B48F"/>
<rect x="496" y="176" width="8" height="4" fill="#DCCFAF"/>
<rect x="504" y="176" width="4" height="4" fill="#6B6353"/>
<rect x="508" y="176" width="4" height="4" fill="#DCCFAF"/>
<rect x="512" y="176" width="4" height="4" fill="#8A6B52"/>
<rect x="516" y="176" width="84" height="4" fill="#B49478"/>
<rect x="600" y="176" width="4" height="4" fill="#C9BC9C"/>
<rect x="604" y="176" width="196" height="4" fill="#B49478"/>
<rect x="0" y="180" width="36" height="4" fill="#DCCFAF"/>
<rect x="36" y="180" width="12" height="4" fill="#52654B"/>
<rect x="48" y="180" width="424" height="4" fill="#DCCFAF"/>
<rect x="472" y="180" width="24" height="4" fill="#D9B48F"/>
<rect x="496" y="180" width="12" height="4" fill="#DCCFAF"/>
<rect x="508" y="180" width="4" height="4" fill="#6B6353"/>
<rect x="512" y="180" width="4" height="4" fill="#8A6B52"/>
<rect x="516" y="180" width="84" height="4" fill="#B49478"/>
<rect x="600" y="180" width="4" height="4" fill="#C9BC9C"/>
<rect x="604" y="180" width="196" height="4" fill="#B49478"/>
<rect x="0" y="184" width="36" height="4" fill="#DCCFAF"/>
<rect x="36" y="184" width="12" height="4" fill="#52654B"/>
<rect x="48" y="184" width="424" height="4" fill="#DCCFAF"/>
<rect x="472" y="184" width="24" height="4" fill="#D9B48F"/>
<rect x="496" y="184" width="12" height="4" fill="#DCCFAF"/>
<rect x="508" y="184" width="4" height="4" fill="#6B6353"/>
<rect x="512" y="184" width="4" height="4" fill="#8A6B52"/>
<rect x="516" y="184" width="4" height="4" fill="#B49478"/>
<rect x="520" y="184" width="16" height="4" fill="#9C7E64"/>
<rect x="536" y="184" width="64" height="4" fill="#B49478"/>
<rect x="600" y="184" width="4" height="4" fill="#C9BC9C"/>
<rect x="604" y="184" width="196" height="4" fill="#B49478"/>
<rect x="0" y="188" width="32" height="4" fill="#DCCFAF"/>
<rect x="32" y="188" width="20" height="4" fill="#3E4F39"/>
<rect x="52" y="188" width="412" height="4" fill="#DCCFAF"/>
<rect x="464" y="188" width="40" height="4" fill="#6B7A58"/>
<rect x="504" y="188" width="4" height="4" fill="#DCCFAF"/>
<rect x="508" y="188" width="4" height="4" fill="#6B6353"/>
<rect x="512" y="188" width="4" height="4" fill="#8A6B52"/>
<rect x="516" y="188" width="284" height="4" fill="#B49478"/>
<rect x="0" y="192" width="32" height="4" fill="#DCCFAF"/>
<rect x="32" y="192" width="20" height="4" fill="#3E4F39"/>
<rect x="52" y="192" width="412" height="4" fill="#DCCFAF"/>
<rect x="464" y="192" width="40" height="4" fill="#6B7A58"/>
<rect x="504" y="192" width="4" height="4" fill="#DCCFAF"/>
<rect x="508" y="192" width="4" height="4" fill="#6B6353"/>
<rect x="512" y="192" width="16" height="4" fill="#8A6B52"/>
<rect x="528" y="192" width="272" height="4" fill="#B49478"/>
<rect x="0" y="196" width="28" height="4" fill="#DCCFAF"/>
<rect x="28" y="196" width="28" height="4" fill="#52654B"/>
<rect x="56" y="196" width="240" height="4" fill="#DCCFAF"/>
<rect x="296" y="196" width="8" height="4" fill="#B5A57F"/>
<rect x="304" y="196" width="160" height="4" fill="#DCCFAF"/>
<rect x="464" y="196" width="8" height="4" fill="#59684A"/>
<rect x="472" y="196" width="24" height="4" fill="#6B7A58"/>
<rect x="496" y="196" width="8" height="4" fill="#59684A"/>
<rect x="504" y="196" width="4" height="4" fill="#DCCFAF"/>
<rect x="508" y="196" width="4" height="4" fill="#6B6353"/>
<rect x="512" y="196" width="4" height="4" fill="#8A6B52"/>
<rect x="516" y="196" width="284" height="4" fill="#B49478"/>
<rect x="0" y="200" width="28" height="4" fill="#DCCFAF"/>
<rect x="28" y="200" width="28" height="4" fill="#52654B"/>
<rect x="56" y="200" width="408" height="4" fill="#DCCFAF"/>
<rect x="464" y="200" width="8" height="4" fill="#59684A"/>
<rect x="472" y="200" width="24" height="4" fill="#6B7A58"/>
<rect x="496" y="200" width="8" height="4" fill="#59684A"/>
<rect x="504" y="200" width="4" height="4" fill="#DCCFAF"/>
<rect x="508" y="200" width="4" height="4" fill="#6B6353"/>
<rect x="512" y="200" width="4" height="4" fill="#8A6B52"/>
<rect x="516" y="200" width="284" height="4" fill="#B49478"/>
<rect x="0" y="204" width="24" height="4" fill="#DCCFAF"/>
<rect x="24" y="204" width="36" height="4" fill="#3E4F39"/>
<rect x="60" y="204" width="404" height="4" fill="#DCCFAF"/>
<rect x="464" y="204" width="8" height="4" fill="#59684A"/>
<rect x="472" y="204" width="24" height="4" fill="#6B7A58"/>
<rect x="496" y="204" width="8" height="4" fill="#59684A"/>
<rect x="504" y="204" width="4" height="4" fill="#DCCFAF"/>
<rect x="508" y="204" width="4" height="4" fill="#6B6353"/>
<rect x="512" y="204" width="4" height="4" fill="#8A6B52"/>
<rect x="516" y="204" width="144" height="4" fill="#B49478"/>
<rect x="660" y="204" width="32" height="4" fill="#9C7E64"/>
<rect x="692" y="204" width="108" height="4" fill="#B49478"/>
<rect x="0" y="208" width="24" height="4" fill="#DCCFAF"/>
<rect x="24" y="208" width="36" height="4" fill="#3E4F39"/>
<rect x="60" y="208" width="404" height="4" fill="#DCCFAF"/>
<rect x="464" y="208" width="8" height="4" fill="#59684A"/>
<rect x="472" y="208" width="24" height="4" fill="#6B7A58"/>
<rect x="496" y="208" width="8" height="4" fill="#59684A"/>
<rect x="504" y="208" width="4" height="4" fill="#DCCFAF"/>
<rect x="508" y="208" width="4" height="4" fill="#6B6353"/>
<rect x="512" y="208" width="4" height="4" fill="#8A6B52"/>
<rect x="516" y="208" width="284" height="4" fill="#B49478"/>
<rect x="0" y="212" width="20" height="4" fill="#DCCFAF"/>
<rect x="20" y="212" width="44" height="4" fill="#52654B"/>
<rect x="64" y="212" width="100" height="4" fill="#DCCFAF"/>
<rect x="164" y="212" width="8" height="4" fill="#B5A57F"/>
<rect x="172" y="212" width="292" height="4" fill="#DCCFAF"/>
<rect x="464" y="212" width="8" height="4" fill="#D9B48F"/>
<rect x="472" y="212" width="24" height="4" fill="#59684A"/>
<rect x="496" y="212" width="8" height="4" fill="#D9B48F"/>
<rect x="504" y="212" width="8" height="4" fill="#DCCFAF"/>
<rect x="512" y="212" width="4" height="4" fill="#6B6353"/>
<rect x="516" y="212" width="284" height="4" fill="#B49478"/>
<rect x="0" y="216" width="20" height="4" fill="#DCCFAF"/>
<rect x="20" y="216" width="44" height="4" fill="#52654B"/>
<rect x="64" y="216" width="368" height="4" fill="#DCCFAF"/>
<rect x="432" y="216" width="8" height="4" fill="#B5A57F"/>
<rect x="440" y="216" width="24" height="4" fill="#DCCFAF"/>
<rect x="464" y="216" width="8" height="4" fill="#D9B48F"/>
<rect x="472" y="216" width="24" height="4" fill="#59684A"/>
<rect x="496" y="216" width="8" height="4" fill="#D9B48F"/>
<rect x="504" y="216" width="8" height="4" fill="#DCCFAF"/>
<rect x="512" y="216" width="4" height="4" fill="#6B6353"/>
<rect x="516" y="216" width="284" height="4" fill="#B49478"/>
<rect x="0" y="220" width="16" height="4" fill="#DCCFAF"/>
<rect x="16" y="220" width="52" height="4" fill="#3E4F39"/>
<rect x="68" y="220" width="404" height="4" fill="#DCCFAF"/>
<rect x="472" y="220" width="24" height="4" fill="#4A5258"/>
<rect x="496" y="220" width="16" height="4" fill="#DCCFAF"/>
<rect x="512" y="220" width="4" height="4" fill="#6B6353"/>
<rect x="516" y="220" width="284" height="4" fill="#B49478"/>
<rect x="0" y="224" width="16" height="4" fill="#DCCFAF"/>
<rect x="16" y="224" width="52" height="4" fill="#3E4F39"/>
<rect x="68" y="224" width="404" height="4" fill="#DCCFAF"/>
<rect x="472" y="224" width="24" height="4" fill="#4A5258"/>
<rect x="496" y="224" width="16" height="4" fill="#DCCFAF"/>
<rect x="512" y="224" width="4" height="4" fill="#6B6353"/>
<rect x="516" y="224" width="32" height="4" fill="#B49478"/>
<rect x="548" y="224" width="24" height="4" fill="#9C7E64"/>
<rect x="572" y="224" width="228" height="4" fill="#B49478"/>
<rect x="0" y="228" width="16" height="4" fill="#DCCFAF"/>
<rect x="16" y="228" width="52" height="4" fill="#52654B"/>
<rect x="68" y="228" width="24" height="4" fill="#DCCFAF"/>
<rect x="92" y="228" width="8" height="4" fill="#C8B990"/>
<rect x="100" y="228" width="372" height="4" fill="#DCCFAF"/>
<rect x="472" y="228" width="8" height="4" fill="#4A5258"/>
<rect x="480" y="228" width="8" height="4" fill="#DCCFAF"/>
<rect x="488" y="228" width="8" height="4" fill="#4A5258"/>
<rect x="496" y="228" width="16" height="4" fill="#DCCFAF"/>
<rect x="512" y="228" width="4" height="4" fill="#6B6353"/>
<rect x="516" y="228" width="284" height="4" fill="#B49478"/>
<rect x="0" y="232" width="16" height="4" fill="#DCCFAF"/>
<rect x="16" y="232" width="52" height="4" fill="#52654B"/>
<rect x="68" y="232" width="404" height="4" fill="#DCCFAF"/>
<rect x="472" y="232" width="8" height="4" fill="#4A5258"/>
<rect x="480" y="232" width="8" height="4" fill="#DCCFAF"/>
<rect x="488" y="232" width="8" height="4" fill="#4A5258"/>
<rect x="496" y="232" width="16" height="4" fill="#DCCFAF"/>
<rect x="512" y="232" width="4" height="4" fill="#6B6353"/>
<rect x="516" y="232" width="120" height="4" fill="#B49478"/>
<rect x="636" y="232" width="12" height="4" fill="#8A6B52"/>
<rect x="648" y="232" width="152" height="4" fill="#B49478"/>
<rect x="0" y="236" width="16" height="4" fill="#DCCFAF"/>
<rect x="16" y="236" width="52" height="4" fill="#3E4F39"/>
<rect x="68" y="236" width="404" height="4" fill="#DCCFAF"/>
<rect x="472" y="236" width="8" height="4" fill="#4A5258"/>
<rect x="480" y="236" width="8" height="4" fill="#DCCFAF"/>
<rect x="488" y="236" width="8" height="4" fill="#4A5258"/>
<rect x="496" y="236" width="16" height="4" fill="#DCCFAF"/>
<rect x="512" y="236" width="4" height="4" fill="#8A6B52"/>
<rect x="516" y="236" width="284" height="4" fill="#B49478"/>
<rect x="0" y="240" width="16" height="4" fill="#DCCFAF"/>
<rect x="16" y="240" width="52" height="4" fill="#3E4F39"/>
<rect x="68" y="240" width="292" height="4" fill="#DCCFAF"/>
<rect x="360" y="240" width="8" height="4" fill="#C8B990"/>
<rect x="368" y="240" width="104" height="4" fill="#DCCFAF"/>
<rect x="472" y="240" width="8" height="4" fill="#4A5258"/>
<rect x="480" y="240" width="8" height="4" fill="#DCCFAF"/>
<rect x="488" y="240" width="8" height="4" fill="#4A5258"/>
<rect x="496" y="240" width="16" height="4" fill="#DCCFAF"/>
<rect x="512" y="240" width="4" height="4" fill="#8A6B52"/>
<rect x="516" y="240" width="284" height="4" fill="#B49478"/>
<rect x="0" y="244" width="16" height="4" fill="#DCCFAF"/>
<rect x="16" y="244" width="52" height="4" fill="#52654B"/>
<rect x="68" y="244" width="404" height="4" fill="#DCCFAF"/>
<rect x="472" y="244" width="8" height="4" fill="#4A5258"/>
<rect x="480" y="244" width="8" height="4" fill="#DCCFAF"/>
<rect x="488" y="244" width="8" height="4" fill="#4A5258"/>
<rect x="496" y="244" width="16" height="4" fill="#DCCFAF"/>
<rect x="512" y="244" width="4" height="4" fill="#8A6B52"/>
<rect x="516" y="244" width="172" height="4" fill="#B49478"/>
<rect x="688" y="244" width="16" height="4" fill="#9C7E64"/>
<rect x="704" y="244" width="96" height="4" fill="#B49478"/>
<rect x="0" y="248" width="16" height="4" fill="#DCCFAF"/>
<rect x="16" y="248" width="52" height="4" fill="#52654B"/>
<rect x="68" y="248" width="404" height="4" fill="#DCCFAF"/>
<rect x="472" y="248" width="8" height="4" fill="#4A5258"/>
<rect x="480" y="248" width="8" height="4" fill="#DCCFAF"/>
<rect x="488" y="248" width="8" height="4" fill="#4A5258"/>
<rect x="496" y="248" width="16" height="4" fill="#DCCFAF"/>
<rect x="512" y="248" width="4" height="4" fill="#8A6B52"/>
<rect x="516" y="248" width="284" height="4" fill="#B49478"/>
<rect x="0" y="252" width="16" height="4" fill="#DCCFAF"/>
<rect x="16" y="252" width="52" height="4" fill="#3E4F39"/>
<rect x="68" y="252" width="404" height="4" fill="#DCCFAF"/>
<rect x="472" y="252" width="8" height="4" fill="#4A5258"/>
<rect x="480" y="252" width="8" height="4" fill="#DCCFAF"/>
<rect x="488" y="252" width="8" height="4" fill="#4A5258"/>
<rect x="496" y="252" width="16" height="4" fill="#DCCFAF"/>
<rect x="512" y="252" width="4" height="4" fill="#8A6B52"/>
<rect x="516" y="252" width="284" height="4" fill="#B49478"/>
<rect x="0" y="256" width="16" height="4" fill="#DCCFAF"/>
<rect x="16" y="256" width="52" height="4" fill="#3E4F39"/>
<rect x="68" y="256" width="164" height="4" fill="#DCCFAF"/>
<rect x="232" y="256" width="8" height="4" fill="#C8B990"/>
<rect x="240" y="256" width="232" height="4" fill="#DCCFAF"/>
<rect x="472" y="256" width="8" height="4" fill="#4A5258"/>
<rect x="480" y="256" width="8" height="4" fill="#DCCFAF"/>
<rect x="488" y="256" width="8" height="4" fill="#4A5258"/>
<rect x="496" y="256" width="16" height="4" fill="#DCCFAF"/>
<rect x="512" y="256" width="4" height="4" fill="#8A6B52"/>
<rect x="516" y="256" width="284" height="4" fill="#B49478"/>
<rect x="0" y="260" width="36" height="4" fill="#DCCFAF"/>
<rect x="36" y="260" width="8" height="4" fill="#6B4E32"/>
<rect x="44" y="260" width="420" height="4" fill="#DCCFAF"/>
<rect x="464" y="260" width="8" height="4" fill="#372F28"/>
<rect x="472" y="260" width="8" height="4" fill="#4A4038"/>
<rect x="480" y="260" width="8" height="4" fill="#DCCFAF"/>
<rect x="488" y="260" width="8" height="4" fill="#4A4038"/>
<rect x="496" y="260" width="8" height="4" fill="#372F28"/>
<rect x="504" y="260" width="8" height="4" fill="#DCCFAF"/>
<rect x="512" y="260" width="4" height="4" fill="#8A6B52"/>
<rect x="516" y="260" width="284" height="4" fill="#B49478"/>
<rect x="0" y="264" width="36" height="4" fill="#DCCFAF"/>
<rect x="36" y="264" width="8" height="4" fill="#6B4E32"/>
<rect x="44" y="264" width="4" height="4" fill="#DCCFAF"/>
<rect x="48" y="264" width="8" height="4" fill="#B5A57F"/>
<rect x="56" y="264" width="408" height="4" fill="#DCCFAF"/>
<rect x="464" y="264" width="8" height="4" fill="#372F28"/>
<rect x="472" y="264" width="8" height="4" fill="#4A4038"/>
<rect x="480" y="264" width="8" height="4" fill="#DCCFAF"/>
<rect x="488" y="264" width="8" height="4" fill="#4A4038"/>
<rect x="496" y="264" width="8" height="4" fill="#372F28"/>
<rect x="504" y="264" width="8" height="4" fill="#DCCFAF"/>
<rect x="512" y="264" width="4" height="4" fill="#8A6B52"/>
<rect x="516" y="264" width="60" height="4" fill="#B49478"/>
<rect x="576" y="264" width="32" height="4" fill="#9C7E64"/>
<rect x="608" y="264" width="192" height="4" fill="#B49478"/>
<rect x="0" y="268" width="36" height="4" fill="#DCCFAF"/>
<rect x="36" y="268" width="8" height="4" fill="#6B4E32"/>
<rect x="44" y="268" width="460" height="4" fill="#DCCFAF"/>
<rect x="504" y="268" width="8" height="4" fill="#C8B990"/>
<rect x="512" y="268" width="4" height="4" fill="#8A6B52"/>
<rect x="516" y="268" width="284" height="4" fill="#B49478"/>
<rect x="0" y="272" width="36" height="4" fill="#DCCFAF"/>
<rect x="36" y="272" width="8" height="4" fill="#6B4E32"/>
<rect x="44" y="272" width="468" height="4" fill="#DCCFAF"/>
<rect x="512" y="272" width="288" height="4" fill="#8A6B52"/>
<rect x="0" y="276" width="604" height="4" fill="#DCCFAF"/>
<rect x="604" y="276" width="8" height="4" fill="#C8B990"/>
<rect x="612" y="276" width="136" height="4" fill="#DCCFAF"/>
<rect x="748" y="276" width="8" height="4" fill="#6B4E32"/>
<rect x="756" y="276" width="44" height="4" fill="#DCCFAF"/>
<rect x="0" y="280" width="136" height="4" fill="#DCCFAF"/>
<rect x="136" y="280" width="8" height="4" fill="#B5A57F"/>
<rect x="144" y="280" width="604" height="4" fill="#DCCFAF"/>
<rect x="748" y="280" width="8" height="4" fill="#6B4E32"/>
<rect x="756" y="280" width="44" height="4" fill="#DCCFAF"/>
<rect x="0" y="284" width="740" height="4" fill="#DCCFAF"/>
<rect x="740" y="284" width="8" height="4" fill="#C8B990"/>
<rect x="748" y="284" width="8" height="4" fill="#6B4E32"/>
<rect x="756" y="284" width="44" height="4" fill="#DCCFAF"/>
<rect x="0" y="288" width="276" height="4" fill="#DCCFAF"/>
<rect x="276" y="288" width="8" height="4" fill="#B5A57F"/>
<rect x="284" y="288" width="184" height="4" fill="#DCCFAF"/>
<rect x="468" y="288" width="8" height="4" fill="#C8B990"/>
<rect x="476" y="288" width="272" height="4" fill="#DCCFAF"/>
<rect x="748" y="288" width="8" height="4" fill="#6B4E32"/>
<rect x="756" y="288" width="44" height="4" fill="#DCCFAF"/>
<rect x="0" y="292" width="800" height="4" fill="#DCCFAF"/>
<rect x="0" y="296" width="800" height="4" fill="#DCCFAF"/>
</svg>