<svg xmlns="http://www.w3.org/2000/svg" viewBox="0 0 800 300" role="img" aria-label="Pixel art of a canyoneer rappelling into a narrow desert slot canyon" shape-rendering="crispEdges">
<!-- generated by tools/niche_pixel.py; edit the generator, not these rects -->
<rect x="0" y="0" width="4" height="4" fill="#8A6B52"/>
<rect x="4" y="0" width="284" height="4" fill="#B49478"/>
<rect x="288" y="0" width="96" height="4" fill="#9BA3B0"/>
<rect x="384" y="0" width="4" height="4" fill="#3A4048"/>
<rect x="388" y="0" width="124" height="4" fill="#9BA3B0"/>
<rect x="512" y="0" width="4" height="4" fill="#8A6B52"/>
<rect x="516" y="0" width="284" height="4" fill="#B49478"/>
<rect x="0" y="4" width="4" height="4" fill="#8A6B52"/>
<rect x="4" y="4" width="4" height="4" fill="#B49478"/>
<rect x="8" y="4" width="16" height="4" fill="#9C7E64"/>
<rect x="24" y="4" width="264" height="4" fill="#B49478"/>
<rect x="288" y="4" width="96" height="4" fill="#9BA3B0"/>
<rect x="384" y="4" width="4" height="4" fill="#3A4048"/>
<rect x="388" y="4" width="124" height="4" fill="#9BA3B0"/>
<rect x="512" y="4" width="4" height="4" fill="#8A6B52"/>
<rect x="516" y="4" width="4" height="4" fill="#B49478"/>
<rect x="520" y="4" width="16" height="4" fill="#9C7E64"/>
<rect x="536" y="4" width="264" height="4" fill="#B49478"/>
<rect x="0" y="8" width="4" height="4" fill="#8A6B52"/>
<rect x="4" y="8" width="284" height="4" fill="#B49478"/>
<rect x="288" y="8" width="96" height="4" fill="#9BA3B0"/>
<rect x="384" y="8" width="4" height="4" fill="#3A4048"/>
<rect x="388" y="8" width="124" height="4" fill="#9BA3B0"/>
<rect x="512" y="8" width="4" height="4" fill="#8A6B52"/>
<rect x="516" y="8" width="284" height="4" fill="#B49478"/>
<rect x="0" y="12" width="4" height="4" fill="#8A6B52"/>
<rect x="4" y="12" width="284" height="4" fill="#B49478"/>
<rect x="288" y="12" width="96" height="4" fill="#9BA3B0"/>
<rect x="384" y="12" width="4" height="4" fill="#3A4048"/>
<rect x="388" y="12" width="124" height="4" fill="#9BA3B0"/>
<rect x="512" y="12" width="4" height="4" fill="#8A6B52"/>
<rect x="516" y="12" width="284" height="4" fill="#B49478"/>
<rect x="0" y="16" width="4" height="4" fill="#8A6B52"/>
<rect x="4" y="16" width="284" height="4" fill="#B49478"/>
<rect x="288" y="16" width="96" height="4" fill="#9BA3B0"/>
<rect x="384" y="16" width="4" height="4" fill="#3A4048"/>
<rect x="388" y="16" width="124" height="4" fill="#9BA3B0"/>
<rect x="512" y="16" width="4" height="4" fill="#8A6B52"/>
<rect x="516" y="16" width="284" height="4" fill="#B49478"/>
<rect x="0" y="20" width="4" height="4" fill="#8A6B52"/>
<rect x="4" y="20" width="284" height="4" fill="#B49478"/>
<rect x="288" y="20" width="96" height="4" fill="#9BA3B0"/>
<rect x="384" y="20" width="4" height="4" fill="#3A4048"/>
<rect x="388" y="20" width="124" height="4" fill="#9BA3B0"/>
<rect x="512" y="20" width="4" height="4" fill="#8A6B52"/>
<rect x="516" y="20" width="284" height="4" fill="#B49478"/>
<rect x="0" y="24" width="4" height="4" fill="#8A6B52"/>
<rect x="4" y="24" width="144" height="4" fill="#B49478"/>
<rect x="148" y="24" width="32" height="4" fill="#9C7E64"/>
<rect x="180" y="24" width="108" height="4" fill="#B49478"/>
<rect x="288" y="24" width="96" height="4" fill="#9BA3B0"/>
<rect x="384" y="24" width="4" height="4" fill="#3A4048"/>
<rect x="388" y="24" width="124" height="4" fill="#9BA3B0"/>
<rect x="512" y="24" width="4" height="4" fill="#8A6B52"/>
<rect x="516" y="24" width="144" height="4" fill="#B49478"/>
<rect x="660" y="24" width="32" height="4" fill="#9C7E64"/>
<rect x="692" y="24" width="108" height="4" fill="#B49478"/>
<rect x="0" y="28" width="4" height="4" fill="#8A6B52"/>
<rect x="4" y="28" width="284" height="4" fill="#B49478"/>
<rect x="288" y="28" width="96" height="4" fill="#9BA3B0"/>
<rect x="384" y="28" width="4" height="4" fill="#3A4048"/>
<rect x="388" y="28" width="124" height="4" fill="#9BA3B0"/>
<rect x="512" y="28" width="4" height="4" fill="#8A6B52"/>
<rect x="516" y="28" width="284" height="4" fill="#B49478"/>
<rect x="0" y="32" width="4" height="4" fill="#8A6B52"/>
<rect x="4" y="32" width="56" height="4" fill="#B49478"/>
<rect x="60" y="32" width="12" height="4" fill="#8A6B52"/>
<rect x="72" y="32" width="216" height="4" fill="#B49478"/>
<rect x="288" y="32" width="96" height="4" fill="#9BA3B0"/>
<rect x="384" y="32" width="4" height="4" fill="#3A4048"/>
<rect x="388" y="32" width="124" height="4" fill="#9BA3B0"/>
<rect x="512" y="32" width="4" height="4" fill="#8A6B52"/>
<rect x="516" y="32" width="56" height="4" fill="#B49478"/>
<rect x="572" y="32" width="12" height="4" fill="#8A6B52"/>
<rect x="584" y="32" width="216" height="4" fill="#B49478"/>
<rect x="0" y="36" width="4" height="4" fill="#8A6B52"/>
<rect x="4" y="36" width="284" height="4" fill="#B49478"/>
<rect x="288" y="36" width="96" height="4" fill="#9BA3B0"/>
<rect x="384" y="36" width="4" height="4" fill="#3A4048"/>
<rect x="388" y="36" width="124" height="4" fill="#9BA3B0"/>
<rect x="512" y="36" width="4" height="4" fill="#8A6B52"/>
<rect x="516" y="36" width="284" height="4" fill="#B49478"/>
<rect x="0" y="40" width="4" height="4" fill="#8A6B52"/>
<rect x="4" y="40" width="284" height="4" fill="#B49478"/>
<rect x="288" y="40" width="96" height="4" fill="#9BA3B0"/>
<rect x="384" y="40" width="4" height="4" fill="#3A4048"/>
<rect x="388" y="40" width="124" height="4" fill="#9BA3B0"/>
<rect x="512" y="40" width="4" height="4" fill="#8A6B52"/>
<rect x="516" y="40" width="284" height="4" fill="#B49478"/>
<rect x="0" y="44" width="4" height="4" fill="#8A6B52"/>
<rect x="4" y="44" width="32" height="4" fill="#B49478"/>
<rect x="36" y="44" width="24" height="4" fill="#9C7E64"/>
<rect x="60" y="44" width="228" height="4" fill="#B49478"/>
<rect x="288" y="44" width="96" height="4" fill="#9BA3B0"/>
<rect x="384" y="44" width="4" height="4" fill="#3A4048"/>
<rect x="388" y="44" width="124" height="4" fill="#9BA3B0"/>
<rect x="512" y="44" width="4" height="4" fill="#8A6B52"/>
<rect x="516" y="44" width="32" height="4" fill="#B49478"/>
<rect x="548" y="44" width="24" height="4" fill="#9C7E64"/>
<rect x="572" y="44" width="228" height="4" fill="#B49478"/>
<rect x="0" y="48" width="4" height="4" fill="#8A6B52"/>
<rect x="4" y="48" width="284" height="4" fill="#B49478"/>
<rect x="288" y="48" width="96" height="4" fill="#9BA3B0"/>
<rect x="384" y="48" width="4" height="4" fill="#3A4048"/>
<rect x="388" y="48" width="124" height="4" fill="#9BA3B0"/>
<rect x="512" y="48" width="4" height="4" fill="#8A6B52"/>
<rect x="516" y="48" width="284" height="4" fill="#B49478"/>
<rect x="0" y="52" width="4" height="4" fill="#8A6B52"/>
<rect x="4" y="52" width="284" height="4" fill="#B49478"/>
<rect x="288" y="52" width="96" height="4" fill="#9BA3B0"/>
<rect x="384" y="52" width="4" height="4" fill="#3A4048"/>
<rect x="388" y="52" width="124" height="4" fill="#9BA3B0"/>
<rect x="512" y="52" width="4" height="4" fill="#8A6B52"/>
<rect x="516" y="52" width="284" height="4" fill="#B49478"/>
<rect x="0" y="56" width="4" height="4" fill="#8A6B52"/>
<rect x="4" y="56" width="284" height="4" fill="#B49478"/>
<rect x="288" y="56" width="96" height="4" fill="#9BA3B0"/>
<rect x="384" y="56" width="4" height="4" fill="#3A4048"/>
<rect x="388" y="56" width="124" height="4" fill="#9BA3B0"/>
<rect x="512" y="56" width="4" height="4" fill="#8A6B52"/>
<rect x="516" y="56" width="284" height="4" fill="#B49478"/>
<rect x="0" y="60" width="4" height="4" fill="#8A6B52"/>
<rect x="4" y="60" width="284" height="4" fill="#B49478"/>
<rect x="288" y="60" width="56" height="4" fill="#9BA3B0"/>
<rect x="344" y="60" width="24" height="4" fill="#A84A3F"/>
<rect x="368" y="60" width="16" height="4" fill="#9BA3B0"/>
<rect x="384" y="60" width="4" height="4" fill="#3A4048"/>
<rect x="388" y="60" width="124" height="4" fill="#9BA3B0"/>
<rect x="512" y="60" width="4" height="4" fill="#8A6B52"/>
<rect x="516" y="60" width="284" height="4" fill="#B49478"/>
<rect x="0" y="64" width="4" height="4" fill="#8A6B52"/>
<rect x="4" y="64" width="172" height="4" fill="#B49478"/>
<rect x="176" y="64" width="16" height="4" fill="#9C7E64"/>
<rect x="192" y="64" width="96" height="4" fill="#B49478"/>
<rect x="288" y="64" width="56" height="4" fill="#C0B2A6"/>
<rect x="344" y="64" width="24" height="4" fill="#A84A3F"/>
<rect x="368" y="64" width="16" height="4" fill="#C0B2A6"/>
<rect x="384" y="64" width="4" height="4" fill="#3A4048"/>
<rect x="388" y="64" width="124" height="4" fill="#C0B2A6"/>
<rect x="512" y="64" width="4" height="4" fill="#8A6B52"/>
<rect x="516" y="64" width="172" height="4" fill="#B49478"/>
<rect x="688" y="64" width="16" height="4" fill="#9C7E64"/>
<rect x="704" y="64" width="96" height="4" fill="#B49478"/>
<rect x="0" y="68" width="4" height="4" fill="#8A6B52"/>
<rect x="4" y="68" width="284" height="4" fill="#B49478"/>
<rect x="288" y="68" width="56" height="4" fill="#C0B2A6"/>
<rect x="344" y="68" width="8" height="4" fill="#9C927B"/>
<rect x="352" y="68" width="16" height="4" fill="#A84A3F"/>
<rect x="368" y="68" width="16" height="4" fill="#C0B2A6"/>
<rect x="384" y="68" width="4" height="4" fill="#3A4048"/>
<rect x="388" y="68" width="124" height="4" fill="#C0B2A6"/>
<rect x="512" y="68" width="4" height="4" fill="#8A6B52"/>
<rect x="516" y="68" width="284" height="4" fill="#B49478"/>
<rect x="0" y="72" width="4" height="4" fill="#8A6B52"/>
<rect x="4" y="72" width="176" height="4" fill="#B49478"/>
<rect x="180" y="72" width="12" height="4" fill="#8A6B52"/>
<rect x="192" y="72" width="96" height="4" fill="#B49478"/>
<rect x="288" y="72" width="56" height="4" fill="#C0B2A6"/>
<rect x="344" y="72" width="8" height="4" fill="#9C927B"/>
<rect x="352" y="72" width="16" height="4" fill="#A84A3F"/>
<rect x="368" y="72" width="16" height="4" fill="#C0B2A6"/>
<rect x="384" y="72" width="4" height="4" fill="#3A4048"/>
<rect x="388" y="72" width="124" height="4" fill="#C0B2A6"/>
<rect x="512" y="72" width="4" height="4" fill="#8A6B52"/>
<rect x="516" y="72" width="176" height="4" fill="#B49478"/>
<rect x="692" y="72" width="12" height="4" fill="#8A6B52"/>
<rect x="704" y="72" width="96" height="4" fill="#B49478"/>
<rect x="0" y="76" width="4" height="4" fill="#8A6B52"/>
<rect x="4" y="76" width="284" height="4" fill="#B49478"/>
<rect x="288" y="76" width="56" height="4" fill="#C0B2A6"/>
<rect x="344" y="76" width="8" height="4" fill="#D9B48F"/>
<rect x="352" y="76" width="8" height="4" fill="#3A424D"/>
<rect x="360" y="76" width="8" height="4" fill="#D9B48F"/>
<rect x="368" y="76" width="16" height="4" fill="#C0B2A6"/>
<rect x="384" y="76" width="4" height="4" fill="#3A4048"/>
<rect x="388" y="76" width="124" height="4" fill="#C0B2A6"/>
<rect x="512" y="76" width="4" height="4" fill="#8A6B52"/>
<rect x="516" y="76" width="284" height="4" fill="#B49478"/>
<rect x="0" y="80" width="4" height="4" fill="#8A6B52"/>
<rect x="4" y="80" width="284" height="4" fill="#B49478"/>
<rect x="288" y="80" width="56" height="4" fill="#C0B2A6"/>
<rect x="344" y="80" width="8" height="4" fill="#D9B48F"/>
<rect x="352" y="80" width="8" height="4" fill="#3A424D"/>
<rect x="360" y="80" width="8" height="4" fill="#D9B48F"/>
<rect x="368" y="80" width="16" height="4" fill="#C0B2A6"/>
<rect x="384" y="80" width="4" height="4" fill="#3A4048"/>
<rect x="388" y="80" width="124" height="4" fill="#C0B2A6"/>
<rect x="512" y="80" width="4" height="4" fill="#8A6B52"/>
<rect x="516" y="80" width="284" height="4" fill="#B49478"/>
<rect x="0" y="84" width="4" height="4" fill="#8A6B52"/>
<rect x="4" y="84" width="60" height="4" fill="#B49478"/>
<rect x="64" y="84" width="32" height="4" fill="#9C7E64"/>
<rect x="96" y="84" width="192" height="4" fill="#B49478"/>
<rect x="288" y="84" width="56" height="4" fill="#C0B2A6"/>
<rect x="344" y="84" width="24" height="4" fill="#D9B48F"/>
<rect x="368" y="84" width="16" height="4" fill="#C0B2A6"/>
<rect x="384" y="84" width="4" height="4" fill="#3A4048"/>
<rect x="388" y="84" width="124" height="4" fill="#C0B2A6"/>
<rect x="512" y="84" width="4" height="4" fill="#8A6B52"/>
<rect x="516" y="84" width="60" height="4" fill="#B49478"/>
<rect x="576" y="84" width="32" height="4" fill="#9C7E64"/>
<rect x="608" y="84" width="192" height="4" fill="#B49478"/>
<rect x="0" y="88" width="4" height="4" fill="#8A6B52"/>
<rect x="4" y="88" width="284" height="4" fill="#B49478"/>
<rect x="288" y="88" width="56" height="4" fill="#C0B2A6"/>
<rect x="344" y="88" width="24" height="4" fill="#D9B48F"/>
<rect x="368" y="88" width="16" height="4" fill="#C0B2A6"/>
<rect x="384" y="88" width="4" height="4" fill="#3A4048"/>
<rect x="388" y="88" width="124" height="4" fill="#C0B2A6"/>
<rect x="512" y="88" width="4" height="4" fill="#8A6B52"/>
<rect x="516" y="88" width="284" height="4" fill="#B49478"/>
<rect x="0" y="92" width="4" height="4" fill="#8A6B52"/>
<rect x="4" y="92" width="284" height="4" fill="#B49478"/>
<rect x="288" y="92" width="48" height="4" fill="#C0B2A6"/>
<rect x="336" y="92" width="40" height="4" fill="#B9AE95"/>
<rect x="376" y="92" width="8" height="4" fill="#C0B2A6"/>
<rect x="384" y="92" width="4" height="4" fill="#3A4048"/>
<rect x="388" y="92" width="124" height="4" fill="#C0B2A6"/>
<rect x="512" y="92" width="4" height="4" fill="#8A6B52"/>
<rect x="516" y="92" width="284" height="4" fill="#B49478"/>
<rect x="0" y="96" width="4" height="4" fill="#8A6B52"/>
<rect x="4" y="96" width="284" height="4" fill="#B49478"/>
<rect x="288" y="96" width="48" height="4" fill="#C0B2A6"/>
<rect x="336" y="96" width="40" height="4" fill="#B9AE95"/>
<rect x="376" y="96" width="8" height="4" fill="#C0B2A6"/>
<rect x="384" y="96" width="4" height="4" fill="#3A4048"/>
<rect x="388" y="96" width="124" height="4" fill="#C0B2A6"/>
<rect x="512" y="96" width="4" height="4" fill="#8A6B52"/>
<rect x="516" y="96" width="284" height="4" fill="#B49478"/>
<rect x="0" y="100" width="4" height="4" fill="#8A6B52"/>
<rect x="4" y="100" width="284" height="4" fill="#B49478"/>
<rect x="288" y="100" width="48" height="4" fill="#C0B2A6"/>
<rect x="336" y="100" width="8" height="4" fill="#9C927B"/>
<rect x="344" y="100" width="24" height="4" fill="#B9AE95"/>
<rect x="368" y="100" width="16" height="4" fill="#C0B2A6"/>
<rect x="384" y="100" width="4" height="4" fill="#3A4048"/>
<rect x="388" y="100" width="124" height="4" fill="#C0B2A6"/>
<rect x="512" y="100" width="4" height="4" fill="#8A6B52"/>
<rect x="516" y="100" width="284" height="4" fill="#B49478"/>
<rect x="0" y="104" width="4" height="4" fill="#8A6B52"/>
<rect x="4" y="104" width="200" height="4" fill="#B49478"/>
<rect x="204" y="104" width="24" height="4" fill="#9C7E64"/>
<rect x="228" y="104" width="60" height="4" fill="#B49478"/>
<rect x="288" y="104" width="48" height="4" fill="#C0B2A6"/>
<rect x="336" y="104" width="8" height="4" fill="#9C927B"/>
<rect x="344" y="104" width="24" height="4" fill="#B9AE95"/>
<rect x="368" y="104" width="16" height="4" fill="#C0B2A6"/>
<rect x="384" y="104" width="4" height="4" fill="#3A4048"/>
<rect x="388" y="104" width="124" height="4" fill="#C0B2A6"/>
<rect x="512" y="104" width="4" height="4" fill="#8A6B52"/>
<rect x="516" y="104" width="200" height="4" fill="#B49478"/>
<rect x="716" y="104" width="24" height="4" fill="#9C7E64"/>
<rect x="740" y="104" width="60" height="4" fill="#B49478"/>
<rect x="0" y="108" width="4" height="4" fill="#8A6B52"/>
<rect x="4" y="108" width="284" height="4" fill="#B49478"/>
<rect x="288" y="108" width="40" height="4" fill="#C0B2A6"/>
<rect x="328" y="108" width="8" height="4" fill="#9C927B"/>
<rect x="336" y="108" width="8" height="4" fill="#C0B2A6"/>
<rect x="344" y="108" width="24" height="4" fill="#B9AE95"/>
<rect x="368" y="108" width="16" height="4" fill="#C0B2A6"/>
<rect x="384" y="108" width="4" height="4" fill="#3A4048"/>
<rect x="388" y="108" width="124" height="4" fill="#C0B2A6"/>
<rect x="512" y="108" width="4" height="4" fill="#8A6B52"/>
<rect x="516" y="108" width="284" height="4" fill="#B49478"/>
<rect x="0" y="112" width="4" height="4" fill="#8A6B52"/>
<rect x="4" y="112" width="28" height="4" fill="#B49478"/>
<rect x="32" y="112" width="12" height="4" fill="#8A6B52"/>
<rect x="44" y="112" width="244" height="4" fill="#B49478"/>
<rect x="288" y="112" width="40" height="4" fill="#C0B2A6"/>
<rect x="328" y="112" width="8" height="4" fill="#9C927B"/>
<rect x="336" y="112" width="8" height="4" fill="#C0B2A6"/>
<rect x="344" y="112" width="24" height="4" fill="#B9AE95"/>
<rect x="368" y="112" width="16" height="4" fill="#C0B2A6"/>
<rect x="384" y="112" width="4" height="4" fill="#3A4048"/>
<rect x="388" y="112" width="124" height="4" fill="#C0B2A6"/>
<rect x="512" y="112" width="4" height="4" fill="#8A6B52"/>
<rect x="516" y="112" width="28" height="4" fill="#B49478"/>
<rect x="544" y="112" width="12" height="4" fill="#8A6B52"/>
<rect x="556" y="112" width="244" height="4" fill="#B49478"/>
<rect x="0" y="116" width="4" height="4" fill="#8A6B52"/>
<rect x="4" y="116" width="284" height="4" fill="#B49478"/>
<rect x="288" y="116" width="32" height="4" fill="#C0B2A6"/>
<rect x="320" y="116" width="8" height="4" fill="#D9B48F"/>
<rect x="328" y="116" width="16" height="4" fill="#C0B2A6"/>
<rect x="344" y="116" width="24" height="4" fill="#9C927B"/>
<rect x="368" y="116" width="16" height="4" fill="#C0B2A6"/>
<rect x="384" y="116" width="4" height="4" fill="#3A4048"/>
<rect x="388" y="116" width="124" height="4" fill="#C0B2A6"/>
<rect x="512" y="116" width="4" height="4" fill="#8A6B52"/>
<rect x="516" y="116" width="284" height="4" fill="#B49478"/>
<rect x="0" y="120" width="4" height="4" fill="#8A6B52"/>
<rect x="4" y="120" width="284" height="4" fill="#B49478"/>
<rect x="288" y="120" width="32" height="4" fill="#DEC49F"/>
<rect x="320" y="120" width="8" height="4" fill="#D9B48F"/>
<rect x="328" y="120" width="16" height="4" fill="#DEC49F"/>
<rect x="344" y="120" width="24" height="4" fill="#9C927B"/>
<rect x="368" y="120" width="16" height="4" fill="#DEC49F"/>
<rect x="384" y="120" width="4" height="4" fill="#3A4048"/>
<rect x="388" y="120" width="124" height="4" fill="#DEC49F"/>
<rect x="512" y="120" width="4" height="4" fill="#8A6B52"/>
<rect x="516" y="120" width="284" height="4" fill="#B49478"/>
<rect x="0" y="124" width="4" height="4" fill="#8A6B52"/>
<rect x="4" y="124" width="88" height="4" fill="#B49478"/>
<rect x="92" y="124" width="16" height="4" fill="#9C7E64"/>
<rect x="108" y="124" width="180" height="4" fill="#B49478"/>
<rect x="288" y="124" width="8" height="4" fill="#DEC49F"/>
<rect x="296" y="124" width="8" height="4" fill="#3A4048"/>
<rect x="304" y="124" width="40" height="4" fill="#DEC49F"/>
<rect x="344" y="124" width="32" height="4" fill="#4A5258"/>
<rect x="376" y="124" width="8" height="4" fill="#DEC49F"/>
<rect x="384" y="124" width="4" height="4" fill="#3A4048"/>
<rect x="388" y="124" width="124" height="4" fill="#DEC49F"/>
<rect x="512" y="124" width="4" height="4" fill="#8A6B52"/>
<rect x="516" y="124" width="88" height="4" fill="#B49478"/>
<rect x="604" y="124" width="16" height="4" fill="#9C7E64"/>
<rect x="620" y="124" width="180" height="4" fill="#B49478"/>
<rect x="0" y="128" width="4" height="4" fill="#8A6B52"/>
<rect x="4" y="128" width="284" height="4" fill="#B49478"/>
<rect x="288" y="128" width="8" height="4" fill="#DEC49F"/>
<rect x="296" y="128" width="8" height="4" fill="#3A4048"/>
<rect x="304" y="128" width="40" height="4" fill="#DEC49F"/>
<rect x="344" y="128" width="32" height="4" fill="#4A5258"/>
<rect x="376" y="128" width="8" height="4" fill="#DEC49F"/>
<rect x="384" y="128" width="4" height="4" fill="#3A4048"/>
<rect x="388" y="128" width="124" height="4" fill="#DEC49F"/>
<rect x="512" y="128" width="4" height="4" fill="#8A6B52"/>
<rect x="516" y="128" width="284" height="4" fill="#B49478"/>
<rect x="0" y="132" width="4" height="4" fill="#8A6B52"/>
<rect x="4" y="132" width="284" height="4" fill="#B49478"/>
<rect x="288" y="132" width="32" height="4" fill="#DEC49F"/>
<rect x="320" y="132" width="56" height="4" fill="#4A5258"/>
<rect x="376" y="132" width="8" height="4" fill="#DEC49F"/>
<rect x="384" y="132" width="4" height="4" fill="#3A4048"/>
<rect x="388" y="132" width="124" height="4" fill="#DEC49F"/>
<rect x="512" y="132" width="4" height="4" fill="#8A6B52"/>
<rect x="516" y="132" width="284" height="4" fill="#B49478"/>
<rect x="0" y="136" width="4" height="4" fill="#8A6B52"/>
<rect x="4" y="136" width="284" height="4" fill="#B49478"/>
<rect x="288" y="136" width="32" height="4" fill="#DEC49F"/>
<rect x="320" y="136" width="56" height="4" fill="#4A5258"/>
<rect x="376" y="136" width="8" height="4" fill="#DEC49F"/>
<rect x="384" y="136" width="4" height="4" fill="#3A4048"/>
<rect x="388" y="136" width="124" height="4" fill="#DEC49F"/>
<rect x="512" y="136" width="4" height="4" fill="#8A6B52"/>
<rect x="516" y="136" width="284" height="4" fill="#B49478"/>
<rect x="0" y="140" width="4" height="4" fill="#8A6B52"/>
<rect x="4" y="140" width="284" height="4" fill="#B49478"/>
<rect x="288" y="140" width="24" height="4" fill="#DEC49F"/>
<rect x="312" y="140" width="24" height="4" fill="#4A5258"/>
<rect x="336" y="140" width="48" height="4" fill="#DEC49F"/>
<rect x="384" y="140" width="4" height="4" fill="#3A4048"/>
<rect x="388" y="140" width="124" height="4" fill="#DEC49F"/>
<rect x="512" y="140" width="4" height="4" fill="#8A6B52"/>
<rect x="516" y="140" width="284" height="4" fill="#B49478"/>
<rect x="0" y="144" width="4" height="4" fill="#8A6B52"/>
<rect x="4" y="144" width="228" height="4" fill="#B49478"/>
<rect x="232" y="144" width="32" height="4" fill="#9C7E64"/>
<rect x="264" y="144" width="24" height="4" fill="#B49478"/>
<rect x="288" y="144" width="24" height="4" fill="#DEC49F"/>
<rect x="312" y="144" width="24" height="4" fill="#4A5258"/>
<rect x="336" y="144" width="48" height="4" fill="#DEC49F"/>
<rect x="384" y="144" width="4" height="4" fill="#3A4048"/>
<rect x="388" y="144" width="124" height="4" fill="#DEC49F"/>
<rect x="512" y="144" width="4" height="4" fill="#8A6B52"/>
<rect x="516" y="144" width="228" height="4" fill="#B49478"/>
<rect x="744" y="144" width="32" height="4" fill="#9C7E64"/>
<rect x="776" y="144" width="24" height="4" fill="#B49478"/>
<rect x="0" y="148" width="4" height="4" fill="#8A6B52"/>
<rect x="4" y="148" width="284" height="4" fill="#B49478"/>
<rect x="288" y="148" width="8" height="4" fill="#DEC49F"/>
<rect x="296" y="148" width="24" height="4" fill="#4A4038"/>
<rect x="320" y="148" width="64" height="4" fill="#DEC49F"/>
<rect x="384" y="148" width="4" height="4" fill="#3A4048"/>
<rect x="388" y="148" width="124" height="4" fill="#DEC49F"/>
<rect x="512" y="148" width="4" height="4" fill="#8A6B52"/>
<rect x="516" y="148" width="284" height="4" fill="#B49478"/>
<rect x="0" y="152" width="4" height="4" fill="#8A6B52"/>
<rect x="4" y="152" width="148" height="4" fill="#B49478"/>
<rect x="152" y="152" width="12" height="4" fill="#8A6B52"/>
<rect x="164" y="152" width="124" height="4" fill="#B49478"/>
<rect x="288" y="152" width="8" height="4" fill="#DEC49F"/>
<rect x="296" y="152" width="24" height="4" fill="#4A4038"/>
<rect x="320" y="152" width="64" height="4" fill="#DEC49F"/>
<rect x="384" y="152" width="4" height="4" fill="#3A4048"/>
<rect x="388" y="152" width="124" height="4" fill="#DEC49F"/>
<rect x="512" y="152" width="4" height="4" fill="#8A6B52"/>
<rect x="516" y="152" width="148" height="4" fill="#B49478"/>
<rect x="664" y="152" width="12" height="4" fill="#8A6B52"/>
<rect x="676" y="152" width="124" height="4" fill="#B49478"/>
<rect x="0" y="156" width="4" height="4" fill="#8A6B52"/>
<rect x="4" y="156" width="284" height="4" fill="#B49478"/>
<rect x="288" y="156" width="96" height="4" fill="#DEC49F"/>
<rect x="384" y="156" width="4" height="4" fill="#3A4048"/>
<rect x="388" y="156" width="124" height="4" fill="#DEC49F"/>
<rect x="512" y="156" width="4" height="4" fill="#8A6B52"/>
<rect x="516" y="156" width="284" height="4" fill="#B49478"/>
<rect x="0" y="160" width="4" height="4" fill="#8A6B52"/>
<rect x="4" y="160" width="284" height="4" fill="#B49478"/>
<rect x="288" y="160" width="96" height="4" fill="#DEC49F"/>
<rect x="384" y="160" width="4" height="4" fill="#3A4048"/>
<rect x="388" y="160" width="124" height="4" fill="#DEC49F"/>
<rect x="512" y="160" width="4" height="4" fill="#8A6B52"/>
<rect x="516" y="160" width="284" height="4" fill="#B49478"/>
<rect x="0" y="164" width="4" height="4" fill="#8A6B52"/>
<rect x="4" y="164" width="116" height="4" fill="#B49478"/>
<rect x="120" y="164" width="24" height="4" fill="#9C7E64"/>
<rect x="144" y="164" width="144" height="4" fill="#B49478"/>
<rect x="288" y="164" width="96" height="4" fill="#DEC49F"/>
<rect x="384" y="164" width="4" height="4" fill="#3A4048"/>
<rect x="388" y="164" width="124" height="4" fill="#DEC49F"/>
<rect x="512" y="164" width="4" height="4" fill="#8A6B52"/>
<rect x="516" y="164" width="116" height="4" fill="#B49478"/>
<rect x="632" y="164" width="24" height="4" fill="#9C7E64"/>
<rect x="656" y="164" width="144" height="4" fill="#B49478"/>
<rect x="0" y="168" width="4" height="4" fill="#8A6B52"/>
<rect x="4" y="168" width="284" height="4" fill="#B49478"/>
<rect x="288" y="168" width="96" height="4" fill="#DEC49F"/>
<rect x="384" y="168" width="4" height="4" fill="#3A4048"/>
<rect x="388" y="168" width="124" height="4" fill="#DEC49F"/>
<rect x="512" y="168" width="4" height="4" fill="#8A6B52"/>
<rect x="516" y="168" width="284" height="4" fill="#B49478"/>
<rect x="0" y="172" width="4" height="4" fill="#8A6B52"/>
<rect x="4" y="172" width="284" height="4" fill="#B49478"/>
<rect x="288" y="172" width="96" height="4" fill="#C7D2DB"/>
<rect x="384" y="172" width="4" height="4" fill="#3A4048"/>
<rect x="388" y="172" width="124" height="4" fill="#C7D2DB"/>
<rect x="512" y="172" width="4" height="4" fill="#8A6B52"/>
<rect x="516" y="172" width="284" height="4" fill="#B49478"/>
<rect x="0" y="176" width="4" height="4" fill="#8A6B52"/>
<rect x="4" y="176" width="284" height="4" fill="#B49478"/>
<rect x="288" y="176" width="96" height="4" fill="#C7D2DB"/>
<rect x="384" y="176" width="4" height="4" fill="#3A4048"/>
<rect x="388" y="176" width="124" height="4" fill="#C7D2DB"/>
<rect x="512" y="176" width="4" height="4" fill="#8A6B52"/>
<rect x="516" y="176" width="284" height="4" fill="#B49478"/>
<rect x="0" y="180" width="4" height="4" fill="#8A6B52"/>
<rect x="4" y="180" width="284" height="4" fill="#B49478"/>
<rect x="288" y="180" width="96" height="4" fill="#C7D2DB"/>
<rect x="384" y="180" width="4" height="4" fill="#3A4048"/>
<rect x="388" y="180" width="124" height="4" fill="#C7D2DB"/>
<rect x="512" y="180" width="4" height="4" fill="#8A6B52"/>
<rect x="516" y="180" width="284" height="4" fill="#B49478"/>
<rect x="0" y="184" width="4" height="4" fill="#8A6B52"/>
<rect x="4" y="184" width="4" height="4" fill="#B49478"/>
<rect x="8" y="184" width="16" height="4" fill="#9C7E64"/>
<rect x="24" y="184" width="264" height="4" fill="#B49478"/>
<rect x="288" y="184" width="96" height="4" fill="#C7D2DB"/>
<rect x="384" y="184" width="4" height="4" fill="#3A4048"/>
<rect x="388" y="184" width="124" height="4" fill="#C7D2DB"/>
<rect x="512" y="184" width="4" height="4" fill="#8A6B52"/>
<rect x="516" y="184" width="4" height="4" fill="#B49478"/>
<rect x="520" y="184" width="16" height="4" fill="#9C7E64"/>
<rect x="536" y="184" width="264" height="4" fill="#B49478"/>
<rect x="0" y="188" width="4" height="4" fill="#8A6B52"/>
<rect x="4" y="188" width="284" height="4" fill="#B49478"/>
<rect x="288" y="188" width="96" height="4" fill="#C7D2DB"/>
<rect x="384" y="188" width="4" height="4" fill="#3A4048"/>
<rect x="388" y="188" width="124" height="4" fill="#C7D2DB"/>
<rect x="512" y="188" width="4" height="4" fill="#8A6B52"/>
<rect x="516" y="188" width="284" height="4" fill="#B49478"/>
<rect x="0" y="192" width="16" height="4" fill="#8A6B52"/>
<rect x="16" y="192" width="272" height="4" fill="#B49478"/>
<rect x="288" y="192" width="96" height="4" fill="#C7D2DB"/>
<rect x="384" y="192" width="4" height="4" fill="#3A4048"/>
<rect x="388" y="192" width="124" height="4" fill="#C7D2DB"/>
<rect x="512" y="192" width="16" height="4" fill="#8A6B52"/>
<rect x="528" y="192" width="272" height="4" fill="#B49478"/>
<rect x="0" y="196" width="4" height="4" fill="#8A6B52"/>
<rect x="4" y="196" width="284" height="4" fill="#B49478"/>
<rect x="288" y="196" width="96" height="4" fill="#C7D2DB"/>
<rect x="384" y="196" width="4" height="4" fill="#3A4048"/>
<rect x="388" y="196" width="124" height="4" fill="#C7D2DB"/>
<rect x="512" y="196" width="4" height="4" fill="#8A6B52"/>
<rect x="516" y="196" width="284" height="4" fill="#B49478"/>
<rect x="0" y="200" width="4" height="4" fill="#8A6B52"/>
<rect x="4" y="200" width="284" height="4" fill="#B49478"/>
<rect x="288" y="200" width="96" height="4" fill="#C7D2DB"/>
<rect x="384" y="200" width="4" height="4" fill="#3A4048"/>
<rect x="388" y="200" width="124" height="4" fill="#C7D2DB"/>
<rect x="512" y="200" width="4" height="4" fill="#8A6B52"/>
<rect x="516" y="200" width="284" height="4" fill="#B49478"/>
<rect x="0" y="204" width="4" height="4" fill="#8A6B52"/>
<rect x="4" y="204" width="144" height="4" fill="#B49478"/>
<rect x="148" y="204" width="32" height="4" fill="#9C7E64"/>
<rect x="180" y="204" width="108" height="4" fill="#B49478"/>
<rect x="288" y="204" width="224" height="4" fill="#C7D2DB"/>
<rect x="512" y="204" width="4" height="4" fill="#8A6B52"/>
<rect x="516" y="204" width="144" height="4" fill="#B49478"/>
<rect x="660" y="204" width="32" height="4" fill="#9C7E64"/>
<rect x="692" y="204" width="108" height="4" fill="#B49478"/>
<rect x="0" y="208" width="4" height="4" fill="#8A6B52"/>
<rect x="4" y="208" width="284" height="4" fill="#B49478"/>
<rect x="288" y="208" width="224" height="4" fill="#C7D2DB"/>
<rect x="512" y="208" width="4" height="4" fill="#8A6B52"/>
<rect x="516" y="208" width="284" height="4" fill="#B49478"/>
<rect x="0" y="212" width="4" height="4" fill="#8A6B52"/>
<rect x="4" y="212" width="284" height="4" fill="#B49478"/>
<rect x="288" y="212" width="224" height="4" fill="#C7D2DB"/>
<rect x="512" y="212" width="4" height="4" fill="#8A6B52"/>
<rect x="516" y="212" width="284" height="4" fill="#B49478"/>
<rect x="0" y="216" width="4" height="4" fill="#8A6B52"/>
<rect x="4" y="216" width="284" height="4" fill="#B49478"/>
<rect x="288" y="216" width="224" height="4" fill="#C7D2DB"/>
<rect x="512" y="216" width="4" height="4" fill="#8A6B52"/>
<rect x="516" y="216" width="284" height="4" fill="#B49478"/>
<rect x="0" y="220" width="4" height="4" fill="#8A6B52"/>
<rect x="4" y="220" width="284" height="4" fill="#B49478"/>
<rect x="288" y="220" width="224" height="4" fill="#C7D2DB"/>
<rect x="512" y="220" width="4" height="4" fill="#8A6B52"/>
<rect x="516" y="220" width="284" height="4" fill="#B49478"/>
<rect x="0" y="224" width="4" height="4" fill="#8A6B52"/>
<rect x="4" y="224" width="32" height="4" fill="#B49478"/>
<rect x="36" y="224" width="24" height="4" fill="#9C7E64"/>
<rect x="60" y="224" width="228" height="4" fill="#B49478"/>
<rect x="288" y="224" width="224" height="4" fill="#C7D2DB"/>
<rect x="512" y="224" width="4" height="4" fill="#8A6B52"/>
<rect x="516" y="224" width="32" height="4" fill="#B49478"/>
<rect x="548" y="224" width="24" height="4" fill="#9C7E64"/>
<rect x="572" y="224" width="228" height="4" fill="#B49478"/>
<rect x="0" y="228" width="4" height="4" fill="#8A6B52"/>
<rect x="4" y="228" width="284" height="4" fill="#B49478"/>
<rect x="288" y="228" width="224" height="4" fill="#C7D2DB"/>
<rect x="512" y="228" width="4" height="4" fill="#8A6B52"/>
<rect x="516" y="228" width="284" height="4" fill="#B49478"/>
<rect x="0" y="232" width="4" height="4" fill="#8A6B52"/>
<rect x="4" y="232" width="120" height="4" fill="#B49478"/>
<rect x="124" y="232" width="12" height="4" fill="#8A6B52"/>
<rect x="136" y="232" width="152" height="4" fill="#B49478"/>
<rect x="288" y="232" width="224" height="4" fill="#C7D2DB"/>
<rect x="512" y="232" width="4" height="4" fill="#8A6B52"/>
<rect x="516" y="232" width="120" height="4" fill="#B49478"/>
<rect x="636" y="232" width="12" height="4" fill="#8A6B52"/>
<rect x="648" y="232" width="152" height="4" fill="#B49478"/>
<rect x="0" y="236" width="4" height="4" fill="#8A6B52"/>
<rect x="4" y="236" width="284" height="4" fill="#B49478"/>
<rect x="288" y="236" width="224" height="4" fill="#CDBD8E"/>
<rect x="512" y="236" width="4" height="4" fill="#8A6B52"/>
<rect x="516" y="236" width="284" height="4" fill="#B49478"/>
<rect x="0" y="240" width="4" height="4" fill="#8A6B52"/>
<rect x="4" y="240" width="284" height="4" fill="#B49478"/>
<rect x="288" y="240" width="224" height="4" fill="#CDBD8E"/>
<rect x="512" y="240" width="4" height="4" fill="#8A6B52"/>
<rect x="516" y="240" width="284" height="4" fill="#B49478"/>
<rect x="0" y="244" width="4" height="4" fill="#8A6B52"/>
<rect x="4" y="244" width="172" height="4" fill="#B49478"/>
<rect x="176" y="244" width="16" height="4" fill="#9C7E64"/>
<rect x="192" y="244" width="96" height="4" fill="#B49478"/>
<rect x="288" y="244" width="224" height="4" fill="#E2D4AC"/>
<rect x="512" y="244" width="4" height="4" fill="#8A6B52"/>
<rect x="516" y="244" width="172" height="4" fill="#B49478"/>
<rect x="688" y="244" width="16" height="4" fill="#9C7E64"/>
<rect x="704" y="244" width="96" height="4" fill="#B49478"/>
<rect x="0" y="248" width="288" height="4" fill="#8A6B52"/>
<rect x="288" y="248" width="224" height="4" fill="#E2D4AC"/>
<rect x="512" y="248" width="288" height="4" fill="#8A6B52"/>
<rect x="0" y="252" width="800" height="4" fill="#E2D4AC"/>
<rect x="0" y="256" width="800" height="4" fill="#E2D4AC"/>
<rect x="0" y="260" width="800" height="4" fill="#E2D4AC"/>
<rect x="0" y="264" width="800" height="4" fill="#E2D4AC"/>
<rect x="0" y="268" width="296" height="4" fill="#E2D4AC"/>
<rect x="296" y="268" width="8" height="4" fill="#B5A57F"/>
<rect x="304" y="268" width="496" height="4" fill="#E2D4AC"/>
<rect x="0" y="272" width="28" height="4" fill="#E2D4AC"/>
<rect x="28" y="272" width="8" height="4" fill="#B5A57F"/>
<rect x="36" y="272" width="764" height="4" fill="#E2D4AC"/>
<rect x="0" y="276" width="572" height="4" fill="#E2D4AC"/>
<rect x="572" y="276" width="8" height="4" fill="#B5A57F"/>
<rect x="580" y="276" width="220" height="4" fill="#E2D4AC"/>
<rect x="0" y="280" width="768" height="4" fill="#E2D4AC"/>
<rect x="768" y="280" width="8" height="4" fill="#C8B990"/>
<rect x="776" y="280" width="24" height="4" fill="#E2D4AC"/>
<rect x="0" y="284" width="164" height="4" fill="#E2D4AC"/>
<rect x="164" y="284" width="8" height="4" fill="#B5A57F"/>
<rect x="172" y="284" width="628" height="4" fill="#E2D4AC"/>
<rect x="0" y="288" width="432" height="4" fill="#E2D4AC"/>
<rect x="432" y="288" width="8" height="4" fill="#B5A57F"/>
<rect x="440" y="288" width="360" height="4" fill="#E2D4AC"/>
<rect x="0" y="292" width="800" height="4" fill="#E2D4AC"/>
<rect x="0" y="296" width="800" height="4" fill="#E2D4AC"/>
</svg>