<svg xmlns="http://www.w3.org/2000/svg" viewBox="0 0 800 300" role="img" aria-label="Pixel art of an angler in waders casting a fly line across a mountain river" shape-rendering="crispEdges">
<!-- generated by tools/niche_pixel.py; edit the generator, not these rects -->
<rect x="0" y="0" width="800" height="4" fill="#C7D2DB"/>
<rect x="0" y="4" width="800" height="4" fill="#C7D2DB"/>
<rect x="0" y="8" width="800" height="4" fill="#C7D2DB"/>
<rect x="0" y="12" width="800" height="4" fill="#C7D2DB"/>
<rect x="0" y="16" width="800" height="4" fill="#C7D2DB"/>
<rect x="0" y="20" width="800" height="4" fill="#C7D2DB"/>
<rect x="0" y="24" width="220" height="4" fill="#C7D2DB"/>
<rect x="220" y="24" width="40" height="4" fill="#EFF2F1"/>
<rect x="260" y="24" width="348" height="4" fill="#C7D2DB"/>
<rect x="608" y="24" width="24" height="4" fill="#EFF2F1"/>
<rect x="632" y="24" width="168" height="4" fill="#C7D2DB"/>
<rect x="0" y="28" width="220" height="4" fill="#C7D2DB"/>
<rect x="220" y="28" width="40" height="4" fill="#EFF2F1"/>
<rect x="260" y="28" width="348" height="4" fill="#C7D2DB"/>
<rect x="608" y="28" width="24" height="4" fill="#EFF2F1"/>
<rect x="632" y="28" width="168" height="4" fill="#C7D2DB"/>
<rect x="0" y="32" width="208" height="4" fill="#C7D2DB"/>
<rect x="208" y="32" width="64" height="4" fill="#EFF2F1"/>
<rect x="272" y="32" width="324" height="4" fill="#C7D2DB"/>
<rect x="596" y="32" width="48" height="4" fill="#EFF2F1"/>
<rect x="644" y="32" width="156" height="4" fill="#C7D2DB"/>
<rect x="0" y="36" width="208" height="4" fill="#C7D2DB"/>
<rect x="208" y="36" width="64" height="4" fill="#EFF2F1"/>
<rect x="272" y="36" width="324" height="4" fill="#C7D2DB"/>
<rect x="596" y="36" width="48" height="4" fill="#EFF2F1"/>
<rect x="644" y="36" width="156" height="4" fill="#C7D2DB"/>
<rect x="0" y="40" width="216" height="4" fill="#C7D2DB"/>
<rect x="216" y="40" width="72" height="4" fill="#D9DFDE"/>
<rect x="288" y="40" width="316" height="4" fill="#C7D2DB"/>
<rect x="604" y="40" width="56" height="4" fill="#D9DFDE"/>
<rect x="660" y="40" width="140" height="4" fill="#C7D2DB"/>
<rect x="0" y="44" width="800" height="4" fill="#C7D2DB"/>
<rect x="0" y="48" width="800" height="4" fill="#C7D2DB"/>
<rect x="0" y="52" width="800" height="4" fill="#C7D2DB"/>
<rect x="0" y="56" width="800" height="4" fill="#C7D2DB"/>
<rect x="0" y="60" width="800" height="4" fill="#C7D2DB"/>
<rect x="0" y="64" width="800" height="4" fill="#C7D2DB"/>
<rect x="0" y="68" width="800" height="4" fill="#C7D2DB"/>
<rect x="0" y="72" width="800" height="4" fill="#D2DAD8"/>
<rect x="0" y="76" width="800" height="4" fill="#D2DAD8"/>
<rect x="0" y="80" width="800" height="4" fill="#D2DAD8"/>
<rect x="0" y="84" width="800" height="4" fill="#D2DAD8"/>
<rect x="0" y="88" width="260" height="4" fill="#D2DAD8"/>
<rect x="260" y="88" width="56" height="4" fill="#909880"/>
<rect x="316" y="88" width="484" height="4" fill="#D2DAD8"/>
<rect x="0" y="92" width="212" height="4" fill="#D2DAD8"/>
<rect x="212" y="92" width="48" height="4" fill="#909880"/>
<rect x="260" y="92" width="56" height="4" fill="#A8AF97"/>
<rect x="316" y="92" width="60" height="4" fill="#909880"/>
<rect x="376" y="92" width="424" height="4" fill="#D2DAD8"/>
<rect x="0" y="96" width="164" height="4" fill="#D2DAD8"/>
<rect x="164" y="96" width="48" height="4" fill="#909880"/>
<rect x="212" y="96" width="164" height="4" fill="#A8AF97"/>
<rect x="376" y="96" width="68" height="4" fill="#909880"/>
<rect x="444" y="96" width="320" height="4" fill="#D2DAD8"/>
<rect x="764" y="96" width="36" height="4" fill="#909880"/>
<rect x="0" y="100" width="120" height="4" fill="#D2DAD8"/>
<rect x="120" y="100" width="44" height="4" fill="#909880"/>
<rect x="164" y="100" width="280" height="4" fill="#A8AF97"/>
<rect x="444" y="100" width="60" height="4" fill="#909880"/>
<rect x="504" y="100" width="196" height="4" fill="#D2DAD8"/>
<rect x="700" y="100" width="64" height="4" fill="#909880"/>
<rect x="764" y="100" width="36" height="4" fill="#A8AF97"/>
<rect x="0" y="104" width="72" height="4" fill="#D2DAD8"/>
<rect x="72" y="104" width="48" height="4" fill="#909880"/>
<rect x="120" y="104" width="384" height="4" fill="#A8AF97"/>
<rect x="504" y="104" width="68" height="4" fill="#909880"/>
<rect x="572" y="104" width="64" height="4" fill="#D2DAD8"/>
<rect x="636" y="104" width="64" height="4" fill="#909880"/>
<rect x="700" y="104" width="100" height="4" fill="#A8AF97"/>
<rect x="0" y="108" width="24" height="4" fill="#D2DAD8"/>
<rect x="24" y="108" width="48" height="4" fill="#909880"/>
<rect x="72" y="108" width="148" height="4" fill="#A8AF97"/>
<rect x="220" y="108" width="4" height="4" fill="#52654B"/>
<rect x="224" y="108" width="104" height="4" fill="#A8AF97"/>
<rect x="328" y="108" width="24" height="4" fill="#6B7A58"/>
<rect x="352" y="108" width="220" height="4" fill="#A8AF97"/>
<rect x="572" y="108" width="8" height="4" fill="#909880"/>
<rect x="580" y="108" width="4" height="4" fill="#52654B"/>
<rect x="584" y="108" width="52" height="4" fill="#909880"/>
<rect x="636" y="108" width="164" height="4" fill="#A8AF97"/>
<rect x="0" y="112" width="24" height="4" fill="#909880"/>
<rect x="24" y="112" width="56" height="4" fill="#A8AF97"/>
<rect x="80" y="112" width="4" height="4" fill="#52654B"/>
<rect x="84" y="112" width="136" height="4" fill="#A8AF97"/>
<rect x="220" y="112" width="4" height="4" fill="#3E4F39"/>
<rect x="224" y="112" width="104" height="4" fill="#A8AF97"/>
<rect x="328" y="112" width="24" height="4" fill="#6B7A58"/>
<rect x="352" y="112" width="88" height="4" fill="#A8AF97"/>
<rect x="440" y="112" width="4" height="4" fill="#52654B"/>
<rect x="444" y="112" width="136" height="4" fill="#A8AF97"/>
<rect x="580" y="112" width="4" height="4" fill="#3E4F39"/>
<rect x="584" y="112" width="112" height="4" fill="#A8AF97"/>
<rect x="696" y="112" width="4" height="4" fill="#52654B"/>
<rect x="700" y="112" width="100" height="4" fill="#A8AF97"/>
<rect x="0" y="116" width="80" height="4" fill="#A8AF97"/>
<rect x="80" y="116" width="4" height="4" fill="#3E4F39"/>
<rect x="84" y="116" width="72" height="4" fill="#A8AF97"/>
<rect x="156" y="116" width="4" height="4" fill="#52654B"/>
<rect x="160" y="116" width="56" height="4" fill="#A8AF97"/>
<rect x="216" y="116" width="12" height="4" fill="#52654B"/>
<rect x="228" y="116" width="92" height="4" fill="#A8AF97"/>
<rect x="320" y="116" width="40" height="4" fill="#9C927B"/>
<rect x="360" y="116" width="64" height="4" fill="#A8AF97"/>
<rect x="424" y="116" width="24" height="4" fill="#EFF2F1"/>
<rect x="448" y="116" width="68" height="4" fill="#A8AF97"/>
<rect x="516" y="116" width="4" height="4" fill="#52654B"/>
<rect x="520" y="116" width="56" height="4" fill="#A8AF97"/>
<rect x="576" y="116" width="12" height="4" fill="#52654B"/>
<rect x="588" y="116" width="108" height="4" fill="#A8AF97"/>
<rect x="696" y="116" width="4" height="4" fill="#3E4F39"/>
<rect x="700" y="116" width="100" height="4" fill="#A8AF97"/>
<rect x="0" y="120" width="12" height="4" fill="#A8AF97"/>
<rect x="12" y="120" width="4" height="4" fill="#52654B"/>
<rect x="16" y="120" width="60" height="4" fill="#A8AF97"/>
<rect x="76" y="120" width="12" height="4" fill="#52654B"/>
<rect x="88" y="120" width="68" height="4" fill="#A8AF97"/>
<rect x="156" y="120" width="4" height="4" fill="#3E4F39"/>
<rect x="160" y="120" width="56" height="4" fill="#A8AF97"/>
<rect x="216" y="120" width="12" height="4" fill="#3E4F39"/>
<rect x="228" y="120" width="32" height="4" fill="#A8AF97"/>
<rect x="260" y="120" width="4" height="4" fill="#52654B"/>
<rect x="264" y="120" width="56" height="4" fill="#A8AF97"/>
<rect x="320" y="120" width="40" height="4" fill="#9C927B"/>
<rect x="360" y="120" width="12" height="4" fill="#A8AF97"/>
<rect x="372" y="120" width="4" height="4" fill="#52654B"/>
<rect x="376" y="120" width="60" height="4" fill="#A8AF97"/>
<rect x="436" y="120" width="12" height="4" fill="#52654B"/>
<rect x="448" y="120" width="12" height="4" fill="#EFF2F1"/>
<rect x="460" y="120" width="56" height="4" fill="#A8AF97"/>
<rect x="516" y="120" width="4" height="4" fill="#3E4F39"/>
<rect x="520" y="120" width="56" height="4" fill="#A8AF97"/>
<rect x="576" y="120" width="12" height="4" fill="#3E4F39"/>
<rect x="588" y="120" width="32" height="4" fill="#A8AF97"/>
<rect x="620" y="120" width="4" height="4" fill="#52654B"/>
<rect x="624" y="120" width="68" height="4" fill="#A8AF97"/>
<rect x="692" y="120" width="12" height="4" fill="#52654B"/>
<rect x="704" y="120" width="28" height="4" fill="#A8AF97"/>
<rect x="732" y="120" width="4" height="4" fill="#52654B"/>
<rect x="736" y="120" width="64" height="4" fill="#A8AF97"/>
<rect x="0" y="124" width="12" height="4" fill="#A8AF97"/>
<rect x="12" y="124" width="4" height="4" fill="#3E4F39"/>
<rect x="16" y="124" width="60" height="4" fill="#A8AF97"/>
<rect x="76" y="124" width="12" height="4" fill="#3E4F39"/>
<rect x="88" y="124" width="24" height="4" fill="#A8AF97"/>
<rect x="112" y="124" width="4" height="4" fill="#52654B"/>
<rect x="116" y="124" width="36" height="4" fill="#A8AF97"/>
<rect x="152" y="124" width="12" height="4" fill="#52654B"/>
<rect x="164" y="124" width="48" height="4" fill="#A8AF97"/>
<rect x="212" y="124" width="20" height="4" fill="#52654B"/>
<rect x="232" y="124" width="28" height="4" fill="#A8AF97"/>
<rect x="260" y="124" width="4" height="4" fill="#3E4F39"/>
<rect x="264" y="124" width="28" height="4" fill="#A8AF97"/>
<rect x="292" y="124" width="4" height="4" fill="#52654B"/>
<rect x="296" y="124" width="32" height="4" fill="#A8AF97"/>
<rect x="328" y="124" width="8" height="4" fill="#D9B48F"/>
<rect x="336" y="124" width="8" height="4" fill="#3A424D"/>
<rect x="344" y="124" width="8" height="4" fill="#D9B48F"/>
<rect x="352" y="124" width="20" height="4" fill="#A8AF97"/>
<rect x="372" y="124" width="4" height="4" fill="#3E4F39"/>
<rect x="376" y="124" width="32" height="4" fill="#A8AF97"/>
<rect x="408" y="124" width="16" height="4" fill="#3A4048"/>
<rect x="424" y="124" width="12" height="4" fill="#A8AF97"/>
<rect x="436" y="124" width="12" height="4" fill="#3E4F39"/>
<rect x="448" y="124" width="12" height="4" fill="#A8AF97"/>
<rect x="460" y="124" width="8" height="4" fill="#EFF2F1"/>
<rect x="468" y="124" width="4" height="4" fill="#A8AF97"/>
<rect x="472" y="124" width="4" height="4" fill="#52654B"/>
<rect x="476" y="124" width="36" height="4" fill="#A8AF97"/>
<rect x="512" y="124" width="12" height="4" fill="#52654B"/>
<rect x="524" y="124" width="48" height="4" fill="#A8AF97"/>
<rect x="572" y="124" width="20" height="4" fill="#52654B"/>
<rect x="592" y="124" width="28" height="4" fill="#A8AF97"/>
<rect x="620" y="124" width="4" height="4" fill="#3E4F39"/>
<rect x="624" y="124" width="28" height="4" fill="#A8AF97"/>
<rect x="652" y="124" width="4" height="4" fill="#52654B"/>
<rect x="656" y="124" width="36" height="4" fill="#A8AF97"/>
<rect x="692" y="124" width="12" height="4" fill="#3E4F39"/>
<rect x="704" y="124" width="28" height="4" fill="#A8AF97"/>
<rect x="732" y="124" width="4" height="4" fill="#3E4F39"/>
<rect x="736" y="124" width="64" height="4" fill="#A8AF97"/>
<rect x="0" y="128" width="8" height="4" fill="#A8AF97"/>
<rect x="8" y="128" width="12" height="4" fill="#52654B"/>
<rect x="20" y="128" width="20" height="4" fill="#A8AF97"/>
<rect x="40" y="128" width="4" height="4" fill="#52654B"/>
<rect x="44" y="128" width="28" height="4" fill="#A8AF97"/>
<rect x="72" y="128" width="20" height="4" fill="#52654B"/>
<rect x="92" y="128" width="20" height="4" fill="#A8AF97"/>
<rect x="112" y="128" width="4" height="4" fill="#3E4F39"/>
<rect x="116" y="128" width="36" height="4" fill="#A8AF97"/>
<rect x="152" y="128" width="12" height="4" fill="#3E4F39"/>
<rect x="164" y="128" width="28" height="4" fill="#A8AF97"/>
<rect x="192" y="128" width="4" height="4" fill="#52654B"/>
<rect x="196" y="128" width="16" height="4" fill="#A8AF97"/>
<rect x="212" y="128" width="20" height="4" fill="#3E4F39"/>
<rect x="232" y="128" width="24" height="4" fill="#A8AF97"/>
<rect x="256" y="128" width="12" height="4" fill="#52654B"/>
<rect x="268" y="128" width="24" height="4" fill="#A8AF97"/>
<rect x="292" y="128" width="4" height="4" fill="#3E4F39"/>
<rect x="296" y="128" width="32" height="4" fill="#A8AF97"/>
<rect x="328" y="128" width="8" height="4" fill="#D9B48F"/>
<rect x="336" y="128" width="8" height="4" fill="#3A424D"/>
<rect x="344" y="128" width="8" height="4" fill="#D9B48F"/>
<rect x="352" y="128" width="16" height="4" fill="#A8AF97"/>
<rect x="368" y="128" width="12" height="4" fill="#52654B"/>
<rect x="380" y="128" width="20" height="4" fill="#A8AF97"/>
<rect x="400" y="128" width="4" height="4" fill="#52654B"/>
<rect x="404" y="128" width="4" height="4" fill="#A8AF97"/>
<rect x="408" y="128" width="16" height="4" fill="#3A4048"/>
<rect x="424" y="128" width="8" height="4" fill="#A8AF97"/>
<rect x="432" y="128" width="20" height="4" fill="#52654B"/>
<rect x="452" y="128" width="16" height="4" fill="#A8AF97"/>
<rect x="468" y="128" width="4" height="4" fill="#EFF2F1"/>
<rect x="472" y="128" width="4" height="4" fill="#3E4F39"/>
<rect x="476" y="128" width="36" height="4" fill="#A8AF97"/>
<rect x="512" y="128" width="12" height="4" fill="#3E4F39"/>
<rect x="524" y="128" width="28" height="4" fill="#A8AF97"/>
<rect x="552" y="128" width="4" height="4" fill="#52654B"/>
<rect x="556" y="128" width="16" height="4" fill="#A8AF97"/>
<rect x="572" y="128" width="20" height="4" fill="#3E4F39"/>
<rect x="592" y="128" width="24" height="4" fill="#A8AF97"/>
<rect x="616" y="128" width="12" height="4" fill="#52654B"/>
<rect x="628" y="128" width="24" height="4" fill="#A8AF97"/>
<rect x="652" y="128" width="4" height="4" fill="#3E4F39"/>
<rect x="656" y="128" width="32" height="4" fill="#A8AF97"/>
<rect x="688" y="128" width="20" height="4" fill="#52654B"/>
<rect x="708" y="128" width="20" height="4" fill="#A8AF97"/>
<rect x="728" y="128" width="12" height="4" fill="#52654B"/>
<rect x="740" y="128" width="20" height="4" fill="#A8AF97"/>
<rect x="760" y="128" width="4" height="4" fill="#52654B"/>
<rect x="764" y="128" width="36" height="4" fill="#A8AF97"/>
<rect x="0" y="132" width="8" height="4" fill="#A8AF97"/>
<rect x="8" y="132" width="12" height="4" fill="#3E4F39"/>
<rect x="20" y="132" width="20" height="4" fill="#A8AF97"/>
<rect x="40" y="132" width="4" height="4" fill="#3E4F39"/>
<rect x="44" y="132" width="28" height="4" fill="#A8AF97"/>
<rect x="72" y="132" width="20" height="4" fill="#3E4F39"/>
<rect x="92" y="132" width="16" height="4" fill="#A8AF97"/>
<rect x="108" y="132" width="12" height="4" fill="#52654B"/>
<rect x="120" y="132" width="28" height="4" fill="#A8AF97"/>
<rect x="148" y="132" width="20" height="4" fill="#52654B"/>
<rect x="168" y="132" width="24" height="4" fill="#A8AF97"/>
<rect x="192" y="132" width="4" height="4" fill="#3E4F39"/>
<rect x="196" y="132" width="12" height="4" fill="#A8AF97"/>
<rect x="208" y="132" width="28" height="4" fill="#52654B"/>
<rect x="236" y="132" width="20" height="4" fill="#A8AF97"/>
<rect x="256" y="132" width="12" height="4" fill="#3E4F39"/>
<rect x="268" y="132" width="20" height="4" fill="#A8AF97"/>
<rect x="288" y="132" width="12" height="4" fill="#52654B"/>
<rect x="300" y="132" width="28" height="4" fill="#A8AF97"/>
<rect x="328" y="132" width="24" height="4" fill="#D9B48F"/>
<rect x="352" y="132" width="16" height="4" fill="#A8AF97"/>
<rect x="368" y="132" width="12" height="4" fill="#3E4F39"/>
<rect x="380" y="132" width="12" height="4" fill="#A8AF97"/>
<rect x="392" y="132" width="16" height="4" fill="#3A4048"/>
<rect x="408" y="132" width="24" height="4" fill="#A8AF97"/>
<rect x="432" y="132" width="20" height="4" fill="#3E4F39"/>
<rect x="452" y="132" width="16" height="4" fill="#A8AF97"/>
<rect x="468" y="132" width="4" height="4" fill="#52654B"/>
<rect x="472" y="132" width="8" height="4" fill="#EFF2F1"/>
<rect x="480" y="132" width="28" height="4" fill="#A8AF97"/>
<rect x="508" y="132" width="20" height="4" fill="#52654B"/>
<rect x="528" y="132" width="24" height="4" fill="#A8AF97"/>
<rect x="552" y="132" width="4" height="4" fill="#3E4F39"/>
<rect x="556" y="132" width="12" height="4" fill="#A8AF97"/>
<rect x="568" y="132" width="28" height="4" fill="#52654B"/>
<rect x="596" y="132" width="20" height="4" fill="#A8AF97"/>
<rect x="616" y="132" width="12" height="4" fill="#3E4F39"/>
<rect x="628" y="132" width="20" height="4" fill="#A8AF97"/>
<rect x="648" y="132" width="12" height="4" fill="#52654B"/>
<rect x="660" y="132" width="28" height="4" fill="#A8AF97"/>
<rect x="688" y="132" width="20" height="4" fill="#3E4F39"/>
<rect x="708" y="132" width="20" height="4" fill="#A8AF97"/>
<rect x="728" y="132" width="12" height="4" fill="#3E4F39"/>
<rect x="740" y="132" width="20" height="4" fill="#A8AF97"/>
<rect x="760" y="132" width="4" height="4" fill="#3E4F39"/>
<rect x="764" y="132" width="36" height="4" fill="#A8AF97"/>
<rect x="0" y="136" width="4" height="4" fill="#A8AF97"/>
<rect x="4" y="136" width="20" height="4" fill="#52654B"/>
<rect x="24" y="136" width="12" height="4" fill="#A8AF97"/>
<rect x="36" y="136" width="12" height="4" fill="#52654B"/>
<rect x="48" y="136" width="20" height="4" fill="#A8AF97"/>
<rect x="68" y="136" width="28" height="4" fill="#52654B"/>
<rect x="96" y="136" width="12" height="4" fill="#A8AF97"/>
<rect x="108" y="136" width="12" height="4" fill="#3E4F39"/>
<rect x="120" y="136" width="28" height="4" fill="#A8AF97"/>
<rect x="148" y="136" width="20" height="4" fill="#3E4F39"/>
<rect x="168" y="136" width="20" height="4" fill="#A8AF97"/>
<rect x="188" y="136" width="12" height="4" fill="#52654B"/>
<rect x="200" y="136" width="8" height="4" fill="#A8AF97"/>
<rect x="208" y="136" width="28" height="4" fill="#3E4F39"/>
<rect x="236" y="136" width="16" height="4" fill="#A8AF97"/>
<rect x="252" y="136" width="20" height="4" fill="#52654B"/>
<rect x="272" y="136" width="16" height="4" fill="#A8AF97"/>
<rect x="288" y="136" width="12" height="4" fill="#3E4F39"/>
<rect x="300" y="136" width="24" height="4" fill="#A8AF97"/>
<rect x="324" y="136" width="4" height="4" fill="#52654B"/>
<rect x="328" y="136" width="24" height="4" fill="#D9B48F"/>
<rect x="352" y="136" width="12" height="4" fill="#A8AF97"/>
<rect x="364" y="136" width="20" height="4" fill="#52654B"/>
<rect x="384" y="136" width="8" height="4" fill="#A8AF97"/>
<rect x="392" y="136" width="16" height="4" fill="#3A4048"/>
<rect x="408" y="136" width="20" height="4" fill="#A8AF97"/>
<rect x="428" y="136" width="28" height="4" fill="#52654B"/>
<rect x="456" y="136" width="12" height="4" fill="#A8AF97"/>
<rect x="468" y="136" width="12" height="4" fill="#3E4F39"/>
<rect x="480" y="136" width="4" height="4" fill="#EFF2F1"/>
<rect x="484" y="136" width="24" height="4" fill="#A8AF97"/>
<rect x="508" y="136" width="20" height="4" fill="#3E4F39"/>
<rect x="528" y="136" width="20" height="4" fill="#A8AF97"/>
<rect x="548" y="136" width="12" height="4" fill="#52654B"/>
<rect x="560" y="136" width="8" height="4" fill="#A8AF97"/>
<rect x="568" y="136" width="28" height="4" fill="#3E4F39"/>
<rect x="596" y="136" width="16" height="4" fill="#A8AF97"/>
<rect x="612" y="136" width="20" height="4" fill="#52654B"/>
<rect x="632" y="136" width="16" height="4" fill="#A8AF97"/>
<rect x="648" y="136" width="12" height="4" fill="#3E4F39"/>
<rect x="660" y="136" width="24" height="4" fill="#A8AF97"/>
<rect x="684" y="136" width="28" height="4" fill="#52654B"/>
<rect x="712" y="136" width="12" height="4" fill="#A8AF97"/>
<rect x="724" y="136" width="20" height="4" fill="#52654B"/>
<rect x="744" y="136" width="12" height="4" fill="#A8AF97"/>
<rect x="756" y="136" width="12" height="4" fill="#52654B"/>
<rect x="768" y="136" width="32" height="4" fill="#A8AF97"/>
<rect x="0" y="140" width="4" height="4" fill="#A8AF97"/>
<rect x="4" y="140" width="20" height="4" fill="#3E4F39"/>
<rect x="24" y="140" width="12" height="4" fill="#A8AF97"/>
<rect x="36" y="140" width="12" height="4" fill="#3E4F39"/>
<rect x="48" y="140" width="20" height="4" fill="#A8AF97"/>
<rect x="68" y="140" width="28" height="4" fill="#3E4F39"/>
<rect x="96" y="140" width="8" height="4" fill="#A8AF97"/>
<rect x="104" y="140" width="20" height="4" fill="#52654B"/>
<rect x="124" y="140" width="20" height="4" fill="#A8AF97"/>
<rect x="144" y="140" width="28" height="4" fill="#52654B"/>
<rect x="172" y="140" width="16" height="4" fill="#A8AF97"/>
<rect x="188" y="140" width="12" height="4" fill="#3E4F39"/>
<rect x="200" y="140" width="8" height="4" fill="#A8AF97"/>
<rect x="208" y="140" width="28" height="4" fill="#52654B"/>
<rect x="236" y="140" width="16" height="4" fill="#A8AF97"/>
<rect x="252" y="140" width="20" height="4" fill="#3E4F39"/>
<rect x="272" y="140" width="12" height="4" fill="#A8AF97"/>
<rect x="284" y="140" width="20" height="4" fill="#52654B"/>
<rect x="304" y="140" width="16" height="4" fill="#A8AF97"/>
<rect x="320" y="140" width="40" height="4" fill="#B9AE95"/>
<rect x="360" y="140" width="4" height="4" fill="#A8AF97"/>
<rect x="364" y="140" width="12" height="4" fill="#3E4F39"/>
<rect x="376" y="140" width="16" height="4" fill="#3A4048"/>
<rect x="392" y="140" width="4" height="4" fill="#A8AF97"/>
<rect x="396" y="140" width="12" height="4" fill="#3E4F39"/>
<rect x="408" y="140" width="20" height="4" fill="#A8AF97"/>
<rect x="428" y="140" width="28" height="4" fill="#3E4F39"/>
<rect x="456" y="140" width="8" height="4" fill="#A8AF97"/>
<rect x="464" y="140" width="20" height="4" fill="#52654B"/>
<rect x="484" y="140" width="4" height="4" fill="#EFF2F1"/>
<rect x="488" y="140" width="16" height="4" fill="#A8AF97"/>
<rect x="504" y="140" width="28" height="4" fill="#52654B"/>
<rect x="532" y="140" width="16" height="4" fill="#A8AF97"/>
<rect x="548" y="140" width="12" height="4" fill="#3E4F39"/>
<rect x="560" y="140" width="8" height="4" fill="#A8AF97"/>
<rect x="568" y="140" width="28" height="4" fill="#52654B"/>
<rect x="596" y="140" width="16" height="4" fill="#A8AF97"/>
<rect x="612" y="140" width="20" height="4" fill="#3E4F39"/>
<rect x="632" y="140" width="12" height="4" fill="#A8AF97"/>
<rect x="644" y="140" width="20" height="4" fill="#52654B"/>
<rect x="664" y="140" width="20" height="4" fill="#A8AF97"/>
<rect x="684" y="140" width="28" height="4" fill="#3E4F39"/>
<rect x="712" y="140" width="12" height="4" fill="#A8AF97"/>
<rect x="724" y="140" width="20" height="4" fill="#3E4F39"/>
<rect x="744" y="140" width="12" height="4" fill="#A8AF97"/>
<rect x="756" y="140" width="12" height="4" fill="#3E4F39"/>
<rect x="768" y="140" width="32" height="4" fill="#A8AF97"/>
<rect x="0" y="144" width="28" height="4" fill="#52654B"/>
<rect x="28" y="144" width="4" height="4" fill="#A8AF97"/>
<rect x="32" y="144" width="20" height="4" fill="#52654B"/>
<rect x="52" y="144" width="16" height="4" fill="#A8AF97"/>
<rect x="68" y="144" width="28" height="4" fill="#52654B"/>
<rect x="96" y="144" width="8" height="4" fill="#A8AF97"/>
<rect x="104" y="144" width="20" height="4" fill="#3E4F39"/>
<rect x="124" y="144" width="20" height="4" fill="#A8AF97"/>
<rect x="144" y="144" width="28" height="4" fill="#3E4F39"/>
<rect x="172" y="144" width="12" height="4" fill="#A8AF97"/>
<rect x="184" y="144" width="20" height="4" fill="#52654B"/>
<rect x="204" y="144" width="4" height="4" fill="#A8AF97"/>
<rect x="208" y="144" width="28" height="4" fill="#3E4F39"/>
<rect x="236" y="144" width="12" height="4" fill="#A8AF97"/>
<rect x="248" y="144" width="28" height="4" fill="#52654B"/>
<rect x="276" y="144" width="8" height="4" fill="#A8AF97"/>
<rect x="284" y="144" width="20" height="4" fill="#3E4F39"/>
<rect x="304" y="144" width="16" height="4" fill="#A8AF97"/>
<rect x="320" y="144" width="40" height="4" fill="#B9AE95"/>
<rect x="360" y="144" width="16" height="4" fill="#52654B"/>
<rect x="376" y="144" width="16" height="4" fill="#3A4048"/>
<rect x="392" y="144" width="20" height="4" fill="#52654B"/>
<rect x="412" y="144" width="16" height="4" fill="#A8AF97"/>
<rect x="428" y="144" width="28" height="4" fill="#52654B"/>
<rect x="456" y="144" width="8" height="4" fill="#A8AF97"/>
<rect x="464" y="144" width="20" height="4" fill="#3E4F39"/>
<rect x="484" y="144" width="4" height="4" fill="#A8AF97"/>
<rect x="488" y="144" width="4" height="4" fill="#EFF2F1"/>
<rect x="492" y="144" width="12" height="4" fill="#A8AF97"/>
<rect x="504" y="144" width="28" height="4" fill="#3E4F39"/>
<rect x="532" y="144" width="12" height="4" fill="#A8AF97"/>
<rect x="544" y="144" width="20" height="4" fill="#52654B"/>
<rect x="564" y="144" width="4" height="4" fill="#A8AF97"/>
<rect x="568" y="144" width="28" height="4" fill="#3E4F39"/>
<rect x="596" y="144" width="12" height="4" fill="#A8AF97"/>
<rect x="608" y="144" width="28" height="4" fill="#52654B"/>
<rect x="636" y="144" width="8" height="4" fill="#A8AF97"/>
<rect x="644" y="144" width="20" height="4" fill="#3E4F39"/>
<rect x="664" y="144" width="20" height="4" fill="#A8AF97"/>
<rect x="684" y="144" width="28" height="4" fill="#52654B"/>
<rect x="712" y="144" width="8" height="4" fill="#A8AF97"/>
<rect x="720" y="144" width="28" height="4" fill="#52654B"/>
<rect x="748" y="144" width="4" height="4" fill="#A8AF97"/>
<rect x="752" y="144" width="20" height="4" fill="#52654B"/>
<rect x="772" y="144" width="28" height="4" fill="#A8AF97"/>
<rect x="0" y="148" width="12" height="4" fill="#DFE0D2"/>
<rect x="12" y="148" width="4" height="4" fill="#6B4E32"/>
<rect x="16" y="148" width="24" height="4" fill="#DFE0D2"/>
<rect x="40" y="148" width="4" height="4" fill="#6B4E32"/>
<rect x="44" y="148" width="36" height="4" fill="#DFE0D2"/>
<rect x="80" y="148" width="4" height="4" fill="#6B4E32"/>
<rect x="84" y="148" width="28" height="4" fill="#DFE0D2"/>
<rect x="112" y="148" width="4" height="4" fill="#6B4E32"/>
<rect x="116" y="148" width="40" height="4" fill="#DFE0D2"/>
<rect x="156" y="148" width="4" height="4" fill="#6B4E32"/>
<rect x="160" y="148" width="32" height="4" fill="#DFE0D2"/>
<rect x="192" y="148" width="4" height="4" fill="#6B4E32"/>
<rect x="196" y="148" width="24" height="4" fill="#DFE0D2"/>
<rect x="220" y="148" width="4" height="4" fill="#6B4E32"/>
<rect x="224" y="148" width="36" height="4" fill="#DFE0D2"/>
<rect x="260" y="148" width="4" height="4" fill="#6B4E32"/>
<rect x="264" y="148" width="28" height="4" fill="#DFE0D2"/>
<rect x="292" y="148" width="4" height="4" fill="#6B4E32"/>
<rect x="296" y="148" width="24" height="4" fill="#DFE0D2"/>
<rect x="320" y="148" width="8" height="4" fill="#9C927B"/>
<rect x="328" y="148" width="24" height="4" fill="#B9AE95"/>
<rect x="352" y="148" width="8" height="4" fill="#9C927B"/>
<rect x="360" y="148" width="16" height="4" fill="#3A4048"/>
<rect x="376" y="148" width="24" height="4" fill="#DFE0D2"/>
<rect x="400" y="148" width="4" height="4" fill="#6B4E32"/>
<rect x="404" y="148" width="36" height="4" fill="#DFE0D2"/>
<rect x="440" y="148" width="4" height="4" fill="#6B4E32"/>
<rect x="444" y="148" width="28" height="4" fill="#DFE0D2"/>
<rect x="472" y="148" width="4" height="4" fill="#6B4E32"/>
<rect x="476" y="148" width="16" height="4" fill="#DFE0D2"/>
<rect x="492" y="148" width="4" height="4" fill="#EFF2F1"/>
<rect x="496" y="148" width="20" height="4" fill="#DFE0D2"/>
<rect x="516" y="148" width="4" height="4" fill="#6B4E32"/>
<rect x="520" y="148" width="32" height="4" fill="#DFE0D2"/>
<rect x="552" y="148" width="4" height="4" fill="#6B4E32"/>
<rect x="556" y="148" width="24" height="4" fill="#DFE0D2"/>
<rect x="580" y="148" width="4" height="4" fill="#6B4E32"/>
<rect x="584" y="148" width="36" height="4" fill="#DFE0D2"/>
<rect x="620" y="148" width="4" height="4" fill="#6B4E32"/>
<rect x="624" y="148" width="28" height="4" fill="#DFE0D2"/>
<rect x="652" y="148" width="4" height="4" fill="#6B4E32"/>
<rect x="656" y="148" width="40" height="4" fill="#DFE0D2"/>
<rect x="696" y="148" width="4" height="4" fill="#6B4E32"/>
<rect x="700" y="148" width="32" height="4" fill="#DFE0D2"/>
<rect x="732" y="148" width="4" height="4" fill="#6B4E32"/>
<rect x="736" y="148" width="24" height="4" fill="#DFE0D2"/>
<rect x="760" y="148" width="4" height="4" fill="#6B4E32"/>
<rect x="764" y="148" width="36" height="4" fill="#DFE0D2"/>
<rect x="0" y="152" width="12" height="4" fill="#DFE0D2"/>
<rect x="12" y="152" width="4" height="4" fill="#6B4E32"/>
<rect x="16" y="152" width="24" height="4" fill="#DFE0D2"/>
<rect x="40" y="152" width="4" height="4" fill="#6B4E32"/>
<rect x="44" y="152" width="36" height="4" fill="#DFE0D2"/>
<rect x="80" y="152" width="4" height="4" fill="#6B4E32"/>
<rect x="84" y="152" width="28" height="4" fill="#DFE0D2"/>
<rect x="112" y="152" width="4" height="4" fill="#6B4E32"/>
<rect x="116" y="152" width="40" height="4" fill="#DFE0D2"/>
<rect x="156" y="152" width="4" height="4" fill="#6B4E32"/>
<rect x="160" y="152" width="32" height="4" fill="#DFE0D2"/>
<rect x="192" y="152" width="4" height="4" fill="#6B4E32"/>
<rect x="196" y="152" width="24" height="4" fill="#DFE0D2"/>
<rect x="220" y="152" width="4" height="4" fill="#6B4E32"/>
<rect x="224" y="152" width="36" height="4" fill="#DFE0D2"/>
<rect x="260" y="152" width="4" height="4" fill="#6B4E32"/>
<rect x="264" y="152" width="28" height="4" fill="#DFE0D2"/>
<rect x="292" y="152" width="4" height="4" fill="#6B4E32"/>
<rect x="296" y="152" width="24" height="4" fill="#DFE0D2"/>
<rect x="320" y="152" width="8" height="4" fill="#9C927B"/>
<rect x="328" y="152" width="24" height="4" fill="#B9AE95"/>
<rect x="352" y="152" width="8" height="4" fill="#9C927B"/>
<rect x="360" y="152" width="16" height="4" fill="#3A4048"/>
<rect x="376" y="152" width="24" height="4" fill="#DFE0D2"/>
<rect x="400" y="152" width="4" height="4" fill="#6B4E32"/>
<rect x="404" y="152" width="36" height="4" fill="#DFE0D2"/>
<rect x="440" y="152" width="4" height="4" fill="#6B4E32"/>
<rect x="444" y="152" width="28" height="4" fill="#DFE0D2"/>
<rect x="472" y="152" width="4" height="4" fill="#6B4E32"/>
<rect x="476" y="152" width="20" height="4" fill="#DFE0D2"/>
<rect x="496" y="152" width="4" height="4" fill="#EFF2F1"/>
<rect x="500" y="152" width="16" height="4" fill="#DFE0D2"/>
<rect x="516" y="152" width="4" height="4" fill="#6B4E32"/>
<rect x="520" y="152" width="32" height="4" fill="#DFE0D2"/>
<rect x="552" y="152" width="4" height="4" fill="#6B4E32"/>
<rect x="556" y="152" width="24" height="4" fill="#DFE0D2"/>
<rect x="580" y="152" width="4" height="4" fill="#6B4E32"/>
<rect x="584" y="152" width="36" height="4" fill="#DFE0D2"/>
<rect x="620" y="152" width="4" height="4" fill="#6B4E32"/>
<rect x="624" y="152" width="28" height="4" fill="#DFE0D2"/>
<rect x="652" y="152" width="4" height="4" fill="#6B4E32"/>
<rect x="656" y="152" width="40" height="4" fill="#DFE0D2"/>
<rect x="696" y="152" width="4" height="4" fill="#6B4E32"/>
<rect x="700" y="152" width="32" height="4" fill="#DFE0D2"/>
<rect x="732" y="152" width="4" height="4" fill="#6B4E32"/>
<rect x="736" y="152" width="24" height="4" fill="#DFE0D2"/>
<rect x="760" y="152" width="4" height="4" fill="#6B4E32"/>
<rect x="764" y="152" width="36" height="4" fill="#DFE0D2"/>
<rect x="0" y="156" width="320" height="4" fill="#DCCFAF"/>
<rect x="320" y="156" width="8" height="4" fill="#9C927B"/>
<rect x="328" y="156" width="24" height="4" fill="#B9AE95"/>
<rect x="352" y="156" width="8" height="4" fill="#9C927B"/>
<rect x="360" y="156" width="140" height="4" fill="#DCCFAF"/>
<rect x="500" y="156" width="4" height="4" fill="#EFF2F1"/>
<rect x="504" y="156" width="296" height="4" fill="#DCCFAF"/>
<rect x="0" y="160" width="320" height="4" fill="#DCCFAF"/>
<rect x="320" y="160" width="8" height="4" fill="#9C927B"/>
<rect x="328" y="160" width="24" height="4" fill="#B9AE95"/>
<rect x="352" y="160" width="8" height="4" fill="#9C927B"/>
<rect x="360" y="160" width="144" height="4" fill="#DCCFAF"/>
<rect x="504" y="160" width="4" height="4" fill="#EFF2F1"/>
<rect x="508" y="160" width="292" height="4" fill="#DCCFAF"/>
<rect x="0" y="164" width="320" height="4" fill="#DCCFAF"/>
<rect x="320" y="164" width="8" height="4" fill="#D9B48F"/>
<rect x="328" y="164" width="24" height="4" fill="#9C927B"/>
<rect x="352" y="164" width="8" height="4" fill="#D9B48F"/>
<rect x="360" y="164" width="148" height="4" fill="#DCCFAF"/>
<rect x="508" y="164" width="4" height="4" fill="#EFF2F1"/>
<rect x="512" y="164" width="288" height="4" fill="#DCCFAF"/>
<rect x="0" y="168" width="320" height="4" fill="#CBD7DD"/>
<rect x="320" y="168" width="8" height="4" fill="#D9B48F"/>
<rect x="328" y="168" width="24" height="4" fill="#9C927B"/>
<rect x="352" y="168" width="8" height="4" fill="#D9B48F"/>
<rect x="360" y="168" width="440" height="4" fill="#CBD7DD"/>
<rect x="0" y="172" width="72" height="4" fill="#9CB0BC"/>
<rect x="72" y="172" width="16" height="4" fill="#CBD7DD"/>
<rect x="88" y="172" width="132" height="4" fill="#9CB0BC"/>
<rect x="220" y="172" width="24" height="4" fill="#CBD7DD"/>
<rect x="244" y="172" width="84" height="4" fill="#9CB0BC"/>
<rect x="328" y="172" width="24" height="4" fill="#7E7D68"/>
<rect x="352" y="172" width="40" height="4" fill="#9CB0BC"/>
<rect x="392" y="172" width="20" height="4" fill="#CBD7DD"/>
<rect x="412" y="172" width="100" height="4" fill="#9CB0BC"/>
<rect x="512" y="172" width="4" height="4" fill="#EFF2F1"/>
<rect x="516" y="172" width="44" height="4" fill="#9CB0BC"/>
<rect x="560" y="172" width="28" height="4" fill="#CBD7DD"/>
<rect x="588" y="172" width="116" height="4" fill="#9CB0BC"/>
<rect x="704" y="172" width="16" height="4" fill="#CBD7DD"/>
<rect x="720" y="172" width="80" height="4" fill="#9CB0BC"/>
<rect x="0" y="176" width="108" height="4" fill="#9CB0BC"/>
<rect x="108" y="176" width="16" height="4" fill="#879DAB"/>
<rect x="124" y="176" width="132" height="4" fill="#9CB0BC"/>
<rect x="256" y="176" width="24" height="4" fill="#879DAB"/>
<rect x="280" y="176" width="48" height="4" fill="#9CB0BC"/>
<rect x="328" y="176" width="24" height="4" fill="#7E7D68"/>
<rect x="352" y="176" width="76" height="4" fill="#9CB0BC"/>
<rect x="428" y="176" width="20" height="4" fill="#879DAB"/>
<rect x="448" y="176" width="148" height="4" fill="#9CB0BC"/>
<rect x="596" y="176" width="28" height="4" fill="#879DAB"/>
<rect x="624" y="176" width="116" height="4" fill="#9CB0BC"/>
<rect x="740" y="176" width="16" height="4" fill="#879DAB"/>
<rect x="756" y="176" width="44" height="4" fill="#9CB0BC"/>
<rect x="0" y="180" width="328" height="4" fill="#9CB0BC"/>
<rect x="328" y="180" width="8" height="4" fill="#7E7D68"/>
<rect x="336" y="180" width="8" height="4" fill="#9CB0BC"/>
<rect x="344" y="180" width="8" height="4" fill="#66654F"/>
<rect x="352" y="180" width="448" height="4" fill="#9CB0BC"/>
<rect x="0" y="184" width="328" height="4" fill="#9CB0BC"/>
<rect x="328" y="184" width="8" height="4" fill="#7E7D68"/>
<rect x="336" y="184" width="8" height="4" fill="#9CB0BC"/>
<rect x="344" y="184" width="8" height="4" fill="#66654F"/>
<rect x="352" y="184" width="448" height="4" fill="#9CB0BC"/>
<rect x="0" y="188" width="100" height="4" fill="#9CB0BC"/>
<rect x="100" y="188" width="16" height="4" fill="#879DAB"/>
<rect x="116" y="188" width="132" height="4" fill="#9CB0BC"/>
<rect x="248" y="188" width="24" height="4" fill="#879DAB"/>
<rect x="272" y="188" width="56" height="4" fill="#9CB0BC"/>
<rect x="328" y="188" width="8" height="4" fill="#7E7D68"/>
<rect x="336" y="188" width="8" height="4" fill="#9CB0BC"/>
<rect x="344" y="188" width="8" height="4" fill="#66654F"/>
<rect x="352" y="188" width="68" height="4" fill="#9CB0BC"/>
<rect x="420" y="188" width="20" height="4" fill="#879DAB"/>
<rect x="440" y="188" width="148" height="4" fill="#9CB0BC"/>
<rect x="588" y="188" width="28" height="4" fill="#879DAB"/>
<rect x="616" y="188" width="116" height="4" fill="#9CB0BC"/>
<rect x="732" y="188" width="16" height="4" fill="#879DAB"/>
<rect x="748" y="188" width="52" height="4" fill="#9CB0BC"/>
<rect x="0" y="192" width="328" height="4" fill="#9CB0BC"/>
<rect x="328" y="192" width="8" height="4" fill="#7E7D68"/>
<rect x="336" y="192" width="8" height="4" fill="#9CB0BC"/>
<rect x="344" y="192" width="8" height="4" fill="#66654F"/>
<rect x="352" y="192" width="448" height="4" fill="#9CB0BC"/>
<rect x="0" y="196" width="328" height="4" fill="#9CB0BC"/>
<rect x="328" y="196" width="8" height="4" fill="#7E7D68"/>
<rect x="336" y="196" width="8" height="4" fill="#9CB0BC"/>
<rect x="344" y="196" width="8" height="4" fill="#66654F"/>
<rect x="352" y="196" width="448" height="4" fill="#9CB0BC"/>
<rect x="0" y="200" width="92" height="4" fill="#9CB0BC"/>
<rect x="92" y="200" width="16" height="4" fill="#879DAB"/>
<rect x="108" y="200" width="132" height="4" fill="#9CB0BC"/>
<rect x="240" y="200" width="24" height="4" fill="#879DAB"/>
<rect x="264" y="200" width="64" height="4" fill="#9CB0BC"/>
<rect x="328" y="200" width="8" height="4" fill="#7E7D68"/>
<rect x="336" y="200" width="8" height="4" fill="#9CB0BC"/>
<rect x="344" y="200" width="8" height="4" fill="#66654F"/>
<rect x="352" y="200" width="60" height="4" fill="#9CB0BC"/>
<rect x="412" y="200" width="20" height="4" fill="#879DAB"/>
<rect x="432" y="200" width="148" height="4" fill="#9CB0BC"/>
<rect x="580" y="200" width="28" height="4" fill="#879DAB"/>
<rect x="608" y="200" width="116" height="4" fill="#9CB0BC"/>
<rect x="724" y="200" width="16" height="4" fill="#879DAB"/>
<rect x="740" y="200" width="60" height="4" fill="#9CB0BC"/>
<rect x="0" y="204" width="328" height="4" fill="#9CB0BC"/>
<rect x="328" y="204" width="8" height="4" fill="#7E7D68"/>
<rect x="336" y="204" width="8" height="4" fill="#9CB0BC"/>
<rect x="344" y="204" width="8" height="4" fill="#66654F"/>
<rect x="352" y="204" width="448" height="4" fill="#9CB0BC"/>
<rect x="0" y="208" width="328" height="4" fill="#9CB0BC"/>
<rect x="328" y="208" width="8" height="4" fill="#7E7D68"/>
<rect x="336" y="208" width="8" height="4" fill="#9CB0BC"/>
<rect x="344" y="208" width="8" height="4" fill="#66654F"/>
<rect x="352" y="208" width="448" height="4" fill="#9CB0BC"/>
<rect x="0" y="212" width="84" height="4" fill="#9CB0BC"/>
<rect x="84" y="212" width="16" height="4" fill="#879DAB"/>
<rect x="100" y="212" width="132" height="4" fill="#9CB0BC"/>
<rect x="232" y="212" width="24" height="4" fill="#879DAB"/>
<rect x="256" y="212" width="56" height="4" fill="#9CB0BC"/>
<rect x="312" y="212" width="64" height="4" fill="#CBD7DD"/>
<rect x="376" y="212" width="28" height="4" fill="#9CB0BC"/>
<rect x="404" y="212" width="20" height="4" fill="#879DAB"/>
<rect x="424" y="212" width="148" height="4" fill="#9CB0BC"/>
<rect x="572" y="212" width="28" height="4" fill="#879DAB"/>
<rect x="600" y="212" width="116" height="4" fill="#9CB0BC"/>
<rect x="716" y="212" width="16" height="4" fill="#879DAB"/>
<rect x="732" y="212" width="68" height="4" fill="#9CB0BC"/>
<rect x="0" y="216" width="320" height="4" fill="#9CB0BC"/>
<rect x="320" y="216" width="8" height="4" fill="#372F28"/>
<rect x="328" y="216" width="8" height="4" fill="#4A4038"/>
<rect x="336" y="216" width="8" height="4" fill="#9CB0BC"/>
<rect x="344" y="216" width="8" height="4" fill="#4A4038"/>
<rect x="352" y="216" width="8" height="4" fill="#372F28"/>
<rect x="360" y="216" width="440" height="4" fill="#9CB0BC"/>
<rect x="0" y="220" width="800" height="4" fill="#9CB0BC"/>
<rect x="0" y="224" width="76" height="4" fill="#9CB0BC"/>
<rect x="76" y="224" width="16" height="4" fill="#879DAB"/>
<rect x="92" y="224" width="132" height="4" fill="#9CB0BC"/>
<rect x="224" y="224" width="24" height="4" fill="#879DAB"/>
<rect x="248" y="224" width="148" height="4" fill="#9CB0BC"/>
<rect x="396" y="224" width="20" height="4" fill="#879DAB"/>
<rect x="416" y="224" width="148" height="4" fill="#9CB0BC"/>
<rect x="564" y="224" width="28" height="4" fill="#879DAB"/>
<rect x="592" y="224" width="116" height="4" fill="#9CB0BC"/>
<rect x="708" y="224" width="16" height="4" fill="#879DAB"/>
<rect x="724" y="224" width="76" height="4" fill="#9CB0BC"/>
<rect x="0" y="228" width="800" height="4" fill="#9CB0BC"/>
<rect x="0" y="232" width="800" height="4" fill="#9CB0BC"/>
<rect x="0" y="236" width="800" height="4" fill="#CDBD97"/>
<rect x="0" y="240" width="800" height="4" fill="#DCCFAF"/>
<rect x="0" y="244" width="800" height="4" fill="#DCCFAF"/>
<rect x="0" y="248" width="800" height="4" fill="#DCCFAF"/>
<rect x="0" y="252" width="800" height="4" fill="#DCCFAF"/>
<rect x="0" y="256" width="800" height="4" fill="#DCCFAF"/>
<rect x="0" y="260" width="800" height="4" fill="#DCCFAF"/>
<rect x="0" y="264" width="296" height="4" fill="#DCCFAF"/>
<rect x="296" y="264" width="8" height="4" fill="#B5A57F"/>
<rect x="304" y="264" width="496" height="4" fill="#DCCFAF"/>
<rect x="0" y="268" width="28" height="4" fill="#DCCFAF"/>
<rect x="28" y="268" width="8" height="4" fill="#B5A57F"/>
<rect x="36" y="268" width="764" height="4" fill="#DCCFAF"/>
<rect x="0" y="272" width="572" height="4" fill="#DCCFAF"/>
<rect x="572" y="272" width="8" height="4" fill="#B5A57F"/>
<rect x="580" y="272" width="220" height="4" fill="#DCCFAF"/>
<rect x="0" y="276" width="768" height="4" fill="#DCCFAF"/>
<rect x="768" y="276" width="8" height="4" fill="#C8B990"/>
<rect x="776" y="276" width="24" height="4" fill="#DCCFAF"/>
<rect x="0" y="280" width="164" height="4" fill="#DCCFAF"/>
<rect x="164" y="280" width="8" height="4" fill="#B5A57F"/>
<rect x="172" y="280" width="628" height="4" fill="#DCCFAF"/>
<rect x="0" y="284" width="432" height="4" fill="#DCCFAF"/>
<rect x="432" y="284" width="8" height="4" fill="#B5A57F"/>
<rect x="440" y="284" width="360" height="4" fill="#DCCFAF"/>
<rect x="0" y="288" width="800" height="4" fill="#DCCFAF"/>
<rect x="0" y="292" width="800" height="4" fill="#DCCFAF"/>
<rect x="0" y="296" width="800" height="4" fill="#DCCFAF"/>
</svg>