<svg xmlns="http://www.w3.org/2000/svg" viewBox="0 0 800 300" role="img" aria-label="Pixel art of a homesteader feeding chickens by the barn, a long way from town" shape-rendering="crispEdges">
<!-- generated by tools/niche_pixel.py; edit the generator, not these rects -->
<rect x="0" y="0" width="800" height="4" fill="#C7D2DB"/>
<rect x="0" y="4" width="800" height="4" fill="#C7D2DB"/>
<rect x="0" y="8" width="800" height="4" fill="#C7D2DB"/>
<rect x="0" y="12" width="800" height="4" fill="#C7D2DB"/>
<rect x="0" y="16" width="800" height="4" fill="#C7D2DB"/>
<rect x="0" y="20" width="800" height="4" fill="#C7D2DB"/>
<rect x="0" y="24" width="72" height="4" fill="#C7D2DB"/>
<rect x="72" y="24" width="56" height="4" fill="#EFF2F1"/>
<rect x="128" y="24" width="216" height="4" fill="#C7D2DB"/>
<rect x="344" y="24" width="32" height="4" fill="#EFF2F1"/>
<rect x="376" y="24" width="240" height="4" fill="#C7D2DB"/>
<rect x="616" y="24" width="48" height="4" fill="#EFF2F1"/>
<rect x="664" y="24" width="136" height="4" fill="#C7D2DB"/>
<rect x="0" y="28" width="72" height="4" fill="#C7D2DB"/>
<rect x="72" y="28" width="56" height="4" fill="#EFF2F1"/>
<rect x="128" y="28" width="216" height="4" fill="#C7D2DB"/>
<rect x="344" y="28" width="32" height="4" fill="#EFF2F1"/>
<rect x="376" y="28" width="240" height="4" fill="#C7D2DB"/>
<rect x="616" y="28" width="48" height="4" fill="#EFF2F1"/>
<rect x="664" y="28" width="136" height="4" fill="#C7D2DB"/>
<rect x="0" y="32" width="60" height="4" fill="#C7D2DB"/>
<rect x="60" y="32" width="80" height="4" fill="#EFF2F1"/>
<rect x="140" y="32" width="192" height="4" fill="#C7D2DB"/>
<rect x="332" y="32" width="56" height="4" fill="#EFF2F1"/>
<rect x="388" y="32" width="216" height="4" fill="#C7D2DB"/>
<rect x="604" y="32" width="72" height="4" fill="#EFF2F1"/>
<rect x="676" y="32" width="124" height="4" fill="#C7D2DB"/>
<rect x="0" y="36" width="60" height="4" fill="#C7D2DB"/>
<rect x="60" y="36" width="80" height="4" fill="#EFF2F1"/>
<rect x="140" y="36" width="192" height="4" fill="#C7D2DB"/>
<rect x="332" y="36" width="56" height="4" fill="#EFF2F1"/>
<rect x="388" y="36" width="216" height="4" fill="#C7D2DB"/>
<rect x="604" y="36" width="72" height="4" fill="#EFF2F1"/>
<rect x="676" y="36" width="124" height="4" fill="#C7D2DB"/>
<rect x="0" y="40" width="68" height="4" fill="#C7D2DB"/>
<rect x="68" y="40" width="88" height="4" fill="#D9DFDE"/>
<rect x="156" y="40" width="184" height="4" fill="#C7D2DB"/>
<rect x="340" y="40" width="64" height="4" fill="#D9DFDE"/>
<rect x="404" y="40" width="208" height="4" fill="#C7D2DB"/>
<rect x="612" y="40" width="80" height="4" fill="#D9DFDE"/>
<rect x="692" y="40" width="108" height="4" fill="#C7D2DB"/>
<rect x="0" y="44" width="800" height="4" fill="#C7D2DB"/>
<rect x="0" y="48" width="800" height="4" fill="#C7D2DB"/>
<rect x="0" y="52" width="800" height="4" fill="#C7D2DB"/>
<rect x="0" y="56" width="800" height="4" fill="#C7D2DB"/>
<rect x="0" y="60" width="800" height="4" fill="#C7D2DB"/>
<rect x="0" y="64" width="800" height="4" fill="#C7D2DB"/>
<rect x="0" y="68" width="800" height="4" fill="#C7D2DB"/>
<rect x="0" y="72" width="800" height="4" fill="#D2DAD8"/>
<rect x="0" y="76" width="800" height="4" fill="#D2DAD8"/>
<rect x="0" y="80" width="800" height="4" fill="#D2DAD8"/>
<rect x="0" y="84" width="800" height="4" fill="#D2DAD8"/>
<rect x="0" y="88" width="800" height="4" fill="#D2DAD8"/>
<rect x="0" y="92" width="800" height="4" fill="#D2DAD8"/>
<rect x="0" y="96" width="800" height="4" fill="#D2DAD8"/>
<rect x="0" y="100" width="800" height="4" fill="#D2DAD8"/>
<rect x="0" y="104" width="800" height="4" fill="#D2DAD8"/>
<rect x="0" y="108" width="800" height="4" fill="#D2DAD8"/>
<rect x="0" y="112" width="800" height="4" fill="#D2DAD8"/>
<rect x="0" y="116" width="800" height="4" fill="#D2DAD8"/>
<rect x="0" y="120" width="800" height="4" fill="#D2DAD8"/>
<rect x="0" y="124" width="800" height="4" fill="#D2DAD8"/>
<rect x="0" y="128" width="800" height="4" fill="#DFE0D2"/>
<rect x="0" y="132" width="200" height="4" fill="#DFE0D2"/>
<rect x="200" y="132" width="88" height="4" fill="#71563B"/>
<rect x="288" y="132" width="512" height="4" fill="#DFE0D2"/>
<rect x="0" y="136" width="200" height="4" fill="#DFE0D2"/>
<rect x="200" y="136" width="88" height="4" fill="#71563B"/>
<rect x="288" y="136" width="512" height="4" fill="#DFE0D2"/>
<rect x="0" y="140" width="184" height="4" fill="#DFE0D2"/>
<rect x="184" y="140" width="120" height="4" fill="#71563B"/>
<rect x="304" y="140" width="496" height="4" fill="#DFE0D2"/>
<rect x="0" y="144" width="184" height="4" fill="#DFE0D2"/>
<rect x="184" y="144" width="120" height="4" fill="#71563B"/>
<rect x="304" y="144" width="496" height="4" fill="#DFE0D2"/>
<rect x="0" y="148" width="168" height="4" fill="#DFE0D2"/>
<rect x="168" y="148" width="152" height="4" fill="#71563B"/>
<rect x="320" y="148" width="56" height="4" fill="#909880"/>
<rect x="376" y="148" width="424" height="4" fill="#DFE0D2"/>
<rect x="0" y="152" width="80" height="4" fill="#DFE0D2"/>
<rect x="80" y="152" width="88" height="4" fill="#909880"/>
<rect x="168" y="152" width="152" height="4" fill="#71563B"/>
<rect x="320" y="152" width="56" height="4" fill="#A8AF97"/>
<rect x="376" y="152" width="108" height="4" fill="#909880"/>
<rect x="484" y="152" width="276" height="4" fill="#DFE0D2"/>
<rect x="760" y="152" width="40" height="4" fill="#909880"/>
<rect x="0" y="156" width="80" height="4" fill="#909880"/>
<rect x="80" y="156" width="72" height="4" fill="#A8AF97"/>
<rect x="152" y="156" width="184" height="4" fill="#71563B"/>
<rect x="336" y="156" width="148" height="4" fill="#A8AF97"/>
<rect x="484" y="156" width="104" height="4" fill="#909880"/>
<rect x="588" y="156" width="92" height="4" fill="#DFE0D2"/>
<rect x="680" y="156" width="80" height="4" fill="#909880"/>
<rect x="760" y="156" width="40" height="4" fill="#A8AF97"/>
<rect x="0" y="160" width="152" height="4" fill="#A8AF97"/>
<rect x="152" y="160" width="184" height="4" fill="#71563B"/>
<rect x="336" y="160" width="252" height="4" fill="#A8AF97"/>
<rect x="588" y="160" width="92" height="4" fill="#909880"/>
<rect x="680" y="160" width="120" height="4" fill="#A8AF97"/>
<rect x="0" y="164" width="160" height="4" fill="#A8AF97"/>
<rect x="160" y="164" width="168" height="4" fill="#A84A3F"/>
<rect x="328" y="164" width="144" height="4" fill="#A8AF97"/>
<rect x="472" y="164" width="24" height="4" fill="#B9AE95"/>
<rect x="496" y="164" width="304" height="4" fill="#A8AF97"/>
<rect x="0" y="168" width="160" height="4" fill="#A8AF97"/>
<rect x="160" y="168" width="168" height="4" fill="#A84A3F"/>
<rect x="328" y="168" width="144" height="4" fill="#A8AF97"/>
<rect x="472" y="168" width="24" height="4" fill="#B9AE95"/>
<rect x="496" y="168" width="304" height="4" fill="#A8AF97"/>
<rect x="0" y="172" width="160" height="4" fill="#DCCFAF"/>
<rect x="160" y="172" width="168" height="4" fill="#A84A3F"/>
<rect x="328" y="172" width="136" height="4" fill="#DCCFAF"/>
<rect x="464" y="172" width="40" height="4" fill="#9C927B"/>
<rect x="504" y="172" width="296" height="4" fill="#DCCFAF"/>
<rect x="0" y="176" width="160" height="4" fill="#DCCFAF"/>
<rect x="160" y="176" width="168" height="4" fill="#A84A3F"/>
<rect x="328" y="176" width="136" height="4" fill="#DCCFAF"/>
<rect x="464" y="176" width="40" height="4" fill="#9C927B"/>
<rect x="504" y="176" width="296" height="4" fill="#DCCFAF"/>
<rect x="0" y="180" width="160" height="4" fill="#DCCFAF"/>
<rect x="160" y="180" width="32" height="4" fill="#A84A3F"/>
<rect x="192" y="180" width="8" height="4" fill="#EFF2F1"/>
<rect x="200" y="180" width="88" height="4" fill="#A84A3F"/>
<rect x="288" y="180" width="8" height="4" fill="#EFF2F1"/>
<rect x="296" y="180" width="32" height="4" fill="#A84A3F"/>
<rect x="328" y="180" width="144" height="4" fill="#DCCFAF"/>
<rect x="472" y="180" width="8" height="4" fill="#D9B48F"/>
<rect x="480" y="180" width="8" height="4" fill="#3A424D"/>
<rect x="488" y="180" width="8" height="4" fill="#D9B48F"/>
<rect x="496" y="180" width="304" height="4" fill="#DCCFAF"/>
<rect x="0" y="184" width="160" height="4" fill="#DCCFAF"/>
<rect x="160" y="184" width="32" height="4" fill="#A84A3F"/>
<rect x="192" y="184" width="8" height="4" fill="#EFF2F1"/>
<rect x="200" y="184" width="88" height="4" fill="#A84A3F"/>
<rect x="288" y="184" width="8" height="4" fill="#EFF2F1"/>
<rect x="296" y="184" width="32" height="4" fill="#A84A3F"/>
<rect x="328" y="184" width="144" height="4" fill="#DCCFAF"/>
<rect x="472" y="184" width="8" height="4" fill="#D9B48F"/>
<rect x="480" y="184" width="8" height="4" fill="#3A424D"/>
<rect x="488" y="184" width="8" height="4" fill="#D9B48F"/>
<rect x="496" y="184" width="304" height="4" fill="#DCCFAF"/>
<rect x="0" y="188" width="160" height="4" fill="#DCCFAF"/>
<rect x="160" y="188" width="168" height="4" fill="#A84A3F"/>
<rect x="328" y="188" width="144" height="4" fill="#DCCFAF"/>
<rect x="472" y="188" width="24" height="4" fill="#D9B48F"/>
<rect x="496" y="188" width="304" height="4" fill="#DCCFAF"/>
<rect x="0" y="192" width="160" height="4" fill="#DCCFAF"/>
<rect x="160" y="192" width="168" height="4" fill="#A84A3F"/>
<rect x="328" y="192" width="144" height="4" fill="#DCCFAF"/>
<rect x="472" y="192" width="24" height="4" fill="#D9B48F"/>
<rect x="496" y="192" width="304" height="4" fill="#DCCFAF"/>
<rect x="0" y="196" width="160" height="4" fill="#DCCFAF"/>
<rect x="160" y="196" width="64" height="4" fill="#A84A3F"/>
<rect x="224" y="196" width="40" height="4" fill="#71563B"/>
<rect x="264" y="196" width="64" height="4" fill="#A84A3F"/>
<rect x="328" y="196" width="136" height="4" fill="#DCCFAF"/>
<rect x="464" y="196" width="40" height="4" fill="#5A6B7E"/>
<rect x="504" y="196" width="296" height="4" fill="#DCCFAF"/>
<rect x="0" y="200" width="28" height="4" fill="#DCCFAF"/>
<rect x="28" y="200" width="8" height="4" fill="#B5A57F"/>
<rect x="36" y="200" width="124" height="4" fill="#DCCFAF"/>
<rect x="160" y="200" width="64" height="4" fill="#A84A3F"/>
<rect x="224" y="200" width="40" height="4" fill="#71563B"/>
<rect x="264" y="200" width="64" height="4" fill="#A84A3F"/>
<rect x="328" y="200" width="136" height="4" fill="#DCCFAF"/>
<rect x="464" y="200" width="40" height="4" fill="#5A6B7E"/>
<rect x="504" y="200" width="296" height="4" fill="#DCCFAF"/>
<rect x="0" y="204" width="160" height="4" fill="#DCCFAF"/>
<rect x="160" y="204" width="64" height="4" fill="#A84A3F"/>
<rect x="224" y="204" width="8" height="4" fill="#71563B"/>
<rect x="232" y="204" width="24" height="4" fill="#6B4E32"/>
<rect x="256" y="204" width="8" height="4" fill="#71563B"/>
<rect x="264" y="204" width="64" height="4" fill="#A84A3F"/>
<rect x="328" y="204" width="136" height="4" fill="#DCCFAF"/>
<rect x="464" y="204" width="8" height="4" fill="#4A5A6B"/>
<rect x="472" y="204" width="24" height="4" fill="#5A6B7E"/>
<rect x="496" y="204" width="8" height="4" fill="#4A5A6B"/>
<rect x="504" y="204" width="68" height="4" fill="#DCCFAF"/>
<rect x="572" y="204" width="8" height="4" fill="#B5A57F"/>
<rect x="580" y="204" width="220" height="4" fill="#DCCFAF"/>
<rect x="0" y="208" width="160" height="4" fill="#DCCFAF"/>
<rect x="160" y="208" width="64" height="4" fill="#A84A3F"/>
<rect x="224" y="208" width="8" height="4" fill="#71563B"/>
<rect x="232" y="208" width="24" height="4" fill="#6B4E32"/>
<rect x="256" y="208" width="8" height="4" fill="#71563B"/>
<rect x="264" y="208" width="64" height="4" fill="#A84A3F"/>
<rect x="328" y="208" width="136" height="4" fill="#DCCFAF"/>
<rect x="464" y="208" width="8" height="4" fill="#4A5A6B"/>
<rect x="472" y="208" width="24" height="4" fill="#5A6B7E"/>
<rect x="496" y="208" width="8" height="4" fill="#4A5A6B"/>
<rect x="504" y="208" width="264" height="4" fill="#DCCFAF"/>
<rect x="768" y="208" width="8" height="4" fill="#C8B990"/>
<rect x="776" y="208" width="24" height="4" fill="#DCCFAF"/>
<rect x="0" y="212" width="160" height="4" fill="#DCCFAF"/>
<rect x="160" y="212" width="64" height="4" fill="#A84A3F"/>
<rect x="224" y="212" width="8" height="4" fill="#71563B"/>
<rect x="232" y="212" width="24" height="4" fill="#6B4E32"/>
<rect x="256" y="212" width="8" height="4" fill="#71563B"/>
<rect x="264" y="212" width="64" height="4" fill="#A84A3F"/>
<rect x="328" y="212" width="136" height="4" fill="#DCCFAF"/>
<rect x="464" y="212" width="8" height="4" fill="#4A5A6B"/>
<rect x="472" y="212" width="24" height="4" fill="#5A6B7E"/>
<rect x="496" y="212" width="8" height="4" fill="#4A5A6B"/>
<rect x="504" y="212" width="296" height="4" fill="#DCCFAF"/>
<rect x="0" y="216" width="160" height="4" fill="#DCCFAF"/>
<rect x="160" y="216" width="64" height="4" fill="#A84A3F"/>
<rect x="224" y="216" width="8" height="4" fill="#71563B"/>
<rect x="232" y="216" width="24" height="4" fill="#6B4E32"/>
<rect x="256" y="216" width="8" height="4" fill="#71563B"/>
<rect x="264" y="216" width="64" height="4" fill="#A84A3F"/>
<rect x="328" y="216" width="104" height="4" fill="#DCCFAF"/>
<rect x="432" y="216" width="8" height="4" fill="#B5A57F"/>
<rect x="440" y="216" width="24" height="4" fill="#DCCFAF"/>
<rect x="464" y="216" width="8" height="4" fill="#4A5A6B"/>
<rect x="472" y="216" width="24" height="4" fill="#5A6B7E"/>
<rect x="496" y="216" width="8" height="4" fill="#4A5A6B"/>
<rect x="504" y="216" width="296" height="4" fill="#DCCFAF"/>
<rect x="0" y="220" width="160" height="4" fill="#DCCFAF"/>
<rect x="160" y="220" width="64" height="4" fill="#8E3B32"/>
<rect x="224" y="220" width="8" height="4" fill="#71563B"/>
<rect x="232" y="220" width="24" height="4" fill="#6B4E32"/>
<rect x="256" y="220" width="8" height="4" fill="#71563B"/>
<rect x="264" y="220" width="64" height="4" fill="#8E3B32"/>
<rect x="328" y="220" width="136" height="4" fill="#DCCFAF"/>
<rect x="464" y="220" width="8" height="4" fill="#D9B48F"/>
<rect x="472" y="220" width="24" height="4" fill="#4A5A6B"/>
<rect x="496" y="220" width="8" height="4" fill="#D9B48F"/>
<rect x="504" y="220" width="296" height="4" fill="#DCCFAF"/>
<rect x="0" y="224" width="160" height="4" fill="#DCCFAF"/>
<rect x="160" y="224" width="64" height="4" fill="#8E3B32"/>
<rect x="224" y="224" width="8" height="4" fill="#71563B"/>
<rect x="232" y="224" width="24" height="4" fill="#6B4E32"/>
<rect x="256" y="224" width="8" height="4" fill="#71563B"/>
<rect x="264" y="224" width="64" height="4" fill="#8E3B32"/>
<rect x="328" y="224" width="136" height="4" fill="#DCCFAF"/>
<rect x="464" y="224" width="8" height="4" fill="#D9B48F"/>
<rect x="472" y="224" width="24" height="4" fill="#4A5A6B"/>
<rect x="496" y="224" width="8" height="4" fill="#D9B48F"/>
<rect x="504" y="224" width="296" height="4" fill="#DCCFAF"/>
<rect x="0" y="228" width="92" height="4" fill="#DCCFAF"/>
<rect x="92" y="228" width="8" height="4" fill="#C8B990"/>
<rect x="100" y="228" width="60" height="4" fill="#DCCFAF"/>
<rect x="160" y="228" width="64" height="4" fill="#8E3B32"/>
<rect x="224" y="228" width="8" height="4" fill="#71563B"/>
<rect x="232" y="228" width="24" height="4" fill="#6B4E32"/>
<rect x="256" y="228" width="8" height="4" fill="#71563B"/>
<rect x="264" y="228" width="64" height="4" fill="#8E3B32"/>
<rect x="328" y="228" width="144" height="4" fill="#DCCFAF"/>
<rect x="472" y="228" width="24" height="4" fill="#4A5258"/>
<rect x="496" y="228" width="16" height="4" fill="#DCCFAF"/>
<rect x="512" y="228" width="8" height="4" fill="#71563B"/>
<rect x="520" y="228" width="280" height="4" fill="#DCCFAF"/>
<rect x="0" y="232" width="160" height="4" fill="#DCCFAF"/>
<rect x="160" y="232" width="64" height="4" fill="#8E3B32"/>
<rect x="224" y="232" width="8" height="4" fill="#71563B"/>
<rect x="232" y="232" width="24" height="4" fill="#6B4E32"/>
<rect x="256" y="232" width="8" height="4" fill="#71563B"/>
<rect x="264" y="232" width="64" height="4" fill="#8E3B32"/>
<rect x="328" y="232" width="144" height="4" fill="#DCCFAF"/>
<rect x="472" y="232" width="24" height="4" fill="#4A5258"/>
<rect x="496" y="232" width="16" height="4" fill="#DCCFAF"/>
<rect x="512" y="232" width="8" height="4" fill="#71563B"/>
<rect x="520" y="232" width="120" height="4" fill="#DCCFAF"/>
<rect x="640" y="232" width="8" height="4" fill="#C8B990"/>
<rect x="648" y="232" width="152" height="4" fill="#DCCFAF"/>
<rect x="0" y="236" width="160" height="4" fill="#DCCFAF"/>
<rect x="160" y="236" width="64" height="4" fill="#8E3B32"/>
<rect x="224" y="236" width="8" height="4" fill="#71563B"/>
<rect x="232" y="236" width="24" height="4" fill="#6B4E32"/>
<rect x="256" y="236" width="8" height="4" fill="#71563B"/>
<rect x="264" y="236" width="64" height="4" fill="#8E3B32"/>
<rect x="328" y="236" width="88" height="4" fill="#DCCFAF"/>
<rect x="416" y="236" width="4" height="4" fill="#8A6B4A"/>
<rect x="420" y="236" width="20" height="4" fill="#DCCFAF"/>
<rect x="440" y="236" width="4" height="4" fill="#8A6B4A"/>
<rect x="444" y="236" width="20" height="4" fill="#DCCFAF"/>
<rect x="464" y="236" width="4" height="4" fill="#8A6B4A"/>
<rect x="468" y="236" width="4" height="4" fill="#DCCFAF"/>
<rect x="472" y="236" width="8" height="4" fill="#4A5258"/>
<rect x="480" y="236" width="8" height="4" fill="#DCCFAF"/>
<rect x="488" y="236" width="8" height="4" fill="#4A5258"/>
<rect x="496" y="236" width="8" height="4" fill="#DCCFAF"/>
<rect x="504" y="236" width="24" height="4" fill="#8A6B4A"/>
<rect x="528" y="236" width="8" height="4" fill="#DCCFAF"/>
<rect x="536" y="236" width="4" height="4" fill="#8A6B4A"/>
<rect x="540" y="236" width="20" height="4" fill="#DCCFAF"/>
<rect x="560" y="236" width="4" height="4" fill="#8A6B4A"/>
<rect x="564" y="236" width="20" height="4" fill="#DCCFAF"/>
<rect x="584" y="236" width="4" height="4" fill="#8A6B4A"/>
<rect x="588" y="236" width="20" height="4" fill="#DCCFAF"/>
<rect x="608" y="236" width="4" height="4" fill="#8A6B4A"/>
<rect x="612" y="236" width="20" height="4" fill="#DCCFAF"/>
<rect x="632" y="236" width="4" height="4" fill="#8A6B4A"/>
<rect x="636" y="236" width="20" height="4" fill="#DCCFAF"/>
<rect x="656" y="236" width="4" height="4" fill="#8A6B4A"/>
<rect x="660" y="236" width="20" height="4" fill="#DCCFAF"/>
<rect x="680" y="236" width="4" height="4" fill="#8A6B4A"/>
<rect x="684" y="236" width="116" height="4" fill="#DCCFAF"/>
<rect x="0" y="240" width="160" height="4" fill="#DCCFAF"/>
<rect x="160" y="240" width="64" height="4" fill="#8E3B32"/>
<rect x="224" y="240" width="8" height="4" fill="#71563B"/>
<rect x="232" y="240" width="24" height="4" fill="#6B4E32"/>
<rect x="256" y="240" width="8" height="4" fill="#71563B"/>
<rect x="264" y="240" width="64" height="4" fill="#8E3B32"/>
<rect x="328" y="240" width="32" height="4" fill="#DCCFAF"/>
<rect x="360" y="240" width="8" height="4" fill="#C8B990"/>
<rect x="368" y="240" width="48" height="4" fill="#DCCFAF"/>
<rect x="416" y="240" width="56" height="4" fill="#71563B"/>
<rect x="472" y="240" width="8" height="4" fill="#4A5258"/>
<rect x="480" y="240" width="8" height="4" fill="#71563B"/>
<rect x="488" y="240" width="8" height="4" fill="#4A5258"/>
<rect x="496" y="240" width="8" height="4" fill="#71563B"/>
<rect x="504" y="240" width="24" height="4" fill="#8A6B4A"/>
<rect x="528" y="240" width="176" height="4" fill="#71563B"/>
<rect x="704" y="240" width="96" height="4" fill="#DCCFAF"/>
<rect x="0" y="244" width="416" height="4" fill="#DCCFAF"/>
<rect x="416" y="244" width="4" height="4" fill="#8A6B4A"/>
<rect x="420" y="244" width="20" height="4" fill="#DCCFAF"/>
<rect x="440" y="244" width="4" height="4" fill="#8A6B4A"/>
<rect x="444" y="244" width="20" height="4" fill="#DCCFAF"/>
<rect x="464" y="244" width="4" height="4" fill="#8A6B4A"/>
<rect x="468" y="244" width="4" height="4" fill="#DCCFAF"/>
<rect x="472" y="244" width="8" height="4" fill="#4A5258"/>
<rect x="480" y="244" width="8" height="4" fill="#DCCFAF"/>
<rect x="488" y="244" width="8" height="4" fill="#4A5258"/>
<rect x="496" y="244" width="8" height="4" fill="#DCCFAF"/>
<rect x="504" y="244" width="24" height="4" fill="#8A6B4A"/>
<rect x="528" y="244" width="8" height="4" fill="#DCCFAF"/>
<rect x="536" y="244" width="4" height="4" fill="#8A6B4A"/>
<rect x="540" y="244" width="20" height="4" fill="#DCCFAF"/>
<rect x="560" y="244" width="4" height="4" fill="#8A6B4A"/>
<rect x="564" y="244" width="20" height="4" fill="#DCCFAF"/>
<rect x="584" y="244" width="4" height="4" fill="#8A6B4A"/>
<rect x="588" y="244" width="20" height="4" fill="#DCCFAF"/>
<rect x="608" y="244" width="4" height="4" fill="#8A6B4A"/>
<rect x="612" y="244" width="20" height="4" fill="#DCCFAF"/>
<rect x="632" y="244" width="4" height="4" fill="#8A6B4A"/>
<rect x="636" y="244" width="20" height="4" fill="#DCCFAF"/>
<rect x="656" y="244" width="4" height="4" fill="#8A6B4A"/>
<rect x="660" y="244" width="20" height="4" fill="#DCCFAF"/>
<rect x="680" y="244" width="4" height="4" fill="#8A6B4A"/>
<rect x="684" y="244" width="116" height="4" fill="#DCCFAF"/>
<rect x="0" y="248" width="416" height="4" fill="#DCCFAF"/>
<rect x="416" y="248" width="56" height="4" fill="#71563B"/>
<rect x="472" y="248" width="8" height="4" fill="#4A5258"/>
<rect x="480" y="248" width="8" height="4" fill="#71563B"/>
<rect x="488" y="248" width="8" height="4" fill="#4A5258"/>
<rect x="496" y="248" width="8" height="4" fill="#71563B"/>
<rect x="504" y="248" width="24" height="4" fill="#8A6B4A"/>
<rect x="528" y="248" width="176" height="4" fill="#71563B"/>
<rect x="704" y="248" width="96" height="4" fill="#DCCFAF"/>
<rect x="0" y="252" width="472" height="4" fill="#DCCFAF"/>
<rect x="472" y="252" width="8" height="4" fill="#4A5258"/>
<rect x="480" y="252" width="8" height="4" fill="#DCCFAF"/>
<rect x="488" y="252" width="8" height="4" fill="#4A5258"/>
<rect x="496" y="252" width="8" height="4" fill="#DCCFAF"/>
<rect x="504" y="252" width="24" height="4" fill="#8A6B4A"/>
<rect x="528" y="252" width="184" height="4" fill="#DCCFAF"/>
<rect x="712" y="252" width="8" height="4" fill="#B5A57F"/>
<rect x="720" y="252" width="80" height="4" fill="#DCCFAF"/>
<rect x="0" y="256" width="232" height="4" fill="#DCCFAF"/>
<rect x="232" y="256" width="8" height="4" fill="#C8B990"/>
<rect x="240" y="256" width="232" height="4" fill="#DCCFAF"/>
<rect x="472" y="256" width="8" height="4" fill="#4A5258"/>
<rect x="480" y="256" width="8" height="4" fill="#DCCFAF"/>
<rect x="488" y="256" width="8" height="4" fill="#4A5258"/>
<rect x="496" y="256" width="8" height="4" fill="#DCCFAF"/>
<rect x="504" y="256" width="24" height="4" fill="#8A6B4A"/>
<rect x="528" y="256" width="272" height="4" fill="#DCCFAF"/>
<rect x="0" y="260" width="472" height="4" fill="#DCCFAF"/>
<rect x="472" y="260" width="8" height="4" fill="#4A5258"/>
<rect x="480" y="260" width="8" height="4" fill="#DCCFAF"/>
<rect x="488" y="260" width="8" height="4" fill="#4A5258"/>
<rect x="496" y="260" width="304" height="4" fill="#DCCFAF"/>
<rect x="0" y="264" width="48" height="4" fill="#DCCFAF"/>
<rect x="48" y="264" width="8" height="4" fill="#B5A57F"/>
<rect x="56" y="264" width="416" height="4" fill="#DCCFAF"/>
<rect x="472" y="264" width="8" height="4" fill="#4A5258"/>
<rect x="480" y="264" width="8" height="4" fill="#DCCFAF"/>
<rect x="488" y="264" width="8" height="4" fill="#4A5258"/>
<rect x="496" y="264" width="304" height="4" fill="#DCCFAF"/>
<rect x="0" y="268" width="464" height="4" fill="#DCCFAF"/>
<rect x="464" y="268" width="8" height="4" fill="#372F28"/>
<rect x="472" y="268" width="8" height="4" fill="#4A4038"/>
<rect x="480" y="268" width="8" height="4" fill="#DCCFAF"/>
<rect x="488" y="268" width="8" height="4" fill="#4A4038"/>
<rect x="496" y="268" width="8" height="4" fill="#372F28"/>
<rect x="504" y="268" width="8" height="4" fill="#C8B990"/>
<rect x="512" y="268" width="36" height="4" fill="#DCCFAF"/>
<rect x="548" y="268" width="4" height="4" fill="#EFF2F1"/>
<rect x="552" y="268" width="4" height="4" fill="#A84A3F"/>
<rect x="556" y="268" width="32" height="4" fill="#DCCFAF"/>
<rect x="588" y="268" width="4" height="4" fill="#EFF2F1"/>
<rect x="592" y="268" width="4" height="4" fill="#A84A3F"/>
<rect x="596" y="268" width="24" height="4" fill="#DCCFAF"/>
<rect x="620" y="268" width="4" height="4" fill="#EFF2F1"/>
<rect x="624" y="268" width="4" height="4" fill="#A84A3F"/>
<rect x="628" y="268" width="172" height="4" fill="#DCCFAF"/>
<rect x="0" y="272" width="464" height="4" fill="#DCCFAF"/>
<rect x="464" y="272" width="8" height="4" fill="#372F28"/>
<rect x="472" y="272" width="8" height="4" fill="#4A4038"/>
<rect x="480" y="272" width="8" height="4" fill="#DCCFAF"/>
<rect x="488" y="272" width="8" height="4" fill="#4A4038"/>
<rect x="496" y="272" width="8" height="4" fill="#372F28"/>
<rect x="504" y="272" width="40" height="4" fill="#DCCFAF"/>
<rect x="544" y="272" width="8" height="4" fill="#EFF2F1"/>
<rect x="552" y="272" width="32" height="4" fill="#DCCFAF"/>
<rect x="584" y="272" width="8" height="4" fill="#EFF2F1"/>
<rect x="592" y="272" width="24" height="4" fill="#DCCFAF"/>
<rect x="616" y="272" width="8" height="4" fill="#EFF2F1"/>
<rect x="624" y="272" width="176" height="4" fill="#DCCFAF"/>
<rect x="0" y="276" width="604" height="4" fill="#DCCFAF"/>
<rect x="604" y="276" width="8" height="4" fill="#C8B990"/>
<rect x="612" y="276" width="188" height="4" fill="#DCCFAF"/>
<rect x="0" y="280" width="136" height="4" fill="#DCCFAF"/>
<rect x="136" y="280" width="8" height="4" fill="#B5A57F"/>
<rect x="144" y="280" width="656" height="4" fill="#DCCFAF"/>
<rect x="0" y="284" width="740" height="4" fill="#DCCFAF"/>
<rect x="740" y="284" width="8" height="4" fill="#C8B990"/>
<rect x="748" y="284" width="52" height="4" fill="#DCCFAF"/>
<rect x="0" y="288" width="276" height="4" fill="#DCCFAF"/>
<rect x="276" y="288" width="8" height="4" fill="#B5A57F"/>
<rect x="284" y="288" width="184" height="4" fill="#DCCFAF"/>
<rect x="468" y="288" width="8" height="4" fill="#C8B990"/>
<rect x="476" y="288" width="324" height="4" fill="#DCCFAF"/>
<rect x="0" y="292" width="800" height="4" fill="#DCCFAF"/>
<rect x="0" y="296" width="800" height="4" fill="#DCCFAF"/>
</svg>