<svg xmlns="http://www.w3.org/2000/svg" viewBox="0 0 800 300" role="img" aria-label="Pixel art of a volunteer carrying supplies through a relief camp of wall tents" shape-rendering="crispEdges">
<!-- generated by tools/niche_pixel.py; edit the generator, not these rects -->
<rect x="0" y="0" width="800" height="4" fill="#C7D2DB"/>
<rect x="0" y="4" width="800" height="4" fill="#C7D2DB"/>
<rect x="0" y="8" width="800" height="4" fill="#C7D2DB"/>
<rect x="0" y="12" width="800" height="4" fill="#C7D2DB"/>
<rect x="0" y="16" width="800" height="4" fill="#C7D2DB"/>
<rect x="0" y="20" width="800" height="4" fill="#C7D2DB"/>
<rect x="0" y="24" width="72" height="4" fill="#C7D2DB"/>
<rect x="72" y="24" width="56" height="4" fill="#EFF2F1"/>
<rect x="128" y="24" width="216" height="4" fill="#C7D2DB"/>
<rect x="344" y="24" width="32" height="4" fill="#EFF2F1"/>
<rect x="376" y="24" width="240" height="4" fill="#C7D2DB"/>
<rect x="616" y="24" width="48" height="4" fill="#EFF2F1"/>
<rect x="664" y="24" width="136" height="4" fill="#C7D2DB"/>
<rect x="0" y="28" width="72" height="4" fill="#C7D2DB"/>
<rect x="72" y="28" width="56" height="4" fill="#EFF2F1"/>
<rect x="128" y="28" width="216" height="4" fill="#C7D2DB"/>
<rect x="344" y="28" width="32" height="4" fill="#EFF2F1"/>
<rect x="376" y="28" width="240" height="4" fill="#C7D2DB"/>
<rect x="616" y="28" width="48" height="4" fill="#EFF2F1"/>
<rect x="664" y="28" width="136" height="4" fill="#C7D2DB"/>
<rect x="0" y="32" width="60" height="4" fill="#C7D2DB"/>
<rect x="60" y="32" width="80" height="4" fill="#EFF2F1"/>
<rect x="140" y="32" width="192" height="4" fill="#C7D2DB"/>
<rect x="332" y="32" width="56" height="4" fill="#EFF2F1"/>
<rect x="388" y="32" width="216" height="4" fill="#C7D2DB"/>
<rect x="604" y="32" width="72" height="4" fill="#EFF2F1"/>
<rect x="676" y="32" width="124" height="4" fill="#C7D2DB"/>
<rect x="0" y="36" width="60" height="4" fill="#C7D2DB"/>
<rect x="60" y="36" width="80" height="4" fill="#EFF2F1"/>
<rect x="140" y="36" width="192" height="4" fill="#C7D2DB"/>
<rect x="332" y="36" width="56" height="4" fill="#EFF2F1"/>
<rect x="388" y="36" width="216" height="4" fill="#C7D2DB"/>
<rect x="604" y="36" width="72" height="4" fill="#EFF2F1"/>
<rect x="676" y="36" width="124" height="4" fill="#C7D2DB"/>
<rect x="0" y="40" width="68" height="4" fill="#C7D2DB"/>
<rect x="68" y="40" width="88" height="4" fill="#D9DFDE"/>
<rect x="156" y="40" width="184" height="4" fill="#C7D2DB"/>
<rect x="340" y="40" width="64" height="4" fill="#D9DFDE"/>
<rect x="404" y="40" width="208" height="4" fill="#C7D2DB"/>
<rect x="612" y="40" width="80" height="4" fill="#D9DFDE"/>
<rect x="692" y="40" width="108" height="4" fill="#C7D2DB"/>
<rect x="0" y="44" width="800" height="4" fill="#C7D2DB"/>
<rect x="0" y="48" width="800" height="4" fill="#C7D2DB"/>
<rect x="0" y="52" width="800" height="4" fill="#C7D2DB"/>
<rect x="0" y="56" width="800" height="4" fill="#C7D2DB"/>
<rect x="0" y="60" width="800" height="4" fill="#C7D2DB"/>
<rect x="0" y="64" width="800" height="4" fill="#C7D2DB"/>
<rect x="0" y="68" width="800" height="4" fill="#C7D2DB"/>
<rect x="0" y="72" width="800" height="4" fill="#D2DAD8"/>
<rect x="0" y="76" width="800" height="4" fill="#D2DAD8"/>
<rect x="0" y="80" width="800" height="4" fill="#D2DAD8"/>
<rect x="0" y="84" width="800" height="4" fill="#D2DAD8"/>
<rect x="0" y="88" width="800" height="4" fill="#D2DAD8"/>
<rect x="0" y="92" width="800" height="4" fill="#D2DAD8"/>
<rect x="0" y="96" width="800" height="4" fill="#D2DAD8"/>
<rect x="0" y="100" width="800" height="4" fill="#D2DAD8"/>
<rect x="0" y="104" width="800" height="4" fill="#D2DAD8"/>
<rect x="0" y="108" width="800" height="4" fill="#D2DAD8"/>
<rect x="0" y="112" width="800" height="4" fill="#D2DAD8"/>
<rect x="0" y="116" width="800" height="4" fill="#D2DAD8"/>
<rect x="0" y="120" width="800" height="4" fill="#D2DAD8"/>
<rect x="0" y="124" width="800" height="4" fill="#D2DAD8"/>
<rect x="0" y="128" width="800" height="4" fill="#DFE0D2"/>
<rect x="0" y="132" width="800" height="4" fill="#DFE0D2"/>
<rect x="0" y="136" width="800" height="4" fill="#DFE0D2"/>
<rect x="0" y="140" width="800" height="4" fill="#DFE0D2"/>
<rect x="0" y="144" width="800" height="4" fill="#DFE0D2"/>
<rect x="0" y="148" width="244" height="4" fill="#DFE0D2"/>
<rect x="244" y="148" width="132" height="4" fill="#909880"/>
<rect x="376" y="148" width="424" height="4" fill="#DFE0D2"/>
<rect x="0" y="152" width="80" height="4" fill="#DFE0D2"/>
<rect x="80" y="152" width="164" height="4" fill="#909880"/>
<rect x="244" y="152" width="132" height="4" fill="#A8AF97"/>
<rect x="376" y="152" width="108" height="4" fill="#909880"/>
<rect x="484" y="152" width="276" height="4" fill="#DFE0D2"/>
<rect x="760" y="152" width="40" height="4" fill="#909880"/>
<rect x="0" y="156" width="80" height="4" fill="#909880"/>
<rect x="80" y="156" width="312" height="4" fill="#A8AF97"/>
<rect x="392" y="156" width="24" height="4" fill="#EFF2F1"/>
<rect x="416" y="156" width="68" height="4" fill="#A8AF97"/>
<rect x="484" y="156" width="104" height="4" fill="#909880"/>
<rect x="588" y="156" width="92" height="4" fill="#DFE0D2"/>
<rect x="680" y="156" width="80" height="4" fill="#909880"/>
<rect x="760" y="156" width="40" height="4" fill="#A8AF97"/>
<rect x="0" y="160" width="392" height="4" fill="#A8AF97"/>
<rect x="392" y="160" width="24" height="4" fill="#EFF2F1"/>
<rect x="416" y="160" width="172" height="4" fill="#A8AF97"/>
<rect x="588" y="160" width="92" height="4" fill="#909880"/>
<rect x="680" y="160" width="120" height="4" fill="#A8AF97"/>
<rect x="0" y="164" width="184" height="4" fill="#A8AF97"/>
<rect x="184" y="164" width="24" height="4" fill="#9C927B"/>
<rect x="208" y="164" width="184" height="4" fill="#A8AF97"/>
<rect x="392" y="164" width="16" height="4" fill="#D9B48F"/>
<rect x="408" y="164" width="16" height="4" fill="#9C927B"/>
<rect x="424" y="164" width="168" height="4" fill="#A8AF97"/>
<rect x="592" y="164" width="24" height="4" fill="#9C927B"/>
<rect x="616" y="164" width="120" height="4" fill="#A8AF97"/>
<rect x="736" y="164" width="24" height="4" fill="#9C927B"/>
<rect x="760" y="164" width="40" height="4" fill="#A8AF97"/>
<rect x="0" y="168" width="184" height="4" fill="#A8AF97"/>
<rect x="184" y="168" width="24" height="4" fill="#9C927B"/>
<rect x="208" y="168" width="184" height="4" fill="#A8AF97"/>
<rect x="392" y="168" width="16" height="4" fill="#D9B48F"/>
<rect x="408" y="168" width="16" height="4" fill="#9C927B"/>
<rect x="424" y="168" width="168" height="4" fill="#A8AF97"/>
<rect x="592" y="168" width="24" height="4" fill="#9C927B"/>
<rect x="616" y="168" width="120" height="4" fill="#A8AF97"/>
<rect x="736" y="168" width="24" height="4" fill="#9C927B"/>
<rect x="760" y="168" width="40" height="4" fill="#A8AF97"/>
<rect x="0" y="172" width="176" height="4" fill="#DCCFAF"/>
<rect x="176" y="172" width="16" height="4" fill="#EFF2F1"/>
<rect x="192" y="172" width="8" height="4" fill="#9C927B"/>
<rect x="200" y="172" width="16" height="4" fill="#EFF2F1"/>
<rect x="216" y="172" width="176" height="4" fill="#DCCFAF"/>
<rect x="392" y="172" width="8" height="4" fill="#D9B48F"/>
<rect x="400" y="172" width="8" height="4" fill="#3A424D"/>
<rect x="408" y="172" width="8" height="4" fill="#D9B48F"/>
<rect x="416" y="172" width="168" height="4" fill="#DCCFAF"/>
<rect x="584" y="172" width="16" height="4" fill="#EFF2F1"/>
<rect x="600" y="172" width="8" height="4" fill="#9C927B"/>
<rect x="608" y="172" width="16" height="4" fill="#EFF2F1"/>
<rect x="624" y="172" width="104" height="4" fill="#DCCFAF"/>
<rect x="728" y="172" width="16" height="4" fill="#EFF2F1"/>
<rect x="744" y="172" width="8" height="4" fill="#9C927B"/>
<rect x="752" y="172" width="16" height="4" fill="#EFF2F1"/>
<rect x="768" y="172" width="32" height="4" fill="#DCCFAF"/>
<rect x="0" y="176" width="176" height="4" fill="#DCCFAF"/>
<rect x="176" y="176" width="16" height="4" fill="#EFF2F1"/>
<rect x="192" y="176" width="8" height="4" fill="#9C927B"/>
<rect x="200" y="176" width="16" height="4" fill="#EFF2F1"/>
<rect x="216" y="176" width="176" height="4" fill="#DCCFAF"/>
<rect x="392" y="176" width="8" height="4" fill="#D9B48F"/>
<rect x="400" y="176" width="8" height="4" fill="#3A424D"/>
<rect x="408" y="176" width="8" height="4" fill="#D9B48F"/>
<rect x="416" y="176" width="168" height="4" fill="#DCCFAF"/>
<rect x="584" y="176" width="16" height="4" fill="#EFF2F1"/>
<rect x="600" y="176" width="8" height="4" fill="#9C927B"/>
<rect x="608" y="176" width="16" height="4" fill="#EFF2F1"/>
<rect x="624" y="176" width="104" height="4" fill="#DCCFAF"/>
<rect x="728" y="176" width="16" height="4" fill="#EFF2F1"/>
<rect x="744" y="176" width="8" height="4" fill="#9C927B"/>
<rect x="752" y="176" width="16" height="4" fill="#EFF2F1"/>
<rect x="768" y="176" width="32" height="4" fill="#DCCFAF"/>
<rect x="0" y="180" width="168" height="4" fill="#DCCFAF"/>
<rect x="168" y="180" width="24" height="4" fill="#EFF2F1"/>
<rect x="192" y="180" width="8" height="4" fill="#9C927B"/>
<rect x="200" y="180" width="24" height="4" fill="#EFF2F1"/>
<rect x="224" y="180" width="168" height="4" fill="#DCCFAF"/>
<rect x="392" y="180" width="24" height="4" fill="#D9B48F"/>
<rect x="416" y="180" width="160" height="4" fill="#DCCFAF"/>
<rect x="576" y="180" width="24" height="4" fill="#EFF2F1"/>
<rect x="600" y="180" width="8" height="4" fill="#9C927B"/>
<rect x="608" y="180" width="24" height="4" fill="#EFF2F1"/>
<rect x="632" y="180" width="88" height="4" fill="#DCCFAF"/>
<rect x="720" y="180" width="24" height="4" fill="#EFF2F1"/>
<rect x="744" y="180" width="8" height="4" fill="#9C927B"/>
<rect x="752" y="180" width="24" height="4" fill="#EFF2F1"/>
<rect x="776" y="180" width="24" height="4" fill="#DCCFAF"/>
<rect x="0" y="184" width="168" height="4" fill="#DCCFAF"/>
<rect x="168" y="184" width="24" height="4" fill="#EFF2F1"/>
<rect x="192" y="184" width="8" height="4" fill="#9C927B"/>
<rect x="200" y="184" width="24" height="4" fill="#EFF2F1"/>
<rect x="224" y="184" width="168" height="4" fill="#DCCFAF"/>
<rect x="392" y="184" width="24" height="4" fill="#D9B48F"/>
<rect x="416" y="184" width="160" height="4" fill="#DCCFAF"/>
<rect x="576" y="184" width="24" height="4" fill="#EFF2F1"/>
<rect x="600" y="184" width="8" height="4" fill="#9C927B"/>
<rect x="608" y="184" width="24" height="4" fill="#EFF2F1"/>
<rect x="632" y="184" width="88" height="4" fill="#DCCFAF"/>
<rect x="720" y="184" width="24" height="4" fill="#EFF2F1"/>
<rect x="744" y="184" width="8" height="4" fill="#9C927B"/>
<rect x="752" y="184" width="24" height="4" fill="#EFF2F1"/>
<rect x="776" y="184" width="24" height="4" fill="#DCCFAF"/>
<rect x="0" y="188" width="160" height="4" fill="#DCCFAF"/>
<rect x="160" y="188" width="32" height="4" fill="#EFF2F1"/>
<rect x="192" y="188" width="8" height="4" fill="#9C927B"/>
<rect x="200" y="188" width="32" height="4" fill="#EFF2F1"/>
<rect x="232" y="188" width="152" height="4" fill="#DCCFAF"/>
<rect x="384" y="188" width="40" height="4" fill="#EFF2F1"/>
<rect x="424" y="188" width="144" height="4" fill="#DCCFAF"/>
<rect x="568" y="188" width="32" height="4" fill="#EFF2F1"/>
<rect x="600" y="188" width="8" height="4" fill="#9C927B"/>
<rect x="608" y="188" width="32" height="4" fill="#EFF2F1"/>
<rect x="640" y="188" width="72" height="4" fill="#DCCFAF"/>
<rect x="712" y="188" width="32" height="4" fill="#EFF2F1"/>
<rect x="744" y="188" width="8" height="4" fill="#9C927B"/>
<rect x="752" y="188" width="32" height="4" fill="#EFF2F1"/>
<rect x="784" y="188" width="16" height="4" fill="#DCCFAF"/>
<rect x="0" y="192" width="160" height="4" fill="#DCCFAF"/>
<rect x="160" y="192" width="32" height="4" fill="#EFF2F1"/>
<rect x="192" y="192" width="8" height="4" fill="#9C927B"/>
<rect x="200" y="192" width="32" height="4" fill="#EFF2F1"/>
<rect x="232" y="192" width="152" height="4" fill="#DCCFAF"/>
<rect x="384" y="192" width="40" height="4" fill="#EFF2F1"/>
<rect x="424" y="192" width="144" height="4" fill="#DCCFAF"/>
<rect x="568" y="192" width="32" height="4" fill="#EFF2F1"/>
<rect x="600" y="192" width="8" height="4" fill="#9C927B"/>
<rect x="608" y="192" width="32" height="4" fill="#EFF2F1"/>
<rect x="640" y="192" width="72" height="4" fill="#DCCFAF"/>
<rect x="712" y="192" width="32" height="4" fill="#EFF2F1"/>
<rect x="744" y="192" width="8" height="4" fill="#9C927B"/>
<rect x="752" y="192" width="32" height="4" fill="#EFF2F1"/>
<rect x="784" y="192" width="16" height="4" fill="#DCCFAF"/>
<rect x="0" y="196" width="152" height="4" fill="#DCCFAF"/>
<rect x="152" y="196" width="40" height="4" fill="#EFF2F1"/>
<rect x="192" y="196" width="8" height="4" fill="#9C927B"/>
<rect x="200" y="196" width="40" height="4" fill="#EFF2F1"/>
<rect x="240" y="196" width="56" height="4" fill="#DCCFAF"/>
<rect x="296" y="196" width="8" height="4" fill="#B5A57F"/>
<rect x="304" y="196" width="80" height="4" fill="#DCCFAF"/>
<rect x="384" y="196" width="8" height="4" fill="#9C927B"/>
<rect x="392" y="196" width="24" height="4" fill="#EFF2F1"/>
<rect x="416" y="196" width="16" height="4" fill="#8E8064"/>
<rect x="432" y="196" width="8" height="4" fill="#A84A3F"/>
<rect x="440" y="196" width="16" height="4" fill="#8E8064"/>
<rect x="456" y="196" width="104" height="4" fill="#DCCFAF"/>
<rect x="560" y="196" width="40" height="4" fill="#EFF2F1"/>
<rect x="600" y="196" width="8" height="4" fill="#9C927B"/>
<rect x="608" y="196" width="40" height="4" fill="#EFF2F1"/>
<rect x="648" y="196" width="56" height="4" fill="#DCCFAF"/>
<rect x="704" y="196" width="40" height="4" fill="#EFF2F1"/>
<rect x="744" y="196" width="8" height="4" fill="#9C927B"/>
<rect x="752" y="196" width="40" height="4" fill="#EFF2F1"/>
<rect x="792" y="196" width="8" height="4" fill="#DCCFAF"/>
<rect x="0" y="200" width="28" height="4" fill="#DCCFAF"/>
<rect x="28" y="200" width="8" height="4" fill="#B5A57F"/>
<rect x="36" y="200" width="116" height="4" fill="#DCCFAF"/>
<rect x="152" y="200" width="40" height="4" fill="#EFF2F1"/>
<rect x="192" y="200" width="8" height="4" fill="#9C927B"/>
<rect x="200" y="200" width="40" height="4" fill="#EFF2F1"/>
<rect x="240" y="200" width="144" height="4" fill="#DCCFAF"/>
<rect x="384" y="200" width="8" height="4" fill="#9C927B"/>
<rect x="392" y="200" width="24" height="4" fill="#EFF2F1"/>
<rect x="416" y="200" width="16" height="4" fill="#8E8064"/>
<rect x="432" y="200" width="8" height="4" fill="#A84A3F"/>
<rect x="440" y="200" width="16" height="4" fill="#8E8064"/>
<rect x="456" y="200" width="104" height="4" fill="#DCCFAF"/>
<rect x="560" y="200" width="40" height="4" fill="#EFF2F1"/>
<rect x="600" y="200" width="8" height="4" fill="#9C927B"/>
<rect x="608" y="200" width="40" height="4" fill="#EFF2F1"/>
<rect x="648" y="200" width="56" height="4" fill="#DCCFAF"/>
<rect x="704" y="200" width="40" height="4" fill="#EFF2F1"/>
<rect x="744" y="200" width="8" height="4" fill="#9C927B"/>
<rect x="752" y="200" width="40" height="4" fill="#EFF2F1"/>
<rect x="792" y="200" width="8" height="4" fill="#DCCFAF"/>
<rect x="0" y="204" width="144" height="4" fill="#DCCFAF"/>
<rect x="144" y="204" width="48" height="4" fill="#EFF2F1"/>
<rect x="192" y="204" width="8" height="4" fill="#9C927B"/>
<rect x="200" y="204" width="48" height="4" fill="#EFF2F1"/>
<rect x="248" y="204" width="136" height="4" fill="#DCCFAF"/>
<rect x="384" y="204" width="8" height="4" fill="#9C927B"/>
<rect x="392" y="204" width="24" height="4" fill="#EFF2F1"/>
<rect x="416" y="204" width="8" height="4" fill="#8E8064"/>
<rect x="424" y="204" width="24" height="4" fill="#A84A3F"/>
<rect x="448" y="204" width="8" height="4" fill="#8E8064"/>
<rect x="456" y="204" width="96" height="4" fill="#DCCFAF"/>
<rect x="552" y="204" width="48" height="4" fill="#EFF2F1"/>
<rect x="600" y="204" width="8" height="4" fill="#9C927B"/>
<rect x="608" y="204" width="48" height="4" fill="#EFF2F1"/>
<rect x="656" y="204" width="40" height="4" fill="#DCCFAF"/>
<rect x="696" y="204" width="104" height="4" fill="#9C927B"/>
<rect x="0" y="208" width="144" height="4" fill="#DCCFAF"/>
<rect x="144" y="208" width="48" height="4" fill="#EFF2F1"/>
<rect x="192" y="208" width="8" height="4" fill="#9C927B"/>
<rect x="200" y="208" width="48" height="4" fill="#EFF2F1"/>
<rect x="248" y="208" width="136" height="4" fill="#DCCFAF"/>
<rect x="384" y="208" width="8" height="4" fill="#9C927B"/>
<rect x="392" y="208" width="24" height="4" fill="#EFF2F1"/>
<rect x="416" y="208" width="8" height="4" fill="#8E8064"/>
<rect x="424" y="208" width="24" height="4" fill="#A84A3F"/>
<rect x="448" y="208" width="8" height="4" fill="#8E8064"/>
<rect x="456" y="208" width="96" height="4" fill="#DCCFAF"/>
<rect x="552" y="208" width="48" height="4" fill="#EFF2F1"/>
<rect x="600" y="208" width="8" height="4" fill="#9C927B"/>
<rect x="608" y="208" width="48" height="4" fill="#EFF2F1"/>
<rect x="656" y="208" width="40" height="4" fill="#DCCFAF"/>
<rect x="696" y="208" width="104" height="4" fill="#9C927B"/>
<rect x="0" y="212" width="136" height="4" fill="#DCCFAF"/>
<rect x="136" y="212" width="56" height="4" fill="#EFF2F1"/>
<rect x="192" y="212" width="8" height="4" fill="#9C927B"/>
<rect x="200" y="212" width="56" height="4" fill="#EFF2F1"/>
<rect x="256" y="212" width="128" height="4" fill="#DCCFAF"/>
<rect x="384" y="212" width="8" height="4" fill="#D9B48F"/>
<rect x="392" y="212" width="24" height="4" fill="#9C927B"/>
<rect x="416" y="212" width="16" height="4" fill="#8E8064"/>
<rect x="432" y="212" width="8" height="4" fill="#A84A3F"/>
<rect x="440" y="212" width="16" height="4" fill="#8E8064"/>
<rect x="456" y="212" width="88" height="4" fill="#DCCFAF"/>
<rect x="544" y="212" width="120" height="4" fill="#9C927B"/>
<rect x="664" y="212" width="136" height="4" fill="#DCCFAF"/>
<rect x="0" y="216" width="136" height="4" fill="#DCCFAF"/>
<rect x="136" y="216" width="56" height="4" fill="#EFF2F1"/>
<rect x="192" y="216" width="8" height="4" fill="#9C927B"/>
<rect x="200" y="216" width="56" height="4" fill="#EFF2F1"/>
<rect x="256" y="216" width="128" height="4" fill="#DCCFAF"/>
<rect x="384" y="216" width="8" height="4" fill="#D9B48F"/>
<rect x="392" y="216" width="24" height="4" fill="#9C927B"/>
<rect x="416" y="216" width="16" height="4" fill="#8E8064"/>
<rect x="432" y="216" width="8" height="4" fill="#A84A3F"/>
<rect x="440" y="216" width="16" height="4" fill="#8E8064"/>
<rect x="456" y="216" width="88" height="4" fill="#DCCFAF"/>
<rect x="544" y="216" width="120" height="4" fill="#9C927B"/>
<rect x="664" y="216" width="136" height="4" fill="#DCCFAF"/>
<rect x="0" y="220" width="128" height="4" fill="#DCCFAF"/>
<rect x="128" y="220" width="136" height="4" fill="#9C927B"/>
<rect x="264" y="220" width="128" height="4" fill="#DCCFAF"/>
<rect x="392" y="220" width="24" height="4" fill="#7E7D68"/>
<rect x="416" y="220" width="40" height="4" fill="#8E8064"/>
<rect x="456" y="220" width="344" height="4" fill="#DCCFAF"/>
<rect x="0" y="224" width="128" height="4" fill="#DCCFAF"/>
<rect x="128" y="224" width="136" height="4" fill="#9C927B"/>
<rect x="264" y="224" width="128" height="4" fill="#DCCFAF"/>
<rect x="392" y="224" width="24" height="4" fill="#7E7D68"/>
<rect x="416" y="224" width="40" height="4" fill="#8E8064"/>
<rect x="456" y="224" width="344" height="4" fill="#DCCFAF"/>
<rect x="0" y="228" width="92" height="4" fill="#DCCFAF"/>
<rect x="92" y="228" width="8" height="4" fill="#C8B990"/>
<rect x="100" y="228" width="284" height="4" fill="#DCCFAF"/>
<rect x="384" y="228" width="16" height="4" fill="#7E7D68"/>
<rect x="400" y="228" width="8" height="4" fill="#DCCFAF"/>
<rect x="408" y="228" width="8" height="4" fill="#66654F"/>
<rect x="416" y="228" width="384" height="4" fill="#DCCFAF"/>
<rect x="0" y="232" width="384" height="4" fill="#DCCFAF"/>
<rect x="384" y="232" width="16" height="4" fill="#7E7D68"/>
<rect x="400" y="232" width="8" height="4" fill="#DCCFAF"/>
<rect x="408" y="232" width="8" height="4" fill="#66654F"/>
<rect x="416" y="232" width="224" height="4" fill="#DCCFAF"/>
<rect x="640" y="232" width="8" height="4" fill="#C8B990"/>
<rect x="648" y="232" width="152" height="4" fill="#DCCFAF"/>
<rect x="0" y="236" width="384" height="4" fill="#DCCFAF"/>
<rect x="384" y="236" width="8" height="4" fill="#7E7D68"/>
<rect x="392" y="236" width="16" height="4" fill="#DCCFAF"/>
<rect x="408" y="236" width="8" height="4" fill="#66654F"/>
<rect x="416" y="236" width="384" height="4" fill="#DCCFAF"/>
<rect x="0" y="240" width="360" height="4" fill="#DCCFAF"/>
<rect x="360" y="240" width="8" height="4" fill="#C8B990"/>
<rect x="368" y="240" width="16" height="4" fill="#DCCFAF"/>
<rect x="384" y="240" width="8" height="4" fill="#7E7D68"/>
<rect x="392" y="240" width="16" height="4" fill="#DCCFAF"/>
<rect x="408" y="240" width="8" height="4" fill="#66654F"/>
<rect x="416" y="240" width="384" height="4" fill="#DCCFAF"/>
<rect x="0" y="244" width="384" height="4" fill="#DCCFAF"/>
<rect x="384" y="244" width="8" height="4" fill="#7E7D68"/>
<rect x="392" y="244" width="16" height="4" fill="#DCCFAF"/>
<rect x="408" y="244" width="8" height="4" fill="#66654F"/>
<rect x="416" y="244" width="384" height="4" fill="#DCCFAF"/>
<rect x="0" y="248" width="384" height="4" fill="#DCCFAF"/>
<rect x="384" y="248" width="8" height="4" fill="#7E7D68"/>
<rect x="392" y="248" width="16" height="4" fill="#DCCFAF"/>
<rect x="408" y="248" width="8" height="4" fill="#66654F"/>
<rect x="416" y="248" width="384" height="4" fill="#DCCFAF"/>
<rect x="0" y="252" width="384" height="4" fill="#DCCFAF"/>
<rect x="384" y="252" width="8" height="4" fill="#7E7D68"/>
<rect x="392" y="252" width="16" height="4" fill="#DCCFAF"/>
<rect x="408" y="252" width="8" height="4" fill="#66654F"/>
<rect x="416" y="252" width="296" height="4" fill="#DCCFAF"/>
<rect x="712" y="252" width="8" height="4" fill="#B5A57F"/>
<rect x="720" y="252" width="80" height="4" fill="#DCCFAF"/>
<rect x="0" y="256" width="232" height="4" fill="#DCCFAF"/>
<rect x="232" y="256" width="8" height="4" fill="#C8B990"/>
<rect x="240" y="256" width="144" height="4" fill="#DCCFAF"/>
<rect x="384" y="256" width="8" height="4" fill="#7E7D68"/>
<rect x="392" y="256" width="16" height="4" fill="#DCCFAF"/>
<rect x="408" y="256" width="8" height="4" fill="#66654F"/>
<rect x="416" y="256" width="384" height="4" fill="#DCCFAF"/>
<rect x="0" y="260" width="376" height="4" fill="#DCCFAF"/>
<rect x="376" y="260" width="16" height="4" fill="#4A4038"/>
<rect x="392" y="260" width="16" height="4" fill="#DCCFAF"/>
<rect x="408" y="260" width="16" height="4" fill="#4A4038"/>
<rect x="424" y="260" width="376" height="4" fill="#DCCFAF"/>
<rect x="0" y="264" width="48" height="4" fill="#DCCFAF"/>
<rect x="48" y="264" width="8" height="4" fill="#B5A57F"/>
<rect x="56" y="264" width="320" height="4" fill="#DCCFAF"/>
<rect x="376" y="264" width="16" height="4" fill="#4A4038"/>
<rect x="392" y="264" width="16" height="4" fill="#DCCFAF"/>
<rect x="408" y="264" width="16" height="4" fill="#4A4038"/>
<rect x="424" y="264" width="376" height="4" fill="#DCCFAF"/>
<rect x="0" y="268" width="504" height="4" fill="#DCCFAF"/>
<rect x="504" y="268" width="8" height="4" fill="#C8B990"/>
<rect x="512" y="268" width="288" height="4" fill="#DCCFAF"/>
<rect x="0" y="272" width="800" height="4" fill="#DCCFAF"/>
<rect x="0" y="276" width="604" height="4" fill="#DCCFAF"/>
<rect x="604" y="276" width="8" height="4" fill="#C8B990"/>
<rect x="612" y="276" width="188" height="4" fill="#DCCFAF"/>
<rect x="0" y="280" width="136" height="4" fill="#DCCFAF"/>
<rect x="136" y="280" width="8" height="4" fill="#B5A57F"/>
<rect x="144" y="280" width="656" height="4" fill="#DCCFAF"/>
<rect x="0" y="284" width="740" height="4" fill="#DCCFAF"/>
<rect x="740" y="284" width="8" height="4" fill="#C8B990"/>
<rect x="748" y="284" width="52" height="4" fill="#DCCFAF"/>
<rect x="0" y="288" width="276" height="4" fill="#DCCFAF"/>
<rect x="276" y="288" width="8" height="4" fill="#B5A57F"/>
<rect x="284" y="288" width="184" height="4" fill="#DCCFAF"/>
<rect x="468" y="288" width="8" height="4" fill="#C8B990"/>
<rect x="476" y="288" width="324" height="4" fill="#DCCFAF"/>
<rect x="0" y="292" width="800" height="4" fill="#DCCFAF"/>
<rect x="0" y="296" width="800" height="4" fill="#DCCFAF"/>
</svg>