<svg xmlns="http://www.w3.org/2000/svg" viewBox="0 0 800 300" role="img" aria-label="Pixel art of a wind technician heading out to turbines on an empty plain" shape-rendering="crispEdges">
<!-- generated by tools/niche_pixel.py; edit the generator, not these rects -->
<rect x="0" y="0" width="512" height="4" fill="#C7D2DB"/>
<rect x="512" y="0" width="16" height="4" fill="#EFF2F1"/>
<rect x="528" y="0" width="8" height="4" fill="#8B949B"/>
<rect x="536" y="0" width="16" height="4" fill="#EFF2F1"/>
<rect x="552" y="0" width="248" height="4" fill="#C7D2DB"/>
<rect x="0" y="4" width="496" height="4" fill="#C7D2DB"/>
<rect x="496" y="4" width="16" height="4" fill="#EFF2F1"/>
<rect x="512" y="4" width="8" height="4" fill="#C7D2DB"/>
<rect x="520" y="4" width="16" height="4" fill="#8B949B"/>
<rect x="536" y="4" width="264" height="4" fill="#C7D2DB"/>
<rect x="0" y="8" width="496" height="4" fill="#C7D2DB"/>
<rect x="496" y="8" width="16" height="4" fill="#EFF2F1"/>
<rect x="512" y="8" width="8" height="4" fill="#C7D2DB"/>
<rect x="520" y="8" width="16" height="4" fill="#8B949B"/>
<rect x="536" y="8" width="264" height="4" fill="#C7D2DB"/>
<rect x="0" y="12" width="480" height="4" fill="#C7D2DB"/>
<rect x="480" y="12" width="16" height="4" fill="#EFF2F1"/>
<rect x="496" y="12" width="24" height="4" fill="#C7D2DB"/>
<rect x="520" y="12" width="8" height="4" fill="#EFF2F1"/>
<rect x="528" y="12" width="8" height="4" fill="#D9DFDE"/>
<rect x="536" y="12" width="264" height="4" fill="#C7D2DB"/>
<rect x="0" y="16" width="480" height="4" fill="#C7D2DB"/>
<rect x="480" y="16" width="16" height="4" fill="#EFF2F1"/>
<rect x="496" y="16" width="24" height="4" fill="#C7D2DB"/>
<rect x="520" y="16" width="8" height="4" fill="#EFF2F1"/>
<rect x="528" y="16" width="8" height="4" fill="#D9DFDE"/>
<rect x="536" y="16" width="264" height="4" fill="#C7D2DB"/>
<rect x="0" y="20" width="464" height="4" fill="#C7D2DB"/>
<rect x="464" y="20" width="16" height="4" fill="#EFF2F1"/>
<rect x="480" y="20" width="40" height="4" fill="#C7D2DB"/>
<rect x="520" y="20" width="8" height="4" fill="#EFF2F1"/>
<rect x="528" y="20" width="8" height="4" fill="#D9DFDE"/>
<rect x="536" y="20" width="264" height="4" fill="#C7D2DB"/>
<rect x="0" y="24" width="72" height="4" fill="#C7D2DB"/>
<rect x="72" y="24" width="56" height="4" fill="#EFF2F1"/>
<rect x="128" y="24" width="216" height="4" fill="#C7D2DB"/>
<rect x="344" y="24" width="32" height="4" fill="#EFF2F1"/>
<rect x="376" y="24" width="88" height="4" fill="#C7D2DB"/>
<rect x="464" y="24" width="16" height="4" fill="#EFF2F1"/>
<rect x="480" y="24" width="40" height="4" fill="#C7D2DB"/>
<rect x="520" y="24" width="8" height="4" fill="#EFF2F1"/>
<rect x="528" y="24" width="8" height="4" fill="#D9DFDE"/>
<rect x="536" y="24" width="80" height="4" fill="#C7D2DB"/>
<rect x="616" y="24" width="48" height="4" fill="#EFF2F1"/>
<rect x="664" y="24" width="136" height="4" fill="#C7D2DB"/>
<rect x="0" y="28" width="72" height="4" fill="#C7D2DB"/>
<rect x="72" y="28" width="56" height="4" fill="#EFF2F1"/>
<rect x="128" y="28" width="216" height="4" fill="#C7D2DB"/>
<rect x="344" y="28" width="32" height="4" fill="#EFF2F1"/>
<rect x="376" y="28" width="144" height="4" fill="#C7D2DB"/>
<rect x="520" y="28" width="8" height="4" fill="#EFF2F1"/>
<rect x="528" y="28" width="8" height="4" fill="#D9DFDE"/>
<rect x="536" y="28" width="80" height="4" fill="#C7D2DB"/>
<rect x="616" y="28" width="48" height="4" fill="#EFF2F1"/>
<rect x="664" y="28" width="136" height="4" fill="#C7D2DB"/>
<rect x="0" y="32" width="60" height="4" fill="#C7D2DB"/>
<rect x="60" y="32" width="80" height="4" fill="#EFF2F1"/>
<rect x="140" y="32" width="192" height="4" fill="#C7D2DB"/>
<rect x="332" y="32" width="56" height="4" fill="#EFF2F1"/>
<rect x="388" y="32" width="132" height="4" fill="#C7D2DB"/>
<rect x="520" y="32" width="8" height="4" fill="#EFF2F1"/>
<rect x="528" y="32" width="8" height="4" fill="#D9DFDE"/>
<rect x="536" y="32" width="68" height="4" fill="#C7D2DB"/>
<rect x="604" y="32" width="72" height="4" fill="#EFF2F1"/>
<rect x="676" y="32" width="124" height="4" fill="#C7D2DB"/>
<rect x="0" y="36" width="60" height="4" fill="#C7D2DB"/>
<rect x="60" y="36" width="80" height="4" fill="#EFF2F1"/>
<rect x="140" y="36" width="192" height="4" fill="#C7D2DB"/>
<rect x="332" y="36" width="56" height="4" fill="#EFF2F1"/>
<rect x="388" y="36" width="132" height="4" fill="#C7D2DB"/>
<rect x="520" y="36" width="8" height="4" fill="#EFF2F1"/>
<rect x="528" y="36" width="8" height="4" fill="#D9DFDE"/>
<rect x="536" y="36" width="68" height="4" fill="#C7D2DB"/>
<rect x="604" y="36" width="72" height="4" fill="#EFF2F1"/>
<rect x="676" y="36" width="124" height="4" fill="#C7D2DB"/>
<rect x="0" y="40" width="68" height="4" fill="#C7D2DB"/>
<rect x="68" y="40" width="88" height="4" fill="#D9DFDE"/>
<rect x="156" y="40" width="184" height="4" fill="#C7D2DB"/>
<rect x="340" y="40" width="64" height="4" fill="#D9DFDE"/>
<rect x="404" y="40" width="116" height="4" fill="#C7D2DB"/>
<rect x="520" y="40" width="8" height="4" fill="#EFF2F1"/>
<rect x="528" y="40" width="8" height="4" fill="#D9DFDE"/>
<rect x="536" y="40" width="76" height="4" fill="#C7D2DB"/>
<rect x="612" y="40" width="80" height="4" fill="#D9DFDE"/>
<rect x="692" y="40" width="108" height="4" fill="#C7D2DB"/>
<rect x="0" y="44" width="520" height="4" fill="#C7D2DB"/>
<rect x="520" y="44" width="8" height="4" fill="#EFF2F1"/>
<rect x="528" y="44" width="8" height="4" fill="#D9DFDE"/>
<rect x="536" y="44" width="264" height="4" fill="#C7D2DB"/>
<rect x="0" y="48" width="520" height="4" fill="#C7D2DB"/>
<rect x="520" y="48" width="8" height="4" fill="#EFF2F1"/>
<rect x="528" y="48" width="8" height="4" fill="#D9DFDE"/>
<rect x="536" y="48" width="264" height="4" fill="#C7D2DB"/>
<rect x="0" y="52" width="520" height="4" fill="#C7D2DB"/>
<rect x="520" y="52" width="8" height="4" fill="#EFF2F1"/>
<rect x="528" y="52" width="8" height="4" fill="#D9DFDE"/>
<rect x="536" y="52" width="264" height="4" fill="#C7D2DB"/>
<rect x="0" y="56" width="520" height="4" fill="#C7D2DB"/>
<rect x="520" y="56" width="8" height="4" fill="#EFF2F1"/>
<rect x="528" y="56" width="8" height="4" fill="#D9DFDE"/>
<rect x="536" y="56" width="264" height="4" fill="#C7D2DB"/>
<rect x="0" y="60" width="520" height="4" fill="#C7D2DB"/>
<rect x="520" y="60" width="8" height="4" fill="#EFF2F1"/>
<rect x="528" y="60" width="8" height="4" fill="#D9DFDE"/>
<rect x="536" y="60" width="264" height="4" fill="#C7D2DB"/>
<rect x="0" y="64" width="520" height="4" fill="#C7D2DB"/>
<rect x="520" y="64" width="8" height="4" fill="#EFF2F1"/>
<rect x="528" y="64" width="8" height="4" fill="#D9DFDE"/>
<rect x="536" y="64" width="264" height="4" fill="#C7D2DB"/>
<rect x="0" y="68" width="520" height="4" fill="#C7D2DB"/>
<rect x="520" y="68" width="8" height="4" fill="#EFF2F1"/>
<rect x="528" y="68" width="8" height="4" fill="#D9DFDE"/>
<rect x="536" y="68" width="264" height="4" fill="#C7D2DB"/>
<rect x="0" y="72" width="520" height="4" fill="#D2DAD8"/>
<rect x="520" y="72" width="8" height="4" fill="#EFF2F1"/>
<rect x="528" y="72" width="8" height="4" fill="#D9DFDE"/>
<rect x="536" y="72" width="264" height="4" fill="#D2DAD8"/>
<rect x="0" y="76" width="520" height="4" fill="#D2DAD8"/>
<rect x="520" y="76" width="8" height="4" fill="#EFF2F1"/>
<rect x="528" y="76" width="8" height="4" fill="#D9DFDE"/>
<rect x="536" y="76" width="264" height="4" fill="#D2DAD8"/>
<rect x="0" y="80" width="520" height="4" fill="#D2DAD8"/>
<rect x="520" y="80" width="8" height="4" fill="#EFF2F1"/>
<rect x="528" y="80" width="8" height="4" fill="#D9DFDE"/>
<rect x="536" y="80" width="264" height="4" fill="#D2DAD8"/>
<rect x="0" y="84" width="520" height="4" fill="#D2DAD8"/>
<rect x="520" y="84" width="8" height="4" fill="#EFF2F1"/>
<rect x="528" y="84" width="8" height="4" fill="#D9DFDE"/>
<rect x="536" y="84" width="264" height="4" fill="#D2DAD8"/>
<rect x="0" y="88" width="520" height="4" fill="#D2DAD8"/>
<rect x="520" y="88" width="8" height="4" fill="#EFF2F1"/>
<rect x="528" y="88" width="8" height="4" fill="#D9DFDE"/>
<rect x="536" y="88" width="264" height="4" fill="#D2DAD8"/>
<rect x="0" y="92" width="520" height="4" fill="#D2DAD8"/>
<rect x="520" y="92" width="8" height="4" fill="#EFF2F1"/>
<rect x="528" y="92" width="8" height="4" fill="#D9DFDE"/>
<rect x="536" y="92" width="264" height="4" fill="#D2DAD8"/>
<rect x="0" y="96" width="520" height="4" fill="#D2DAD8"/>
<rect x="520" y="96" width="8" height="4" fill="#EFF2F1"/>
<rect x="528" y="96" width="8" height="4" fill="#D9DFDE"/>
<rect x="536" y="96" width="264" height="4" fill="#D2DAD8"/>
<rect x="0" y="100" width="520" height="4" fill="#D2DAD8"/>
<rect x="520" y="100" width="8" height="4" fill="#EFF2F1"/>
<rect x="528" y="100" width="8" height="4" fill="#D9DFDE"/>
<rect x="536" y="100" width="208" height="4" fill="#D2DAD8"/>
<rect x="744" y="100" width="8" height="4" fill="#EFF2F1"/>
<rect x="752" y="100" width="48" height="4" fill="#D2DAD8"/>
<rect x="0" y="104" width="520" height="4" fill="#D2DAD8"/>
<rect x="520" y="104" width="8" height="4" fill="#EFF2F1"/>
<rect x="528" y="104" width="8" height="4" fill="#D9DFDE"/>
<rect x="536" y="104" width="200" height="4" fill="#D2DAD8"/>
<rect x="736" y="104" width="8" height="4" fill="#EFF2F1"/>
<rect x="744" y="104" width="56" height="4" fill="#D2DAD8"/>
<rect x="0" y="108" width="520" height="4" fill="#D2DAD8"/>
<rect x="520" y="108" width="8" height="4" fill="#EFF2F1"/>
<rect x="528" y="108" width="8" height="4" fill="#D9DFDE"/>
<rect x="536" y="108" width="192" height="4" fill="#D2DAD8"/>
<rect x="728" y="108" width="8" height="4" fill="#EFF2F1"/>
<rect x="736" y="108" width="64" height="4" fill="#D2DAD8"/>
<rect x="0" y="112" width="520" height="4" fill="#D2DAD8"/>
<rect x="520" y="112" width="8" height="4" fill="#EFF2F1"/>
<rect x="528" y="112" width="8" height="4" fill="#D9DFDE"/>
<rect x="536" y="112" width="172" height="4" fill="#D2DAD8"/>
<rect x="708" y="112" width="8" height="4" fill="#EFF2F1"/>
<rect x="716" y="112" width="4" height="4" fill="#8B949B"/>
<rect x="720" y="112" width="8" height="4" fill="#EFF2F1"/>
<rect x="728" y="112" width="72" height="4" fill="#D2DAD8"/>
<rect x="0" y="116" width="520" height="4" fill="#D2DAD8"/>
<rect x="520" y="116" width="8" height="4" fill="#EFF2F1"/>
<rect x="528" y="116" width="8" height="4" fill="#D9DFDE"/>
<rect x="536" y="116" width="164" height="4" fill="#D2DAD8"/>
<rect x="700" y="116" width="8" height="4" fill="#EFF2F1"/>
<rect x="708" y="116" width="4" height="4" fill="#D2DAD8"/>
<rect x="712" y="116" width="8" height="4" fill="#8B949B"/>
<rect x="720" y="116" width="80" height="4" fill="#D2DAD8"/>
<rect x="0" y="120" width="520" height="4" fill="#D2DAD8"/>
<rect x="520" y="120" width="8" height="4" fill="#EFF2F1"/>
<rect x="528" y="120" width="8" height="4" fill="#D9DFDE"/>
<rect x="536" y="120" width="156" height="4" fill="#D2DAD8"/>
<rect x="692" y="120" width="8" height="4" fill="#EFF2F1"/>
<rect x="700" y="120" width="12" height="4" fill="#D2DAD8"/>
<rect x="712" y="120" width="4" height="4" fill="#EFF2F1"/>
<rect x="716" y="120" width="4" height="4" fill="#D9DFDE"/>
<rect x="720" y="120" width="80" height="4" fill="#D2DAD8"/>
<rect x="0" y="124" width="520" height="4" fill="#D2DAD8"/>
<rect x="520" y="124" width="8" height="4" fill="#EFF2F1"/>
<rect x="528" y="124" width="8" height="4" fill="#D9DFDE"/>
<rect x="536" y="124" width="148" height="4" fill="#D2DAD8"/>
<rect x="684" y="124" width="8" height="4" fill="#EFF2F1"/>
<rect x="692" y="124" width="20" height="4" fill="#D2DAD8"/>
<rect x="712" y="124" width="4" height="4" fill="#EFF2F1"/>
<rect x="716" y="124" width="4" height="4" fill="#D9DFDE"/>
<rect x="720" y="124" width="80" height="4" fill="#D2DAD8"/>
<rect x="0" y="128" width="520" height="4" fill="#DFE0D2"/>
<rect x="520" y="128" width="8" height="4" fill="#EFF2F1"/>
<rect x="528" y="128" width="8" height="4" fill="#D9DFDE"/>
<rect x="536" y="128" width="176" height="4" fill="#DFE0D2"/>
<rect x="712" y="128" width="4" height="4" fill="#EFF2F1"/>
<rect x="716" y="128" width="4" height="4" fill="#D9DFDE"/>
<rect x="720" y="128" width="80" height="4" fill="#DFE0D2"/>
<rect x="0" y="132" width="520" height="4" fill="#DFE0D2"/>
<rect x="520" y="132" width="8" height="4" fill="#EFF2F1"/>
<rect x="528" y="132" width="8" height="4" fill="#D9DFDE"/>
<rect x="536" y="132" width="176" height="4" fill="#DFE0D2"/>
<rect x="712" y="132" width="4" height="4" fill="#EFF2F1"/>
<rect x="716" y="132" width="4" height="4" fill="#D9DFDE"/>
<rect x="720" y="132" width="80" height="4" fill="#DFE0D2"/>
<rect x="0" y="136" width="520" height="4" fill="#DFE0D2"/>
<rect x="520" y="136" width="8" height="4" fill="#EFF2F1"/>
<rect x="528" y="136" width="8" height="4" fill="#D9DFDE"/>
<rect x="536" y="136" width="176" height="4" fill="#DFE0D2"/>
<rect x="712" y="136" width="4" height="4" fill="#EFF2F1"/>
<rect x="716" y="136" width="4" height="4" fill="#D9DFDE"/>
<rect x="720" y="136" width="80" height="4" fill="#DFE0D2"/>
<rect x="0" y="140" width="520" height="4" fill="#DFE0D2"/>
<rect x="520" y="140" width="8" height="4" fill="#EFF2F1"/>
<rect x="528" y="140" width="8" height="4" fill="#D9DFDE"/>
<rect x="536" y="140" width="176" height="4" fill="#DFE0D2"/>
<rect x="712" y="140" width="4" height="4" fill="#EFF2F1"/>
<rect x="716" y="140" width="4" height="4" fill="#D9DFDE"/>
<rect x="720" y="140" width="80" height="4" fill="#DFE0D2"/>
<rect x="0" y="144" width="520" height="4" fill="#DFE0D2"/>
<rect x="520" y="144" width="8" height="4" fill="#EFF2F1"/>
<rect x="528" y="144" width="8" height="4" fill="#D9DFDE"/>
<rect x="536" y="144" width="176" height="4" fill="#DFE0D2"/>
<rect x="712" y="144" width="4" height="4" fill="#EFF2F1"/>
<rect x="716" y="144" width="4" height="4" fill="#D9DFDE"/>
<rect x="720" y="144" width="80" height="4" fill="#DFE0D2"/>
<rect x="0" y="148" width="232" height="4" fill="#DFE0D2"/>
<rect x="232" y="148" width="24" height="4" fill="#EFF2F1"/>
<rect x="256" y="148" width="120" height="4" fill="#909880"/>
<rect x="376" y="148" width="144" height="4" fill="#DFE0D2"/>
<rect x="520" y="148" width="8" height="4" fill="#EFF2F1"/>
<rect x="528" y="148" width="8" height="4" fill="#D9DFDE"/>
<rect x="536" y="148" width="176" height="4" fill="#DFE0D2"/>
<rect x="712" y="148" width="4" height="4" fill="#EFF2F1"/>
<rect x="716" y="148" width="4" height="4" fill="#D9DFDE"/>
<rect x="720" y="148" width="80" height="4" fill="#DFE0D2"/>
<rect x="0" y="152" width="80" height="4" fill="#DFE0D2"/>
<rect x="80" y="152" width="152" height="4" fill="#909880"/>
<rect x="232" y="152" width="24" height="4" fill="#EFF2F1"/>
<rect x="256" y="152" width="120" height="4" fill="#A8AF97"/>
<rect x="376" y="152" width="108" height="4" fill="#909880"/>
<rect x="484" y="152" width="36" height="4" fill="#DFE0D2"/>
<rect x="520" y="152" width="8" height="4" fill="#EFF2F1"/>
<rect x="528" y="152" width="8" height="4" fill="#D9DFDE"/>
<rect x="536" y="152" width="176" height="4" fill="#DFE0D2"/>
<rect x="712" y="152" width="4" height="4" fill="#EFF2F1"/>
<rect x="716" y="152" width="4" height="4" fill="#D9DFDE"/>
<rect x="720" y="152" width="40" height="4" fill="#DFE0D2"/>
<rect x="760" y="152" width="40" height="4" fill="#909880"/>
<rect x="0" y="156" width="80" height="4" fill="#909880"/>
<rect x="80" y="156" width="152" height="4" fill="#A8AF97"/>
<rect x="232" y="156" width="16" height="4" fill="#EFF2F1"/>
<rect x="248" y="156" width="8" height="4" fill="#9C927B"/>
<rect x="256" y="156" width="228" height="4" fill="#A8AF97"/>
<rect x="484" y="156" width="36" height="4" fill="#909880"/>
<rect x="520" y="156" width="8" height="4" fill="#EFF2F1"/>
<rect x="528" y="156" width="8" height="4" fill="#D9DFDE"/>
<rect x="536" y="156" width="52" height="4" fill="#909880"/>
<rect x="588" y="156" width="92" height="4" fill="#DFE0D2"/>
<rect x="680" y="156" width="32" height="4" fill="#909880"/>
<rect x="712" y="156" width="4" height="4" fill="#EFF2F1"/>
<rect x="716" y="156" width="4" height="4" fill="#D9DFDE"/>
<rect x="720" y="156" width="40" height="4" fill="#909880"/>
<rect x="760" y="156" width="40" height="4" fill="#A8AF97"/>
<rect x="0" y="160" width="232" height="4" fill="#A8AF97"/>
<rect x="232" y="160" width="16" height="4" fill="#EFF2F1"/>
<rect x="248" y="160" width="8" height="4" fill="#9C927B"/>
<rect x="256" y="160" width="264" height="4" fill="#A8AF97"/>
<rect x="520" y="160" width="8" height="4" fill="#EFF2F1"/>
<rect x="528" y="160" width="8" height="4" fill="#D9DFDE"/>
<rect x="536" y="160" width="52" height="4" fill="#A8AF97"/>
<rect x="588" y="160" width="92" height="4" fill="#909880"/>
<rect x="680" y="160" width="32" height="4" fill="#A8AF97"/>
<rect x="712" y="160" width="4" height="4" fill="#EFF2F1"/>
<rect x="716" y="160" width="4" height="4" fill="#D9DFDE"/>
<rect x="720" y="160" width="80" height="4" fill="#A8AF97"/>
<rect x="0" y="164" width="232" height="4" fill="#A8AF97"/>
<rect x="232" y="164" width="8" height="4" fill="#D9B48F"/>
<rect x="240" y="164" width="8" height="4" fill="#3A424D"/>
<rect x="248" y="164" width="8" height="4" fill="#D9B48F"/>
<rect x="256" y="164" width="264" height="4" fill="#A8AF97"/>
<rect x="520" y="164" width="8" height="4" fill="#EFF2F1"/>
<rect x="528" y="164" width="8" height="4" fill="#D9DFDE"/>
<rect x="536" y="164" width="176" height="4" fill="#A8AF97"/>
<rect x="712" y="164" width="4" height="4" fill="#EFF2F1"/>
<rect x="716" y="164" width="4" height="4" fill="#D9DFDE"/>
<rect x="720" y="164" width="80" height="4" fill="#A8AF97"/>
<rect x="0" y="168" width="232" height="4" fill="#A8AF97"/>
<rect x="232" y="168" width="8" height="4" fill="#D9B48F"/>
<rect x="240" y="168" width="8" height="4" fill="#3A424D"/>
<rect x="248" y="168" width="8" height="4" fill="#D9B48F"/>
<rect x="256" y="168" width="264" height="4" fill="#A8AF97"/>
<rect x="520" y="168" width="8" height="4" fill="#EFF2F1"/>
<rect x="528" y="168" width="8" height="4" fill="#D9DFDE"/>
<rect x="536" y="168" width="176" height="4" fill="#A8AF97"/>
<rect x="712" y="168" width="4" height="4" fill="#EFF2F1"/>
<rect x="716" y="168" width="4" height="4" fill="#D9DFDE"/>
<rect x="720" y="168" width="80" height="4" fill="#A8AF97"/>
<rect x="0" y="172" width="112" height="4" fill="#DCCFAF"/>
<rect x="112" y="172" width="8" height="4" fill="#5A6B7E"/>
<rect x="120" y="172" width="8" height="4" fill="#D7E4E8"/>
<rect x="128" y="172" width="8" height="4" fill="#5A6B7E"/>
<rect x="136" y="172" width="96" height="4" fill="#DCCFAF"/>
<rect x="232" y="172" width="24" height="4" fill="#D9B48F"/>
<rect x="256" y="172" width="264" height="4" fill="#DCCFAF"/>
<rect x="520" y="172" width="8" height="4" fill="#EFF2F1"/>
<rect x="528" y="172" width="8" height="4" fill="#D9DFDE"/>
<rect x="536" y="172" width="176" height="4" fill="#DCCFAF"/>
<rect x="712" y="172" width="4" height="4" fill="#EFF2F1"/>
<rect x="716" y="172" width="4" height="4" fill="#D9DFDE"/>
<rect x="720" y="172" width="80" height="4" fill="#DCCFAF"/>
<rect x="0" y="176" width="112" height="4" fill="#DCCFAF"/>
<rect x="112" y="176" width="8" height="4" fill="#5A6B7E"/>
<rect x="120" y="176" width="8" height="4" fill="#D7E4E8"/>
<rect x="128" y="176" width="8" height="4" fill="#5A6B7E"/>
<rect x="136" y="176" width="96" height="4" fill="#DCCFAF"/>
<rect x="232" y="176" width="24" height="4" fill="#D9B48F"/>
<rect x="256" y="176" width="264" height="4" fill="#DCCFAF"/>
<rect x="520" y="176" width="8" height="4" fill="#EFF2F1"/>
<rect x="528" y="176" width="8" height="4" fill="#D9DFDE"/>
<rect x="536" y="176" width="176" height="4" fill="#DCCFAF"/>
<rect x="712" y="176" width="4" height="4" fill="#EFF2F1"/>
<rect x="716" y="176" width="4" height="4" fill="#D9DFDE"/>
<rect x="720" y="176" width="80" height="4" fill="#DCCFAF"/>
<rect x="0" y="180" width="80" height="4" fill="#DCCFAF"/>
<rect x="80" y="180" width="64" height="4" fill="#5A6B7E"/>
<rect x="144" y="180" width="80" height="4" fill="#DCCFAF"/>
<rect x="224" y="180" width="40" height="4" fill="#C9A84C"/>
<rect x="264" y="180" width="256" height="4" fill="#DCCFAF"/>
<rect x="520" y="180" width="8" height="4" fill="#EFF2F1"/>
<rect x="528" y="180" width="8" height="4" fill="#D9DFDE"/>
<rect x="536" y="180" width="176" height="4" fill="#DCCFAF"/>
<rect x="712" y="180" width="4" height="4" fill="#EFF2F1"/>
<rect x="716" y="180" width="4" height="4" fill="#D9DFDE"/>
<rect x="720" y="180" width="80" height="4" fill="#DCCFAF"/>
<rect x="0" y="184" width="80" height="4" fill="#DCCFAF"/>
<rect x="80" y="184" width="64" height="4" fill="#5A6B7E"/>
<rect x="144" y="184" width="80" height="4" fill="#DCCFAF"/>
<rect x="224" y="184" width="40" height="4" fill="#C9A84C"/>
<rect x="264" y="184" width="256" height="4" fill="#DCCFAF"/>
<rect x="520" y="184" width="8" height="4" fill="#EFF2F1"/>
<rect x="528" y="184" width="8" height="4" fill="#D9DFDE"/>
<rect x="536" y="184" width="176" height="4" fill="#DCCFAF"/>
<rect x="712" y="184" width="4" height="4" fill="#EFF2F1"/>
<rect x="716" y="184" width="4" height="4" fill="#D9DFDE"/>
<rect x="720" y="184" width="80" height="4" fill="#DCCFAF"/>
<rect x="0" y="188" width="80" height="4" fill="#DCCFAF"/>
<rect x="80" y="188" width="64" height="4" fill="#5A6B7E"/>
<rect x="144" y="188" width="80" height="4" fill="#DCCFAF"/>
<rect x="224" y="188" width="8" height="4" fill="#AD8F3C"/>
<rect x="232" y="188" width="24" height="4" fill="#C9A84C"/>
<rect x="256" y="188" width="8" height="4" fill="#AD8F3C"/>
<rect x="264" y="188" width="256" height="4" fill="#DCCFAF"/>
<rect x="520" y="188" width="8" height="4" fill="#EFF2F1"/>
<rect x="528" y="188" width="8" height="4" fill="#D9DFDE"/>
<rect x="536" y="188" width="264" height="4" fill="#DCCFAF"/>
<rect x="0" y="192" width="80" height="4" fill="#DCCFAF"/>
<rect x="80" y="192" width="64" height="4" fill="#5A6B7E"/>
<rect x="144" y="192" width="80" height="4" fill="#DCCFAF"/>
<rect x="224" y="192" width="8" height="4" fill="#AD8F3C"/>
<rect x="232" y="192" width="24" height="4" fill="#C9A84C"/>
<rect x="256" y="192" width="8" height="4" fill="#AD8F3C"/>
<rect x="264" y="192" width="256" height="4" fill="#DCCFAF"/>
<rect x="520" y="192" width="8" height="4" fill="#EFF2F1"/>
<rect x="528" y="192" width="8" height="4" fill="#D9DFDE"/>
<rect x="536" y="192" width="264" height="4" fill="#DCCFAF"/>
<rect x="0" y="196" width="88" height="4" fill="#DCCFAF"/>
<rect x="88" y="196" width="8" height="4" fill="#33383E"/>
<rect x="96" y="196" width="32" height="4" fill="#DCCFAF"/>
<rect x="128" y="196" width="8" height="4" fill="#33383E"/>
<rect x="136" y="196" width="88" height="4" fill="#DCCFAF"/>
<rect x="224" y="196" width="8" height="4" fill="#AD8F3C"/>
<rect x="232" y="196" width="24" height="4" fill="#C9A84C"/>
<rect x="256" y="196" width="8" height="4" fill="#AD8F3C"/>
<rect x="264" y="196" width="32" height="4" fill="#DCCFAF"/>
<rect x="296" y="196" width="8" height="4" fill="#B5A57F"/>
<rect x="304" y="196" width="216" height="4" fill="#DCCFAF"/>
<rect x="520" y="196" width="8" height="4" fill="#EFF2F1"/>
<rect x="528" y="196" width="8" height="4" fill="#D9DFDE"/>
<rect x="536" y="196" width="264" height="4" fill="#DCCFAF"/>
<rect x="0" y="200" width="28" height="4" fill="#DCCFAF"/>
<rect x="28" y="200" width="8" height="4" fill="#B5A57F"/>
<rect x="36" y="200" width="52" height="4" fill="#DCCFAF"/>
<rect x="88" y="200" width="8" height="4" fill="#33383E"/>
<rect x="96" y="200" width="32" height="4" fill="#DCCFAF"/>
<rect x="128" y="200" width="8" height="4" fill="#33383E"/>
<rect x="136" y="200" width="88" height="4" fill="#DCCFAF"/>
<rect x="224" y="200" width="8" height="4" fill="#AD8F3C"/>
<rect x="232" y="200" width="24" height="4" fill="#C9A84C"/>
<rect x="256" y="200" width="8" height="4" fill="#AD8F3C"/>
<rect x="264" y="200" width="256" height="4" fill="#DCCFAF"/>
<rect x="520" y="200" width="8" height="4" fill="#EFF2F1"/>
<rect x="528" y="200" width="8" height="4" fill="#D9DFDE"/>
<rect x="536" y="200" width="264" height="4" fill="#DCCFAF"/>
<rect x="0" y="204" width="224" height="4" fill="#DCCFAF"/>
<rect x="224" y="204" width="8" height="4" fill="#D9B48F"/>
<rect x="232" y="204" width="24" height="4" fill="#AD8F3C"/>
<rect x="256" y="204" width="8" height="4" fill="#D9B48F"/>
<rect x="264" y="204" width="256" height="4" fill="#DCCFAF"/>
<rect x="520" y="204" width="8" height="4" fill="#EFF2F1"/>
<rect x="528" y="204" width="8" height="4" fill="#D9DFDE"/>
<rect x="536" y="204" width="36" height="4" fill="#DCCFAF"/>
<rect x="572" y="204" width="8" height="4" fill="#B5A57F"/>
<rect x="580" y="204" width="220" height="4" fill="#DCCFAF"/>
<rect x="0" y="208" width="224" height="4" fill="#DCCFAF"/>
<rect x="224" y="208" width="8" height="4" fill="#D9B48F"/>
<rect x="232" y="208" width="24" height="4" fill="#AD8F3C"/>
<rect x="256" y="208" width="8" height="4" fill="#D9B48F"/>
<rect x="264" y="208" width="256" height="4" fill="#DCCFAF"/>
<rect x="520" y="208" width="8" height="4" fill="#EFF2F1"/>
<rect x="528" y="208" width="8" height="4" fill="#D9DFDE"/>
<rect x="536" y="208" width="232" height="4" fill="#DCCFAF"/>
<rect x="768" y="208" width="8" height="4" fill="#C8B990"/>
<rect x="776" y="208" width="24" height="4" fill="#DCCFAF"/>
<rect x="0" y="212" width="164" height="4" fill="#DCCFAF"/>
<rect x="164" y="212" width="8" height="4" fill="#B5A57F"/>
<rect x="172" y="212" width="60" height="4" fill="#DCCFAF"/>
<rect x="232" y="212" width="24" height="4" fill="#5A6B7E"/>
<rect x="256" y="212" width="544" height="4" fill="#DCCFAF"/>
<rect x="0" y="216" width="232" height="4" fill="#DCCFAF"/>
<rect x="232" y="216" width="24" height="4" fill="#5A6B7E"/>
<rect x="256" y="216" width="176" height="4" fill="#DCCFAF"/>
<rect x="432" y="216" width="8" height="4" fill="#B5A57F"/>
<rect x="440" y="216" width="360" height="4" fill="#DCCFAF"/>
<rect x="0" y="220" width="224" height="4" fill="#DCCFAF"/>
<rect x="224" y="220" width="16" height="4" fill="#5A6B7E"/>
<rect x="240" y="220" width="8" height="4" fill="#DCCFAF"/>
<rect x="248" y="220" width="8" height="4" fill="#4A5A6B"/>
<rect x="256" y="220" width="16" height="4" fill="#DCCFAF"/>
<rect x="272" y="220" width="8" height="4" fill="#3A4048"/>
<rect x="280" y="220" width="520" height="4" fill="#DCCFAF"/>
<rect x="0" y="224" width="224" height="4" fill="#DCCFAF"/>
<rect x="224" y="224" width="16" height="4" fill="#5A6B7E"/>
<rect x="240" y="224" width="8" height="4" fill="#DCCFAF"/>
<rect x="248" y="224" width="8" height="4" fill="#4A5A6B"/>
<rect x="256" y="224" width="16" height="4" fill="#DCCFAF"/>
<rect x="272" y="224" width="8" height="4" fill="#3A4048"/>
<rect x="280" y="224" width="520" height="4" fill="#DCCFAF"/>
<rect x="0" y="228" width="92" height="4" fill="#DCCFAF"/>
<rect x="92" y="228" width="8" height="4" fill="#C8B990"/>
<rect x="100" y="228" width="124" height="4" fill="#DCCFAF"/>
<rect x="224" y="228" width="8" height="4" fill="#5A6B7E"/>
<rect x="232" y="228" width="16" height="4" fill="#DCCFAF"/>
<rect x="248" y="228" width="8" height="4" fill="#4A5A6B"/>
<rect x="256" y="228" width="8" height="4" fill="#DCCFAF"/>
<rect x="264" y="228" width="24" height="4" fill="#A84A3F"/>
<rect x="288" y="228" width="512" height="4" fill="#DCCFAF"/>
<rect x="0" y="232" width="224" height="4" fill="#DCCFAF"/>
<rect x="224" y="232" width="8" height="4" fill="#5A6B7E"/>
<rect x="232" y="232" width="16" height="4" fill="#DCCFAF"/>
<rect x="248" y="232" width="8" height="4" fill="#4A5A6B"/>
<rect x="256" y="232" width="8" height="4" fill="#DCCFAF"/>
<rect x="264" y="232" width="24" height="4" fill="#A84A3F"/>
<rect x="288" y="232" width="352" height="4" fill="#DCCFAF"/>
<rect x="640" y="232" width="8" height="4" fill="#C8B990"/>
<rect x="648" y="232" width="152" height="4" fill="#DCCFAF"/>
<rect x="0" y="236" width="224" height="4" fill="#DCCFAF"/>
<rect x="224" y="236" width="8" height="4" fill="#5A6B7E"/>
<rect x="232" y="236" width="16" height="4" fill="#DCCFAF"/>
<rect x="248" y="236" width="8" height="4" fill="#4A5A6B"/>
<rect x="256" y="236" width="8" height="4" fill="#DCCFAF"/>
<rect x="264" y="236" width="24" height="4" fill="#A84A3F"/>
<rect x="288" y="236" width="512" height="4" fill="#DCCFAF"/>
<rect x="0" y="240" width="224" height="4" fill="#DCCFAF"/>
<rect x="224" y="240" width="8" height="4" fill="#5A6B7E"/>
<rect x="232" y="240" width="16" height="4" fill="#DCCFAF"/>
<rect x="248" y="240" width="8" height="4" fill="#4A5A6B"/>
<rect x="256" y="240" width="8" height="4" fill="#DCCFAF"/>
<rect x="264" y="240" width="24" height="4" fill="#A84A3F"/>
<rect x="288" y="240" width="72" height="4" fill="#DCCFAF"/>
<rect x="360" y="240" width="8" height="4" fill="#C8B990"/>
<rect x="368" y="240" width="432" height="4" fill="#DCCFAF"/>
<rect x="0" y="244" width="224" height="4" fill="#DCCFAF"/>
<rect x="224" y="244" width="8" height="4" fill="#5A6B7E"/>
<rect x="232" y="244" width="16" height="4" fill="#DCCFAF"/>
<rect x="248" y="244" width="8" height="4" fill="#4A5A6B"/>
<rect x="256" y="244" width="8" height="4" fill="#DCCFAF"/>
<rect x="264" y="244" width="24" height="4" fill="#A84A3F"/>
<rect x="288" y="244" width="512" height="4" fill="#DCCFAF"/>
<rect x="0" y="248" width="224" height="4" fill="#DCCFAF"/>
<rect x="224" y="248" width="8" height="4" fill="#5A6B7E"/>
<rect x="232" y="248" width="16" height="4" fill="#DCCFAF"/>
<rect x="248" y="248" width="8" height="4" fill="#4A5A6B"/>
<rect x="256" y="248" width="8" height="4" fill="#DCCFAF"/>
<rect x="264" y="248" width="24" height="4" fill="#A84A3F"/>
<rect x="288" y="248" width="512" height="4" fill="#DCCFAF"/>
<rect x="0" y="252" width="216" height="4" fill="#DCCFAF"/>
<rect x="216" y="252" width="16" height="4" fill="#4A4038"/>
<rect x="232" y="252" width="16" height="4" fill="#DCCFAF"/>
<rect x="248" y="252" width="16" height="4" fill="#4A4038"/>
<rect x="264" y="252" width="448" height="4" fill="#DCCFAF"/>
<rect x="712" y="252" width="8" height="4" fill="#B5A57F"/>
<rect x="720" y="252" width="80" height="4" fill="#DCCFAF"/>
<rect x="0" y="256" width="216" height="4" fill="#DCCFAF"/>
<rect x="216" y="256" width="16" height="4" fill="#4A4038"/>
<rect x="232" y="256" width="8" height="4" fill="#C8B990"/>
<rect x="240" y="256" width="8" height="4" fill="#DCCFAF"/>
<rect x="248" y="256" width="16" height="4" fill="#4A4038"/>
<rect x="264" y="256" width="536" height="4" fill="#DCCFAF"/>
<rect x="0" y="260" width="800" height="4" fill="#DCCFAF"/>
<rect x="0" y="264" width="48" height="4" fill="#DCCFAF"/>
<rect x="48" y="264" width="8" height="4" fill="#B5A57F"/>
<rect x="56" y="264" width="744" height="4" fill="#DCCFAF"/>
<rect x="0" y="268" width="504" height="4" fill="#DCCFAF"/>
<rect x="504" y="268" width="8" height="4" fill="#C8B990"/>
<rect x="512" y="268" width="288" height="4" fill="#DCCFAF"/>
<rect x="0" y="272" width="800" height="4" fill="#DCCFAF"/>
<rect x="0" y="276" width="604" height="4" fill="#DCCFAF"/>
<rect x="604" y="276" width="8" height="4" fill="#C8B990"/>
<rect x="612" y="276" width="188" height="4" fill="#DCCFAF"/>
<rect x="0" y="280" width="136" height="4" fill="#DCCFAF"/>
<rect x="136" y="280" width="8" height="4" fill="#B5A57F"/>
<rect x="144" y="280" width="656" height="4" fill="#DCCFAF"/>
<rect x="0" y="284" width="740" height="4" fill="#DCCFAF"/>
<rect x="740" y="284" width="8" height="4" fill="#C8B990"/>
<rect x="748" y="284" width="52" height="4" fill="#DCCFAF"/>
<rect x="0" y="288" width="276" height="4" fill="#DCCFAF"/>
<rect x="276" y="288" width="8" height="4" fill="#B5A57F"/>
<rect x="284" y="288" width="184" height="4" fill="#DCCFAF"/>
<rect x="468" y="288" width="8" height="4" fill="#C8B990"/>
<rect x="476" y="288" width="324" height="4" fill="#DCCFAF"/>
<rect x="0" y="292" width="800" height="4" fill="#DCCFAF"/>
<rect x="0" y="296" width="800" height="4" fill="#DCCFAF"/>
</svg>